Commissioner-SemiBold.ufo
<glyph name="numbersign" format="2">
  <advance width="1387.2631578947369"/>
  <unicode hex="0023"/>
  <outline>
    <contour>
      <point x="29.473684210526315" y="275.6842105263158" type="line"/>
      <point x="163.3684210526316" y="275.6842105263158"/>
      <point x="290.2105263157895" y="275.6842105263158"/>
      <point x="400.0" y="275.6842105263158" type="curve"/>
      <point x="883.1578947368421" y="275.6842105263158" type="line"/>
      <point x="992.9473684210526" y="275.6842105263158"/>
      <point x="1119.7894736842104" y="275.6842105263158"/>
      <point x="1253.6842105263158" y="275.6842105263158" type="curve"/>
      <point x="1253.6842105263158" y="470.63157894736844" type="line"/>
      <point x="1119.7894736842104" y="470.63157894736844"/>
      <point x="992.9473684210526" y="470.63157894736844"/>
      <point x="883.1578947368421" y="470.63157894736844" type="curve"/>
      <point x="400.0" y="470.63157894736844" type="line"/>
      <point x="290.2105263157895" y="470.63157894736844"/>
      <point x="163.3684210526316" y="470.63157894736844"/>
      <point x="29.473684210526315" y="470.63157894736844" type="curve"/>
    </contour>
    <contour>
      <point x="220.0" y="0.0" type="curve"/>
      <point x="419.89473684210526" y="0.0" type="line"/>
      <point x="446.7368421052631" y="138.0"/>
      <point x="468.63157894736844" y="259.4736842105263"/>
      <point x="500.42105263157896" y="428.5263157894737" type="curve"/>
      <point x="585.7894736842105" y="885.8947368421053" type="line"/>
      <point x="618.5263157894736" y="1067.0526315789473"/>
      <point x="640.3157894736842" y="1182.842105263158"/>
      <point x="667.1578947368421" y="1327.0526315789473" type="curve"/>
      <point x="467.2631578947369" y="1327.0526315789473" type="line"/>
      <point x="440.42105263157896" y="1178.6315789473683"/>
      <point x="418.63157894736844" y="1063.8947368421052"/>
      <point x="385.89473684210526" y="887.7894736842105" type="curve"/>
      <point x="300.5263157894737" y="428.5263157894737" type="line"/>
      <point x="268.7368421052632" y="257.36842105263156"/>
      <point x="245.78947368421052" y="133.78947368421052"/>
    </contour>
    <contour>
      <point x="133.57894736842104" y="850.421052631579" type="line"/>
      <point x="267.4736842105263" y="850.421052631579"/>
      <point x="394.3157894736842" y="850.421052631579"/>
      <point x="504.10526315789474" y="850.421052631579" type="curve"/>
      <point x="987.2631578947369" y="850.421052631579" type="line"/>
      <point x="1097.0526315789473" y="850.421052631579"/>
      <point x="1223.8947368421052" y="850.421052631579"/>
      <point x="1357.7894736842104" y="850.421052631579" type="curve"/>
      <point x="1357.7894736842104" y="1045.3684210526317" type="line"/>
      <point x="1223.8947368421052" y="1045.3684210526317"/>
      <point x="1097.0526315789473" y="1045.3684210526317"/>
      <point x="987.2631578947369" y="1045.3684210526317" type="curve"/>
      <point x="504.10526315789474" y="1045.3684210526317" type="line"/>
      <point x="394.3157894736842" y="1045.3684210526317"/>
      <point x="267.4736842105263" y="1045.3684210526317"/>
      <point x="133.57894736842104" y="1045.3684210526317" type="curve"/>
    </contour>
    <contour>
      <point x="711.578947368421" y="0.0" type="curve"/>
      <point x="911.4736842105262" y="0.0" type="line"/>
      <point x="938.3157894736842" y="138.0"/>
      <point x="960.2105263157895" y="259.4736842105263"/>
      <point x="992.0" y="428.5263157894737" type="curve"/>
      <point x="1077.3684210526317" y="885.8947368421053" type="line"/>
      <point x="1110.1052631578948" y="1067.0526315789473"/>
      <point x="1131.8947368421052" y="1182.842105263158"/>
      <point x="1158.7368421052631" y="1327.0526315789473" type="curve"/>
      <point x="958.8421052631579" y="1327.0526315789473" type="line"/>
      <point x="932.0" y="1178.6315789473683"/>
      <point x="910.2105263157895" y="1063.8947368421052"/>
      <point x="877.4736842105264" y="887.7894736842105" type="curve"/>
      <point x="792.1052631578947" y="428.5263157894737" type="line"/>
      <point x="760.3157894736842" y="257.36842105263156"/>
      <point x="737.3684210526316" y="133.78947368421052"/>
    </contour>
  </outline>
</glyph>
<glyph name="dollar" format="2">
  <advance width="1141.8947368421052"/>
  <unicode hex="0024"/>
  <outline>
    <contour>
      <point x="570.5263157894736" y="-24.315789473684212" type="curve" smooth="yes"/>
      <point x="922.3157894736842" y="-24.315789473684212"/>
      <point x="1076.421052631579" y="141.3684210526316"/>
      <point x="1076.421052631579" y="385.57894736842104" type="curve" smooth="yes"/>
      <point x="1076.421052631579" y="599.4736842105264"/>
      <point x="972.3157894736842" y="697.578947368421"/>
      <point x="647.4736842105264" y="797.0526315789474" type="curve" smooth="yes"/>
      <point x="431.05263157894734" y="864.9473684210526"/>
      <point x="337.0526315789474" y="896.5263157894736"/>
      <point x="337.0526315789474" y="999.6842105263158" type="curve" smooth="yes"/>
      <point x="337.0526315789474" y="1119.6842105263158"/>
      <point x="460.9473684210526" y="1171.157894736842"/>
      <point x="595.6842105263158" y="1171.157894736842" type="curve"/>
      <point x="711.8947368421052" y="1171.157894736842"/>
      <point x="855.7894736842105" y="1136.0"/>
      <point x="976.2105263157895" y="1060.2105263157896" type="curve"/>
      <point x="997.6842105263158" y="1297.6842105263158" type="line"/>
      <point x="901.3684210526316" y="1347.578947368421"/>
      <point x="720.7368421052631" y="1396.2105263157894"/>
      <point x="556.421052631579" y="1396.2105263157894" type="curve" smooth="yes"/>
      <point x="242.10526315789474" y="1396.2105263157894"/>
      <point x="88.84210526315789" y="1230.6315789473683"/>
      <point x="88.84210526315789" y="998.6315789473684" type="curve" smooth="yes"/>
      <point x="88.84210526315789" y="765.7894736842105"/>
      <point x="233.4736842105263" y="674.3157894736842"/>
      <point x="484.63157894736844" y="598.9473684210526" type="curve" smooth="yes"/>
      <point x="698.1052631578948" y="534.7368421052631"/>
      <point x="829.2631578947369" y="497.2631578947368"/>
      <point x="829.2631578947369" y="382.3157894736842" type="curve" smooth="yes"/>
      <point x="829.2631578947369" y="250.10526315789474"/>
      <point x="718.9473684210526" y="196.52631578947367"/>
      <point x="560.0" y="196.52631578947367" type="curve"/>
      <point x="414.8421052631579" y="196.52631578947367"/>
      <point x="261.89473684210526" y="239.4736842105263"/>
      <point x="130.6315789473684" y="309.57894736842104" type="curve"/>
      <point x="109.05263157894737" y="76.21052631578948" type="line"/>
      <point x="204.6315789473684" y="26.315789473684212"/>
      <point x="399.4736842105263" y="-24.315789473684212"/>
    </contour>
    <contour>
      <point x="485.6842105263158" y="-274.0" type="curve"/>
      <point x="682.5263157894736" y="-274.0" type="line"/>
      <point x="682.5263157894736" y="-39.05263157894737"/>
      <point x="682.5263157894736" y="165.89473684210526"/>
      <point x="682.5263157894736" y="384.0" type="curve"/>
      <point x="682.5263157894736" y="948.0" type="line"/>
      <point x="682.5263157894736" y="1164.0"/>
      <point x="682.5263157894736" y="1370.0"/>
      <point x="682.5263157894736" y="1606.0" type="curve"/>
      <point x="485.6842105263158" y="1606.0" type="line"/>
      <point x="485.6842105263158" y="1370.0"/>
      <point x="485.6842105263158" y="1164.0"/>
      <point x="485.6842105263158" y="948.0" type="curve"/>
      <point x="485.6842105263158" y="384.0" type="line"/>
      <point x="485.6842105263158" y="168.0"/>
      <point x="485.6842105263158" y="-38.0"/>
    </contour>
  </outline>
</glyph>
<glyph name="percent" format="2">
  <advance width="1846.9473684210527"/>
  <unicode hex="0025"/>
  <outline>
    <contour>
      <point x="383.1578947368421" y="0.0" type="curve"/>
      <point x="617.4736842105262" y="0.0" type="line"/>
      <point x="702.6315789473684" y="146.0"/>
      <point x="778.8421052631579" y="277.05263157894734"/>
      <point x="886.1052631578948" y="459.05263157894734" type="curve"/>
      <point x="1176.7368421052631" y="954.0" type="line"/>
      <point x="1285.8947368421052" y="1141.8947368421052"/>
      <point x="1364.2105263157894" y="1274.1052631578948"/>
      <point x="1452.3157894736842" y="1426.0" type="curve"/>
      <point x="1218.0" y="1426.0" type="line"/>
      <point x="1129.8947368421052" y="1274.1052631578948"/>
      <point x="1051.578947368421" y="1141.8947368421052"/>
      <point x="942.421052631579" y="954.0" type="curve"/>
      <point x="651.7894736842105" y="459.05263157894734" type="line"/>
      <point x="544.5263157894736" y="277.05263157894734"/>
      <point x="468.3157894736842" y="146.0"/>
    </contour>
    <contour>
      <point x="449.89473684210526" y="730.7368421052631" type="curve" smooth="yes"/>
      <point x="682.3157894736842" y="730.7368421052631"/>
      <point x="840.8421052631579" y="868.7368421052631"/>
      <point x="840.8421052631579" y="1092.6315789473683" type="curve" smooth="yes"/>
      <point x="840.8421052631579" y="1298.9473684210527"/>
      <point x="682.3157894736842" y="1454.2105263157894"/>
      <point x="450.8421052631579" y="1454.2105263157894" type="curve" smooth="yes"/>
      <point x="218.42105263157896" y="1454.2105263157894"/>
      <point x="58.94736842105263" y="1298.9473684210527"/>
      <point x="58.94736842105263" y="1092.6315789473683" type="curve" smooth="yes"/>
      <point x="58.94736842105263" y="868.7368421052631"/>
      <point x="218.42105263157896" y="730.7368421052631"/>
    </contour>
    <contour>
      <point x="449.89473684210526" y="898.0" type="curve"/>
      <point x="329.7894736842105" y="898.0"/>
      <point x="255.68421052631578" y="970.421052631579"/>
      <point x="255.68421052631578" y="1090.5263157894738" type="curve" smooth="yes"/>
      <point x="255.68421052631578" y="1204.6315789473683"/>
      <point x="329.7894736842105" y="1285.8947368421052"/>
      <point x="450.8421052631579" y="1285.8947368421052" type="curve"/>
      <point x="571.8947368421053" y="1285.8947368421052"/>
      <point x="644.1052631578948" y="1202.5263157894738"/>
      <point x="644.1052631578948" y="1090.5263157894738" type="curve" smooth="yes"/>
      <point x="644.1052631578948" y="970.421052631579"/>
      <point x="571.8947368421053" y="898.0"/>
    </contour>
    <contour>
      <point x="1386.5263157894738" y="-25.36842105263158" type="curve" smooth="yes"/>
      <point x="1618.9473684210527" y="-25.36842105263158"/>
      <point x="1777.4736842105262" y="112.63157894736842"/>
      <point x="1777.4736842105262" y="336.5263157894737" type="curve" smooth="yes"/>
      <point x="1777.4736842105262" y="542.8421052631579"/>
      <point x="1618.9473684210527" y="698.1052631578947"/>
      <point x="1387.4736842105262" y="698.1052631578947" type="curve" smooth="yes"/>
      <point x="1155.0526315789473" y="698.1052631578947"/>
      <point x="995.578947368421" y="542.8421052631579"/>
      <point x="995.578947368421" y="336.5263157894737" type="curve" smooth="yes"/>
      <point x="995.578947368421" y="112.63157894736842"/>
      <point x="1155.0526315789473" y="-25.36842105263158"/>
    </contour>
    <contour>
      <point x="1386.5263157894738" y="141.89473684210526" type="curve"/>
      <point x="1266.421052631579" y="141.89473684210526"/>
      <point x="1192.3157894736842" y="214.31578947368422"/>
      <point x="1192.3157894736842" y="334.42105263157896" type="curve" smooth="yes"/>
      <point x="1192.3157894736842" y="448.5263157894737"/>
      <point x="1266.421052631579" y="529.7894736842105"/>
      <point x="1387.4736842105262" y="529.7894736842105" type="curve"/>
      <point x="1508.5263157894738" y="529.7894736842105"/>
      <point x="1580.7368421052631" y="446.42105263157896"/>
      <point x="1580.7368421052631" y="334.42105263157896" type="curve" smooth="yes"/>
      <point x="1580.7368421052631" y="214.31578947368422"/>
      <point x="1508.5263157894738" y="141.89473684210526"/>
    </contour>
  </outline>
</glyph>
<glyph name="ampersand" format="2">
  <advance width="1511.864077669903"/>
  <unicode hex="0026"/>
  <outline>
    <contour>
      <point x="1168.601941747573" y="0.0" type="curve"/>
      <point x="1492.6407766990292" y="0.0" type="line"/>
      <point x="1365.8640776699028" y="136.03883495145632"/>
      <point x="1237.5922330097087" y="272.0776699029126"/>
      <point x="1109.0679611650485" y="408.11650485436894" type="curve"/>
      <point x="679.3786407766991" y="858.0970873786408" type="line" smooth="yes"/>
      <point x="580.4271844660194" y="959.8058252427185"/>
      <point x="539.6893203883494" y="1030.0194174757282"/>
      <point x="539.6893203883494" y="1110.9902912621358" type="curve" smooth="yes"/>
      <point x="539.6893203883494" y="1204.1941747572816"/>
      <point x="602.1553398058252" y="1267.6504854368932"/>
      <point x="690.0970873786407" y="1267.6504854368932" type="curve"/>
      <point x="778.2912621359224" y="1267.6504854368932"/>
      <point x="843.2427184466019" y="1202.6796116504856"/>
      <point x="843.2427184466019" y="1119.2233009708737" type="curve" smooth="yes"/>
      <point x="843.2427184466019" y="1010.0388349514564"/>
      <point x="765.0485436893204" y="942.7961165048544"/>
      <point x="633.8834951456311" y="889.8058252427185" type="curve"/>
      <point x="741.4563106796116" y="743.2621359223301" type="line"/>
      <point x="887.6699029126214" y="805.5145631067961"/>
      <point x="1077.398058252427" y="903.26213592233"/>
      <point x="1077.398058252427" y="1127.2427184466019" type="curve" smooth="yes"/>
      <point x="1077.398058252427" y="1336.0"/>
      <point x="902.8932038834952" y="1454.504854368932"/>
      <point x="676.8349514563107" y="1454.504854368932" type="curve" smooth="yes"/>
      <point x="456.2718446601942" y="1454.504854368932"/>
      <point x="278.71844660194176" y="1331.0097087378642"/>
      <point x="278.71844660194176" y="1107.2233009708739" type="curve" smooth="yes"/>
      <point x="278.71844660194176" y="968.73786407767"/>
      <point x="350.9514563106796" y="858.7378640776699"/>
      <point x="464.4271844660194" y="738.252427184466" type="curve" smooth="yes"/>
      <point x="907.6310679611651" y="272.0" type="line"/>
      <point x="994.6213592233009" y="182.0"/>
      <point x="1081.6116504854367" y="88.25242718446601"/>
    </contour>
    <contour>
      <point x="526.2135922330098" y="-22.75728155339806" type="curve" smooth="yes"/>
      <point x="720.9514563106796" y="-22.75728155339806"/>
      <point x="851.2038834951456" y="57.22330097087379"/>
      <point x="966.1747572815533" y="189.68932038834953" type="curve"/>
      <point x="994.6796116504854" y="189.68932038834953" type="line"/>
      <point x="987.9417475728155" y="228.19417475728156" type="line"/>
      <point x="851.8834951456311" y="370.25242718446606" type="line"/>
      <point x="765.2038834951455" y="253.6116504854369"/>
      <point x="666.7572815533981" y="191.16504854368935"/>
      <point x="568.3106796116505" y="191.16504854368935" type="curve"/>
      <point x="416.6407766990291" y="191.16504854368935"/>
      <point x="333.6893203883495" y="282.873786407767"/>
      <point x="333.6893203883495" y="405.80582524271847" type="curve" smooth="yes"/>
      <point x="333.6893203883495" y="527.7087378640776"/>
      <point x="415.3592233009708" y="618.9126213592233"/>
      <point x="543.7669902912621" y="678.8932038834951" type="curve"/>
      <point x="431.66990291262135" y="834.4854368932039" type="line"/>
      <point x="249.4174757281553" y="754.2330097087379"/>
      <point x="78.44660194174757" y="616.2330097087379"/>
      <point x="78.44660194174757" y="373.747572815534" type="curve" smooth="yes"/>
      <point x="78.44660194174757" y="152.48543689320388"/>
      <point x="227.20388349514562" y="-22.75728155339806"/>
    </contour>
    <contour>
      <point x="1141.8640776699028" y="349.2233009708738" type="line"/>
      <point x="1239.631067961165" y="470.2135922330097"/>
      <point x="1333.6504854368932" y="587.7087378640776"/>
      <point x="1429.6699029126214" y="708.6990291262136" type="curve"/>
      <point x="1212.7378640776699" y="849.0679611650485" type="line"/>
      <point x="1138.990291262136" y="732.0776699029126"/>
      <point x="1067.2427184466019" y="618.3300970873787"/>
      <point x="990.0" y="499.5922330097087" type="curve"/>
    </contour>
  </outline>
</glyph>
<glyph name="parenleft" format="2">
  <advance width="809.0526315789474"/>
  <unicode hex="0028"/>
  <outline>
    <contour>
      <point x="577.578947368421" y="-258.7368421052632" type="curve"/>
      <point x="745.8947368421052" y="-179.26315789473685" type="line"/>
      <point x="544.9473684210526" y="-10.421052631578949"/>
      <point x="364.0" y="240.42105263157896"/>
      <point x="364.0" y="646.9473684210526" type="curve" smooth="yes"/>
      <point x="364.0" y="1054.421052631579"/>
      <point x="544.9473684210526" y="1304.3157894736842"/>
      <point x="745.8947368421052" y="1473.157894736842" type="curve"/>
      <point x="577.578947368421" y="1552.6315789473683" type="line"/>
      <point x="298.8421052631579" y="1371.578947368421"/>
      <point x="97.89473684210526" y="1076.5263157894738"/>
      <point x="97.89473684210526" y="646.9473684210526" type="curve" smooth="yes"/>
      <point x="97.89473684210526" y="219.3684210526316"/>
      <point x="298.8421052631579" y="-77.68421052631578"/>
    </contour>
  </outline>
</glyph>
<glyph name="asterisk" format="2">
  <advance width="973.8947368421052"/>
  <unicode hex="002A"/>
  <outline>
    <contour>
      <point x="836.7368421052631" y="722.5263157894736" type="curve"/>
      <point x="924.421052631579" y="872.3157894736842" type="line"/>
      <point x="788.0" y="941.8947368421052"/>
      <point x="649.578947368421" y="1009.4736842105264"/>
      <point x="514.1052631578947" y="1079.0526315789473" type="curve"/>
      <point x="387.1578947368421" y="1167.3684210526317"/>
      <point x="263.1578947368421" y="1256.7368421052631"/>
      <point x="137.1578947368421" y="1345.0526315789473" type="curve"/>
      <point x="49.473684210526315" y="1195.2631578947369" type="line"/>
      <point x="185.89473684210526" y="1125.6842105263158"/>
      <point x="324.3157894736842" y="1058.1052631578948"/>
      <point x="460.7368421052632" y="987.578947368421" type="curve"/>
      <point x="586.7368421052631" y="900.2105263157895"/>
      <point x="710.7368421052631" y="810.8421052631579"/>
    </contour>
    <contour>
      <point x="137.1578947368421" y="722.5263157894736" type="line"/>
      <point x="263.1578947368421" y="810.8421052631579"/>
      <point x="387.1578947368421" y="900.2105263157895"/>
      <point x="514.1052631578947" y="988.5263157894736" type="curve"/>
      <point x="649.578947368421" y="1058.1052631578948"/>
      <point x="788.0" y="1125.6842105263158"/>
      <point x="924.421052631579" y="1195.2631578947369" type="curve"/>
      <point x="836.7368421052631" y="1345.0526315789473" type="line"/>
      <point x="710.7368421052631" y="1256.7368421052631"/>
      <point x="586.7368421052631" y="1167.3684210526317"/>
      <point x="460.7368421052632" y="1080.0" type="curve"/>
      <point x="324.3157894736842" y="1009.4736842105264"/>
      <point x="185.89473684210526" y="941.8947368421052"/>
      <point x="49.473684210526315" y="872.3157894736842" type="curve"/>
    </contour>
    <contour>
      <point x="399.6842105263158" y="574.3157894736842" type="curve"/>
      <point x="574.2105263157895" y="574.3157894736842" type="line"/>
      <point x="562.7368421052631" y="727.4736842105264"/>
      <point x="551.3684210526316" y="880.6315789473684"/>
      <point x="539.8947368421052" y="1034.7368421052631" type="curve"/>
      <point x="551.3684210526316" y="1186.9473684210527"/>
      <point x="562.7368421052631" y="1340.1052631578948"/>
      <point x="574.2105263157895" y="1493.2631578947369" type="curve"/>
      <point x="399.6842105263158" y="1493.2631578947369" type="line"/>
      <point x="411.1578947368421" y="1340.1052631578948"/>
      <point x="422.5263157894737" y="1186.9473684210527"/>
      <point x="434.0" y="1034.7368421052631" type="curve"/>
      <point x="422.5263157894737" y="880.6315789473684"/>
      <point x="411.1578947368421" y="727.4736842105264"/>
    </contour>
  </outline>
</glyph>
<glyph name="comma" format="2">
  <advance width="489.05263157894734"/>
  <unicode hex="002C"/>
  <outline>
    <contour>
      <point x="36.31578947368421" y="-314.0" type="curve"/>
      <point x="165.26315789473685" y="-310.94736842105266" type="line"/>
      <point x="280.3157894736842" y="-222.10526315789474"/>
      <point x="403.0526315789474" y="-50.73684210526316"/>
      <point x="403.0526315789474" y="133.26315789473685" type="curve" smooth="yes"/>
      <point x="403.0526315789474" y="228.6315789473684"/>
      <point x="360.9473684210526" y="301.57894736842104"/>
      <point x="261.1578947368421" y="313.0526315789474" type="curve"/>
      <point x="140.31578947368422" y="302.63157894736844" type="line"/>
      <point x="140.31578947368422" y="222.0"/>
      <point x="140.31578947368422" y="141.36842105263156"/>
      <point x="140.31578947368422" y="67.05263157894737" type="curve"/>
      <point x="140.31578947368422" y="-83.78947368421052"/>
      <point x="110.94736842105263" y="-200.8421052631579"/>
    </contour>
  </outline>
</glyph>
<glyph name="period" format="2">
  <advance width="513.2631578947369"/>
  <unicode hex="002E"/>
  <outline>
    <contour>
      <point x="256.10526315789474" y="-25.36842105263158" type="curve" smooth="yes"/>
      <point x="363.6842105263158" y="-25.36842105263158"/>
      <point x="428.2105263157895" y="46.526315789473685"/>
      <point x="428.2105263157895" y="142.5263157894737" type="curve" smooth="yes"/>
      <point x="428.2105263157895" y="239.4736842105263"/>
      <point x="363.6842105263158" y="307.2631578947368"/>
      <point x="257.1578947368421" y="307.2631578947368" type="curve" smooth="yes"/>
      <point x="150.5263157894737" y="307.2631578947368"/>
      <point x="85.05263157894737" y="239.4736842105263"/>
      <point x="85.05263157894737" y="142.5263157894737" type="curve" smooth="yes"/>
      <point x="85.05263157894737" y="46.526315789473685"/>
      <point x="150.5263157894737" y="-25.36842105263158"/>
    </contour>
  </outline>
</glyph>
<glyph name="slash" format="2">
  <advance width="903.3684210526316"/>
  <unicode hex="002F"/>
  <outline>
    <contour>
      <point x="38.94736842105264" y="0.0" type="curve"/>
      <point x="293.36842105263156" y="0.0" type="line"/>
      <point x="352.9473684210526" y="148.0"/>
      <point x="402.63157894736844" y="274.0"/>
      <point x="476.10526315789474" y="456.0" type="curve"/>
      <point x="672.7368421052631" y="948.0" type="line"/>
      <point x="750.2105263157895" y="1142.0"/>
      <point x="802.8421052631579" y="1272.0"/>
      <point x="864.421052631579" y="1426.0" type="curve"/>
      <point x="610.0" y="1426.0" type="line"/>
      <point x="548.421052631579" y="1272.0"/>
      <point x="495.7894736842105" y="1140.9473684210527"/>
      <point x="420.3157894736842" y="952.0" type="curve"/>
      <point x="221.68421052631578" y="456.0" type="line"/>
      <point x="148.21052631578948" y="274.0"/>
      <point x="98.52631578947368" y="148.0"/>
    </contour>
  </outline>
</glyph>
<glyph name="zero" format="2">
  <advance width="1322.842105263158"/>
  <unicode hex="0030"/>
  <outline>
    <contour>
      <point x="666.9473684210526" y="-24.315789473684212" type="curve" smooth="yes"/>
      <point x="1041.6842105263158" y="-24.315789473684212"/>
      <point x="1229.6842105263158" y="257.2631578947368"/>
      <point x="1229.6842105263158" y="689.0526315789474" type="curve" smooth="yes"/>
      <point x="1229.6842105263158" y="1108.842105263158"/>
      <point x="1050.7368421052631" y="1402.5263157894738"/>
      <point x="659.7894736842105" y="1402.5263157894738" type="curve" smooth="yes"/>
      <point x="272.7368421052632" y="1402.5263157894738"/>
      <point x="93.15789473684211" y="1110.7368421052631"/>
      <point x="93.15789473684211" y="688.0" type="curve" smooth="yes"/>
      <point x="93.15789473684211" y="285.57894736842104"/>
      <point x="258.94736842105266" y="-24.315789473684212"/>
    </contour>
    <contour>
      <point x="662.9473684210526" y="202.8421052631579" type="curve"/>
      <point x="452.42105263157896" y="202.8421052631579"/>
      <point x="372.9473684210526" y="405.4736842105263"/>
      <point x="372.9473684210526" y="689.0526315789474" type="curve" smooth="yes"/>
      <point x="372.9473684210526" y="974.9473684210526"/>
      <point x="458.42105263157896" y="1174.3157894736842"/>
      <point x="662.9473684210526" y="1174.3157894736842" type="curve"/>
      <point x="861.578947368421" y="1174.3157894736842"/>
      <point x="950.9473684210526" y="984.3157894736842"/>
      <point x="950.9473684210526" y="689.0526315789474" type="curve" smooth="yes"/>
      <point x="950.9473684210526" y="408.3157894736842"/>
      <point x="871.3684210526316" y="202.8421052631579"/>
    </contour>
  </outline>
</glyph>
<glyph name="three" format="2">
  <advance width="1158.7961165048544"/>
  <unicode hex="0033"/>
  <outline>
    <contour>
      <point x="557.26213592233" y="-25.009708737864077" type="curve" smooth="yes"/>
      <point x="909.5728155339806" y="-25.009708737864077"/>
      <point x="1073.0873786407767" y="145.24271844660194"/>
      <point x="1073.0873786407767" y="374.2718446601942" type="curve" smooth="yes"/>
      <point x="1073.0873786407767" y="590.7572815533981"/>
      <point x="920.6213592233009" y="695.747572815534"/>
      <point x="776.8737864077669" y="721.747572815534" type="curve"/>
      <point x="776.8737864077669" y="743.26213592233" type="line"/>
      <point x="918.3689320388349" y="774.5048543689321"/>
      <point x="1032.8543689320388" y="881.7281553398058"/>
      <point x="1032.8543689320388" y="1053.7281553398059" type="curve" smooth="yes"/>
      <point x="1032.8543689320388" y="1267.495145631068"/>
      <point x="858.3495145631068" y="1403.2621359223301"/>
      <point x="567.26213592233" y="1403.2621359223301" type="curve" smooth="yes"/>
      <point x="396.4854368932039" y="1403.2621359223301"/>
      <point x="222.71844660194174" y="1350.2718446601941"/>
      <point x="104.2135922330097" y="1288.5436893203882" type="curve"/>
      <point x="129.72815533980582" y="1037.0679611650485" type="line"/>
      <point x="256.2135922330097" y="1118.7961165048544"/>
      <point x="397.45631067961165" y="1171.8058252427186"/>
      <point x="523.2038834951456" y="1171.8058252427186" type="curve"/>
      <point x="660.8932038834952" y="1171.8058252427186"/>
      <point x="754.5825242718447" y="1114.8349514563108"/>
      <point x="754.5825242718447" y="999.3980582524272" type="curve" smooth="yes"/>
      <point x="754.5825242718447" y="886.2135922330096"/>
      <point x="670.3883495145631" y="807.5339805825242"/>
      <point x="468.5242718446602" y="807.5339805825242" type="curve"/>
      <point x="420.504854368932" y="807.5339805825242"/>
      <point x="372.73786407766994" y="807.5339805825242"/>
      <point x="326.46601941747576" y="807.5339805825242" type="curve"/>
      <point x="326.46601941747576" y="598.6601941747573" type="line"/>
      <point x="379.24271844660194" y="598.6601941747573"/>
      <point x="430.0194174757282" y="598.6601941747573"/>
      <point x="484.54368932038835" y="598.6601941747573" type="curve"/>
      <point x="682.6601941747573" y="598.6601941747573"/>
      <point x="795.0679611650485" y="528.7184466019418"/>
      <point x="795.0679611650485" y="396.56310679611653" type="curve" smooth="yes"/>
      <point x="795.0679611650485" y="284.3883495145631"/>
      <point x="718.6213592233009" y="204.6990291262136"/>
      <point x="529.7281553398058" y="204.6990291262136" type="curve"/>
      <point x="397.9805825242718" y="204.6990291262136"/>
      <point x="244.23300970873785" y="251.96116504854368"/>
      <point x="100.48543689320388" y="328.95145631067965" type="curve"/>
      <point x="79.2233009708738" y="81.4757281553398" type="line"/>
      <point x="192.46601941747574" y="22.737864077669904"/>
      <point x="371.22330097087377" y="-25.009708737864077"/>
    </contour>
  </outline>
</glyph>
<glyph name="four" format="2">
  <advance width="1219.5533980582525"/>
  <unicode hex="0034"/>
  <outline>
    <contour>
      <point x="683.3980582524272" y="0.0" type="curve"/>
      <point x="952.9126213592233" y="0.0" type="line"/>
      <point x="952.9126213592233" y="131.00970873786406"/>
      <point x="952.9126213592233" y="238.77669902912623"/>
      <point x="952.9126213592233" y="396.2912621359223" type="curve"/>
      <point x="952.9126213592233" y="892.7572815533981" type="line"/>
      <point x="952.9126213592233" y="1050.757281553398"/>
      <point x="952.9126213592233" y="1208.757281553398"/>
      <point x="952.9126213592233" y="1374.757281553398" type="curve"/>
      <point x="685.9029126213592" y="1374.757281553398" type="line"/>
      <point x="624.6601941747573" y="1288.0194174757282"/>
      <point x="563.4174757281554" y="1201.0291262135922"/>
      <point x="502.17475728155335" y="1116.0388349514562" type="curve"/>
      <point x="334.19417475728153" y="877.0679611650485" type="line"/>
      <point x="247.45631067961165" y="754.8349514563107"/>
      <point x="132.71844660194174" y="592.6019417475728"/>
      <point x="51.728155339805824" y="478.11650485436894" type="curve"/>
      <point x="51.728155339805824" y="296.6990291262136" type="line"/>
      <point x="782.7184466019418" y="296.6990291262136" type="line"/>
      <point x="897.2427184466019" y="296.6990291262136"/>
      <point x="1063.0291262135922" y="296.6990291262136"/>
      <point x="1167.3009708737866" y="296.6990291262136" type="curve"/>
      <point x="1167.3009708737866" y="529.1650485436893" type="line"/>
      <point x="1063.0291262135922" y="529.1650485436893"/>
      <point x="897.2427184466019" y="529.1650485436893"/>
      <point x="782.7184466019418" y="529.1650485436893" type="curve"/>
      <point x="751.9611650485436" y="524.1165048543689" type="line"/>
      <point x="266.1747572815534" y="524.1165048543689" type="line"/>
      <point x="274.6796116504854" y="447.43689320388347" type="line"/>
      <point x="335.66990291262135" y="532.1747572815534"/>
      <point x="392.9126213592233" y="616.9126213592233"/>
      <point x="453.9029126213592" y="701.6504854368933" type="curve"/>
      <point x="680.1165048543689" y="1022.6019417475728" type="line"/>
      <point x="749.1067961165048" y="1121.0873786407767"/>
      <point x="816.0970873786408" y="1215.8252427184466"/>
      <point x="888.8349514563107" y="1319.8058252427184" type="curve"/>
      <point x="695.4368932038835" y="1255.1650485436892" type="line"/>
      <point x="695.4368932038835" y="1116.1747572815534"/>
      <point x="695.4368932038835" y="979.1844660194175"/>
      <point x="695.4368932038835" y="840.1941747572815" type="curve"/>
      <point x="695.4368932038835" y="436.56310679611653" type="line"/>
      <point x="683.3980582524272" y="396.2912621359223" type="line"/>
      <point x="683.3980582524272" y="238.77669902912623"/>
      <point x="683.3980582524272" y="131.00970873786406"/>
    </contour>
  </outline>
</glyph>
<glyph name="five" format="2">
  <advance width="1161.5339805825245"/>
  <unicode hex="0035"/>
  <outline>
    <contour>
      <point x="551.0097087378641" y="-25.009708737864077" type="curve" smooth="yes"/>
      <point x="903.5728155339806" y="-25.009708737864077"/>
      <point x="1075.8252427184466" y="169.49514563106794"/>
      <point x="1075.8252427184466" y="454.9902912621359" type="curve" smooth="yes"/>
      <point x="1075.8252427184466" y="746.2135922330096"/>
      <point x="890.0970873786407" y="891.7087378640778"/>
      <point x="659.8640776699029" y="891.7087378640778" type="curve" smooth="yes"/>
      <point x="578.8737864077669" y="891.7087378640778"/>
      <point x="501.3980582524272" y="873.9611650485436"/>
      <point x="431.16504854368935" y="838.9708737864078" type="curve"/>
      <point x="409.65048543689323" y="838.9708737864078" type="line"/>
      <point x="409.90291262135923" y="913.9417475728155" type="line"/>
      <point x="411.9029126213592" y="1017.4174757281553"/>
      <point x="414.15533980582524" y="1122.8932038834953"/>
      <point x="414.40776699029124" y="1228.116504854369" type="curve"/>
      <point x="326.873786407767" y="1142.2912621359224" type="line"/>
      <point x="526.1165048543689" y="1142.2912621359224" type="line"/>
      <point x="683.3592233009709" y="1142.2912621359224"/>
      <point x="844.6019417475728" y="1142.2912621359224"/>
      <point x="1002.0970873786408" y="1142.2912621359224" type="curve"/>
      <point x="1002.0970873786408" y="1374.757281553398" type="line"/>
      <point x="157.70873786407768" y="1374.757281553398" type="line"/>
      <point x="157.70873786407768" y="1212.7378640776699"/>
      <point x="157.70873786407768" y="1034.2135922330099"/>
      <point x="157.70873786407768" y="843.6893203883495" type="curve"/>
      <point x="157.70873786407768" y="618.4077669902912" type="line"/>
      <point x="274.81553398058253" y="609.6504854368933" type="line"/>
      <point x="361.5145631067961" y="665.3592233009708"/>
      <point x="443.495145631068" y="682.3495145631067"/>
      <point x="530.6990291262136" y="682.3495145631067" type="curve"/>
      <point x="686.1359223300971" y="682.3495145631067"/>
      <point x="797.5533980582525" y="614.1359223300971"/>
      <point x="797.5533980582525" y="447.7669902912621" type="curve" smooth="yes"/>
      <point x="797.5533980582525" y="293.378640776699"/>
      <point x="712.3689320388349" y="204.6990291262136"/>
      <point x="525.7281553398058" y="204.6990291262136" type="curve"/>
      <point x="395.9805825242718" y="204.6990291262136"/>
      <point x="243.98058252427185" y="251.96116504854368"/>
      <point x="100.48543689320388" y="328.95145631067965" type="curve"/>
      <point x="79.2233009708738" y="81.4757281553398" type="line"/>
      <point x="192.2135922330097" y="22.737864077669904"/>
      <point x="367.22330097087377" y="-25.009708737864077"/>
    </contour>
  </outline>
</glyph>
<glyph name="six" format="2">
  <advance width="1228.0388349514562"/>
  <unicode hex="0036"/>
  <outline>
    <contour>
      <point x="644.5242718446602" y="-25.009708737864077" type="curve" smooth="yes"/>
      <point x="984.5825242718446" y="-25.009708737864077"/>
      <point x="1142.3300970873788" y="213.49514563106797"/>
      <point x="1142.3300970873788" y="466.73786407766994" type="curve" smooth="yes"/>
      <point x="1142.3300970873788" y="726.7378640776699"/>
      <point x="973.5728155339806" y="895.4563106796118"/>
      <point x="720.8543689320388" y="895.4563106796118" type="curve" smooth="yes"/>
      <point x="581.8834951456311" y="895.4563106796118"/>
      <point x="467.41747572815535" y="845.2233009708738"/>
      <point x="382.71844660194176" y="760.2912621359224" type="curve"/>
      <point x="349.70873786407765" y="762.0388349514564" type="line"/>
      <point x="292.3883495145631" y="670.7572815533981"/>
      <point x="290.13592233009706" y="639.26213592233"/>
      <point x="351.9611650485437" y="555.9611650485436" type="curve"/>
      <point x="449.88349514563106" y="661.3786407766991"/>
      <point x="549.3203883495146" y="688.6019417475728"/>
      <point x="638.504854368932" y="688.6019417475728" type="curve"/>
      <point x="800.6213592233009" y="688.6019417475728"/>
      <point x="873.5728155339806" y="586.9320388349514"/>
      <point x="873.5728155339806" y="455.7669902912621" type="curve" smooth="yes"/>
      <point x="873.5728155339806" y="322.60194174757277"/>
      <point x="798.6213592233009" y="204.6990291262136"/>
      <point x="633.009708737864" y="204.6990291262136" type="curve"/>
      <point x="459.6504854368932" y="204.6990291262136"/>
      <point x="357.45631067961165" y="345.6116504854369"/>
      <point x="357.45631067961165" y="662.5242718446602" type="curve" smooth="yes"/>
      <point x="357.45631067961165" y="1003.9029126213593"/>
      <point x="446.3883495145631" y="1171.8058252427186"/>
      <point x="686.0582524271845" y="1171.8058252427186" type="curve"/>
      <point x="797.5533980582525" y="1171.8058252427186"/>
      <point x="925.8058252427185" y="1137.8058252427184"/>
      <point x="1034.3106796116506" y="1071.0679611650487" type="curve"/>
      <point x="1059.5728155339807" y="1316.0388349514562" type="line"/>
      <point x="947.5533980582525" y="1366.2718446601941"/>
      <point x="815.5533980582525" y="1403.2621359223301"/>
      <point x="668.0388349514564" y="1403.2621359223301" type="curve" smooth="yes"/>
      <point x="321.02912621359224" y="1403.2621359223301"/>
      <point x="93.20388349514563" y="1172.5825242718447"/>
      <point x="93.20388349514563" y="669.0291262135922" type="curve" smooth="yes"/>
      <point x="93.20388349514563" y="213.49514563106794"/>
      <point x="281.96116504854365" y="-25.009708737864077"/>
    </contour>
  </outline>
</glyph>
<glyph name="seven" format="2">
  <advance width="1087.2631578947369"/>
  <unicode hex="0037"/>
  <outline>
    <contour>
      <point x="191.05263157894737" y="0.0" type="curve"/>
      <point x="488.42105263157896" y="0.0" type="line"/>
      <point x="557.8947368421052" y="156.21052631578948"/>
      <point x="626.3157894736842" y="310.2105263157895"/>
      <point x="694.8421052631579" y="464.5263157894737" type="curve"/>
      <point x="812.9473684210526" y="730.2105263157895" type="line"/>
      <point x="883.3684210526316" y="889.2631578947369"/>
      <point x="948.8421052631579" y="1036.421052631579"/>
      <point x="1018.3157894736842" y="1192.6315789473683" type="curve"/>
      <point x="1018.3157894736842" y="1374.3157894736842" type="line"/>
      <point x="50.0" y="1374.3157894736842" type="line"/>
      <point x="50.0" y="1141.6842105263158" type="line"/>
      <point x="208.0" y="1141.6842105263158"/>
      <point x="364.94736842105266" y="1141.6842105263158"/>
      <point x="520.9473684210526" y="1141.6842105263158" type="curve"/>
      <point x="785.2631578947369" y="1141.6842105263158" type="line"/>
      <point x="732.2105263157895" y="1196.421052631579" type="line"/>
      <point x="688.5263157894738" y="1100.0"/>
      <point x="644.8421052631579" y="1003.4736842105264"/>
      <point x="601.1578947368421" y="907.0526315789474" type="curve"/>
      <point x="422.42105263157896" y="512.2105263157895" type="line"/>
      <point x="346.9473684210526" y="344.10526315789474"/>
      <point x="268.5263157894737" y="171.05263157894737"/>
    </contour>
  </outline>
</glyph>
<glyph name="eight" format="2">
  <advance width="1230.5436893203882"/>
  <unicode hex="0038"/>
  <outline>
    <contour>
      <point x="616.2718446601942" y="-25.009708737864077" type="curve" smooth="yes"/>
      <point x="977.5728155339806" y="-25.009708737864077"/>
      <point x="1144.8349514563108" y="150.73786407766988"/>
      <point x="1144.8349514563108" y="386.504854368932" type="curve" smooth="yes"/>
      <point x="1144.8349514563108" y="605.2427184466019"/>
      <point x="994.1165048543689" y="706.7378640776699"/>
      <point x="866.3495145631068" y="734.9902912621359" type="curve"/>
      <point x="866.3495145631068" y="756.504854368932" type="line"/>
      <point x="993.8640776699029" y="788.0"/>
      <point x="1104.3495145631068" y="888.990291262136"/>
      <point x="1104.3495145631068" y="1050.7378640776699" type="curve" smooth="yes"/>
      <point x="1104.3495145631068" y="1262.252427184466"/>
      <point x="920.8349514563107" y="1403.2621359223301"/>
      <point x="616.2718446601942" y="1403.2621359223301" type="curve" smooth="yes"/>
      <point x="309.70873786407765" y="1403.2621359223301"/>
      <point x="126.19417475728154" y="1262.252427184466"/>
      <point x="126.19417475728154" y="1050.7378640776699" type="curve" smooth="yes"/>
      <point x="126.19417475728154" y="888.990291262136"/>
      <point x="236.67961165048544" y="788.0"/>
      <point x="364.19417475728153" y="756.504854368932" type="curve"/>
      <point x="364.19417475728153" y="734.9902912621359" type="line"/>
      <point x="236.6796116504854" y="706.7378640776699"/>
      <point x="85.70873786407768" y="607.2427184466019"/>
      <point x="85.70873786407768" y="386.504854368932" type="curve" smooth="yes"/>
      <point x="85.70873786407768" y="150.73786407766988"/>
      <point x="252.97087378640776" y="-25.009708737864077"/>
    </contour>
    <contour>
      <point x="616.2718446601942" y="204.93203883495147" type="curve"/>
      <point x="432.9126213592233" y="204.93203883495147"/>
      <point x="354.46601941747576" y="294.621359223301"/>
      <point x="354.46601941747576" y="414.0388349514563" type="curve" smooth="yes"/>
      <point x="354.46601941747576" y="551.4368932038834"/>
      <point x="464.873786407767" y="623.1456310679612"/>
      <point x="614.2718446601942" y="623.1456310679612" type="curve"/>
      <point x="765.4174757281554" y="623.1456310679612"/>
      <point x="876.0776699029126" y="551.4368932038834"/>
      <point x="876.0776699029126" y="414.0388349514563" type="curve" smooth="yes"/>
      <point x="876.0776699029126" y="294.621359223301"/>
      <point x="797.6310679611651" y="204.93203883495147"/>
    </contour>
    <contour>
      <point x="616.2718446601942" y="825.2815533980582" type="curve"/>
      <point x="471.88349514563106" y="825.2815533980582"/>
      <point x="390.1941747572816" y="900.73786407767"/>
      <point x="390.1941747572816" y="1008.4271844660194" type="curve" smooth="yes"/>
      <point x="390.1941747572816" y="1120.621359223301"/>
      <point x="479.378640776699" y="1181.3398058252428"/>
      <point x="616.2718446601942" y="1181.3398058252428" type="curve"/>
      <point x="751.4174757281554" y="1181.3398058252428"/>
      <point x="842.6019417475727" y="1120.621359223301"/>
      <point x="842.6019417475727" y="1008.4271844660194" type="curve" smooth="yes"/>
      <point x="842.6019417475727" y="900.73786407767"/>
      <point x="758.9126213592233" y="825.2815533980582"/>
    </contour>
  </outline>
</glyph>
<glyph name="less" format="2">
  <advance width="1151.578947368421"/>
  <unicode hex="003C"/>
  <outline>
    <contour>
      <point x="1043.157894736842" y="118.10526315789474" type="curve"/>
      <point x="1043.157894736842" y="359.89473684210526" type="line"/>
      <point x="917.8947368421052" y="409.7894736842105"/>
      <point x="787.8947368421052" y="461.57894736842104"/>
      <point x="660.7368421052631" y="512.421052631579" type="curve"/>
      <point x="458.7368421052631" y="592.5263157894736" type="line"/>
      <point x="458.7368421052631" y="615.0526315789474" type="line"/>
      <point x="660.7368421052631" y="695.1578947368421" type="line"/>
      <point x="787.8947368421052" y="746.0"/>
      <point x="917.8947368421052" y="797.7894736842105"/>
      <point x="1043.157894736842" y="847.6842105263158" type="curve"/>
      <point x="1043.157894736842" y="1089.4736842105262" type="line"/>
      <point x="910.2105263157895" y="1037.4736842105262"/>
      <point x="782.421052631579" y="986.421052631579"/>
      <point x="671.6842105263158" y="942.421052631579" type="curve"/>
      <point x="478.0" y="865.0526315789474" type="line"/>
      <point x="369.1578947368421" y="822.0"/>
      <point x="241.3684210526316" y="770.9473684210526"/>
      <point x="108.42105263157895" y="718.9473684210526" type="curve"/>
      <point x="108.42105263157895" y="488.63157894736844" type="line"/>
      <point x="241.3684210526316" y="436.63157894736844"/>
      <point x="369.1578947368421" y="385.57894736842104"/>
      <point x="478.0" y="342.5263157894737" type="curve"/>
      <point x="671.6842105263158" y="265.1578947368421" type="line"/>
      <point x="782.421052631579" y="221.1578947368421"/>
      <point x="910.2105263157895" y="170.10526315789474"/>
    </contour>
  </outline>
</glyph>
<glyph name="equal" format="2">
  <advance width="1151.578947368421"/>
  <unicode hex="003D"/>
  <outline>
    <contour>
      <point x="118.94736842105263" y="254.21052631578948" type="line"/>
      <point x="252.8421052631579" y="254.21052631578948"/>
      <point x="379.6842105263158" y="254.21052631578948"/>
      <point x="489.4736842105263" y="254.21052631578948" type="curve"/>
      <point x="662.1052631578947" y="254.21052631578948" type="line"/>
      <point x="771.8947368421053" y="254.21052631578948"/>
      <point x="898.7368421052631" y="254.21052631578948"/>
      <point x="1032.6315789473683" y="254.21052631578948" type="curve"/>
      <point x="1032.6315789473683" y="482.63157894736844" type="line"/>
      <point x="898.7368421052631" y="482.63157894736844"/>
      <point x="771.8947368421053" y="482.63157894736844"/>
      <point x="662.1052631578947" y="482.63157894736844" type="curve"/>
      <point x="489.4736842105263" y="482.63157894736844" type="line"/>
      <point x="379.6842105263158" y="482.63157894736844"/>
      <point x="252.8421052631579" y="482.63157894736844"/>
      <point x="118.94736842105263" y="482.63157894736844" type="curve"/>
    </contour>
    <contour>
      <point x="118.94736842105263" y="726.8421052631579" type="line"/>
      <point x="252.8421052631579" y="726.8421052631579"/>
      <point x="379.6842105263158" y="726.8421052631579"/>
      <point x="489.4736842105263" y="726.8421052631579" type="curve"/>
      <point x="662.1052631578947" y="726.8421052631579" type="line"/>
      <point x="771.8947368421053" y="726.8421052631579"/>
      <point x="898.7368421052631" y="726.8421052631579"/>
      <point x="1032.6315789473683" y="726.8421052631579" type="curve"/>
      <point x="1032.6315789473683" y="955.2631578947369" type="line"/>
      <point x="898.7368421052631" y="955.2631578947369"/>
      <point x="771.8947368421053" y="955.2631578947369"/>
      <point x="662.1052631578947" y="955.2631578947369" type="curve"/>
      <point x="489.4736842105263" y="955.2631578947369" type="line"/>
      <point x="379.6842105263158" y="955.2631578947369"/>
      <point x="252.8421052631579" y="955.2631578947369"/>
      <point x="118.94736842105263" y="955.2631578947369" type="curve"/>
    </contour>
  </outline>
</glyph>
<glyph name="greater" format="2">
  <advance width="1151.578947368421"/>
  <unicode hex="003E"/>
  <outline>
    <contour>
      <point x="108.42105263157895" y="118.10526315789474" type="line"/>
      <point x="241.3684210526316" y="170.10526315789474"/>
      <point x="369.1578947368421" y="221.1578947368421"/>
      <point x="479.89473684210526" y="265.1578947368421" type="curve"/>
      <point x="673.578947368421" y="342.5263157894737" type="line"/>
      <point x="782.421052631579" y="385.57894736842104"/>
      <point x="910.2105263157895" y="436.63157894736844"/>
      <point x="1043.157894736842" y="488.63157894736844" type="curve"/>
      <point x="1043.157894736842" y="718.9473684210526" type="line"/>
      <point x="910.2105263157895" y="770.9473684210526"/>
      <point x="782.421052631579" y="822.0"/>
      <point x="673.578947368421" y="865.0526315789474" type="curve"/>
      <point x="479.89473684210526" y="942.421052631579" type="line"/>
      <point x="369.1578947368421" y="986.421052631579"/>
      <point x="241.3684210526316" y="1037.4736842105262"/>
      <point x="108.42105263157895" y="1089.4736842105262" type="curve"/>
      <point x="108.42105263157895" y="847.6842105263158" type="line"/>
      <point x="233.68421052631578" y="797.7894736842105"/>
      <point x="363.6842105263158" y="746.0"/>
      <point x="490.8421052631579" y="695.1578947368421" type="curve"/>
      <point x="692.8421052631579" y="615.0526315789474" type="line"/>
      <point x="692.8421052631579" y="592.5263157894736" type="line"/>
      <point x="490.8421052631579" y="512.421052631579" type="line"/>
      <point x="363.6842105263158" y="461.57894736842104"/>
      <point x="233.68421052631578" y="409.7894736842105"/>
      <point x="108.42105263157895" y="359.89473684210526" type="curve"/>
    </contour>
  </outline>
</glyph>
<glyph name="at" format="2">
  <advance width="1778.421052631579"/>
  <unicode hex="0040"/>
  <outline>
    <contour>
      <point x="950.5263157894736" y="-280.8421052631579" type="curve" smooth="yes"/>
      <point x="1150.1052631578948" y="-280.8421052631579"/>
      <point x="1351.2631578947369" y="-235.89473684210526"/>
      <point x="1516.6315789473683" y="-132.10526315789474" type="curve"/>
      <point x="1516.6315789473683" y="46.10526315789473" type="line"/>
      <point x="1302.842105263158" y="-92.10526315789474"/>
      <point x="1104.1052631578948" y="-125.15789473684211"/>
      <point x="950.5263157894736" y="-125.15789473684211" type="curve"/>
      <point x="415.4736842105263" y="-125.15789473684211"/>
      <point x="173.1578947368421" y="238.0"/>
      <point x="267.36842105263156" y="671.2631578947369" type="curve" smooth="yes"/>
      <point x="342.7368421052632" y="1019.8947368421053"/>
      <point x="583.0526315789474" y="1224.3157894736842"/>
      <point x="940.5263157894736" y="1224.3157894736842" type="curve"/>
      <point x="1353.6842105263158" y="1224.3157894736842"/>
      <point x="1593.8947368421052" y="937.578947368421"/>
      <point x="1514.0" y="537.0526315789474" type="curve" smooth="yes"/>
      <point x="1483.2631578947369" y="382.3157894736842"/>
      <point x="1395.6842105263158" y="287.0526315789474"/>
      <point x="1296.2105263157894" y="287.0526315789474" type="curve"/>
      <point x="1219.8947368421052" y="287.0526315789474"/>
      <point x="1173.0526315789473" y="340.63157894736844"/>
      <point x="1200.1052631578948" y="471.57894736842104" type="curve"/>
      <point x="1233.578947368421" y="632.0" type="line"/>
      <point x="1257.4736842105262" y="744.421052631579"/>
      <point x="1283.4736842105262" y="865.1578947368421"/>
      <point x="1305.3684210526317" y="968.6315789473684" type="curve"/>
      <point x="1116.9473684210527" y="957.3684210526316" type="line"/>
      <point x="1088.6315789473683" y="856.421052631579" type="line"/>
      <point x="1070.2105263157896" y="856.421052631579" type="line"/>
      <point x="1022.9473684210526" y="931.0526315789474"/>
      <point x="940.6315789473684" y="979.578947368421"/>
      <point x="836.5263157894736" y="979.578947368421" type="curve" smooth="yes"/>
      <point x="650.6315789473684" y="979.578947368421"/>
      <point x="516.3157894736842" y="823.6842105263158"/>
      <point x="473.57894736842104" y="614.7368421052631" type="curve" smooth="yes"/>
      <point x="422.5263157894737" y="365.05263157894734"/>
      <point x="527.1578947368421" y="139.68421052631578"/>
      <point x="754.421052631579" y="139.68421052631578" type="curve" smooth="yes"/>
      <point x="838.2105263157895" y="139.68421052631578"/>
      <point x="937.3684210526316" y="177.3684210526316"/>
      <point x="999.8947368421053" y="273.7894736842105" type="curve"/>
      <point x="1017.2631578947369" y="273.7894736842105" type="line"/>
      <point x="1049.2631578947369" y="193.26315789473685"/>
      <point x="1141.2631578947369" y="121.78947368421052"/>
      <point x="1299.6842105263158" y="121.78947368421052" type="curve" smooth="yes"/>
      <point x="1429.7894736842106" y="121.78947368421052"/>
      <point x="1624.9473684210527" y="222.42105263157896"/>
      <point x="1679.2631578947369" y="504.0" type="curve" smooth="yes"/>
      <point x="1772.5263157894738" y="986.421052631579"/>
      <point x="1454.3157894736842" y="1380.0"/>
      <point x="943.578947368421" y="1380.0" type="curve" smooth="yes"/>
      <point x="555.1578947368421" y="1380.0"/>
      <point x="201.68421052631578" y="1171.6842105263158"/>
      <point x="104.31578947368422" y="705.578947368421" type="curve" smooth="yes"/>
      <point x="-4.421052631578945" y="188.73684210526315"/>
      <point x="307.89473684210526" y="-280.8421052631579"/>
    </contour>
    <contour>
      <point x="816.1052631578947" y="327.05263157894734" type="curve"/>
      <point x="696.1052631578947" y="327.05263157894734"/>
      <point x="651.6842105263158" y="445.4736842105263"/>
      <point x="679.7894736842105" y="578.2105263157895" type="curve" smooth="yes"/>
      <point x="705.1578947368421" y="698.3157894736842"/>
      <point x="775.3684210526316" y="788.1052631578948"/>
      <point x="887.8947368421053" y="788.1052631578948" type="curve"/>
      <point x="955.2631578947369" y="788.1052631578948"/>
      <point x="1004.6315789473684" y="757.1578947368421"/>
      <point x="1040.1052631578948" y="713.7894736842105" type="curve"/>
      <point x="981.2631578947369" y="435.36842105263156" type="line"/>
      <point x="939.8947368421053" y="362.10526315789474"/>
      <point x="878.1052631578947" y="327.05263157894734"/>
    </contour>
  </outline>
</glyph>
<glyph name="A" format="2">
  <advance width="1421.2631578947369"/>
  <unicode hex="0041"/>
  <anchor x="711.1578947368421" y="0.0" name="bottom"/>
  <anchor x="1376.6315789473683" y="0.0" name="ogonek"/>
  <anchor x="711.1578947368421" y="1426.0" name="top"/>
  <outline>
    <contour>
      <point x="46.73684210526316" y="0.0" type="curve"/>
      <point x="336.8421052631579" y="0.0" type="line"/>
      <point x="384.7368421052631" y="154.73684210526315"/>
      <point x="437.57894736842104" y="326.63157894736844"/>
      <point x="484.52631578947364" y="479.4736842105263" type="curve"/>
      <point x="699.6842105263158" y="1178.2105263157896" type="line"/>
      <point x="722.2105263157895" y="1178.2105263157896" type="line"/>
      <point x="935.3684210526316" y="472.42105263157896" type="line"/>
      <point x="979.3684210526316" y="326.5263157894737"/>
      <point x="1031.157894736842" y="155.89473684210526"/>
      <point x="1078.1052631578948" y="0.0" type="curve"/>
      <point x="1376.6315789473683" y="0.0" type="line"/>
      <point x="1326.0" y="152.0"/>
      <point x="1268.421052631579" y="324.0"/>
      <point x="1215.7894736842104" y="482.0" type="curve"/>
      <point x="1052.0" y="972.9473684210526" type="line"/>
      <point x="993.4736842105262" y="1146.842105263158"/>
      <point x="949.7894736842105" y="1277.7894736842106"/>
      <point x="900.1052631578948" y="1426.0" type="curve"/>
      <point x="527.0526315789474" y="1426.0" type="line"/>
      <point x="478.42105263157896" y="1282.0"/>
      <point x="433.7894736842105" y="1150.0"/>
      <point x="374.2105263157895" y="972.9473684210526" type="curve"/>
      <point x="209.4736842105263" y="482.94736842105266" type="line"/>
      <point x="157.89473684210526" y="330.0"/>
      <point x="98.31578947368422" y="152.94736842105263"/>
    </contour>
    <contour>
      <point x="368.7368421052631" y="314.42105263157896" type="line"/>
      <point x="1082.9473684210527" y="314.42105263157896" type="line"/>
      <point x="1058.7368421052631" y="532.3157894736842" type="line"/>
      <point x="398.2105263157895" y="532.3157894736842" type="line"/>
    </contour>
  </outline>
</glyph>
<glyph name="B" format="2">
  <advance width="1315.6893203883496"/>
  <unicode hex="0042"/>
  <outline>
    <contour>
      <point x="637.3980582524272" y="0.0" type="curve"/>
      <point x="1113.9805825242718" y="0.0"/>
      <point x="1245.4757281553398" y="162.73786407766988"/>
      <point x="1245.4757281553398" y="397.5145631067961" type="curve" smooth="yes"/>
      <point x="1245.4757281553398" y="611.495145631068"/>
      <point x="1119.2621359223301" y="704.252427184466"/>
      <point x="954.4660194174756" y="739.7669902912621" type="curve"/>
      <point x="954.4660194174756" y="763.0291262135922" type="line"/>
      <point x="1101.4757281553398" y="802.0194174757281"/>
      <point x="1212.2330097087379" y="913.5145631067961"/>
      <point x="1212.2330097087379" y="1095.7669902912621" type="curve" smooth="yes"/>
      <point x="1212.2330097087379" y="1295.495145631068"/>
      <point x="1088.504854368932" y="1426.0"/>
      <point x="714.6407766990292" y="1426.0" type="curve"/>
      <point x="513.6116504854368" y="1426.0"/>
      <point x="310.3106796116505" y="1426.0"/>
      <point x="152.29126213592232" y="1426.0" type="curve"/>
      <point x="152.29126213592232" y="1268.504854368932"/>
      <point x="152.29126213592232" y="1131.009708737864"/>
      <point x="152.29126213592232" y="949.747572815534" type="curve"/>
      <point x="152.29126213592232" y="466.7378640776699" type="line"/>
      <point x="152.29126213592232" y="288.2330097087379"/>
      <point x="152.29126213592232" y="154.9902912621359"/>
      <point x="152.29126213592232" y="0.0" type="curve"/>
      <point x="257.84466019417476" y="0.0"/>
      <point x="426.36893203883494" y="0.0"/>
    </contour>
    <contour>
      <point x="435.0679611650486" y="225.65048543689318" type="line"/>
      <point x="435.0679611650486" y="319.3592233009709"/>
      <point x="435.0679611650486" y="409.5728155339806"/>
      <point x="435.0679611650486" y="529.0485436893204" type="curve"/>
      <point x="435.0679611650486" y="884.1941747572815" type="line"/>
      <point x="435.0679611650486" y="1008.1747572815534"/>
      <point x="435.0679611650486" y="1103.1456310679612"/>
      <point x="435.0679611650486" y="1201.3592233009708" type="curve"/>
      <point x="692.3689320388349" y="1201.3592233009708" type="line" smooth="yes"/>
      <point x="841.009708737864" y="1201.3592233009708"/>
      <point x="914.4466019417475" y="1140.873786407767"/>
      <point x="914.4466019417475" y="1021.6893203883494" type="curve" smooth="yes"/>
      <point x="914.4466019417475" y="910.2330097087379"/>
      <point x="838.9902912621359" y="825.5533980582525"/>
      <point x="671.631067961165" y="825.5533980582525" type="curve" smooth="yes"/>
      <point x="367.747572815534" y="825.5533980582525" type="line"/>
      <point x="367.747572815534" y="611.4368932038834" type="line"/>
      <point x="682.1553398058253" y="611.4368932038834" type="line" smooth="yes"/>
      <point x="852.2718446601941" y="611.4368932038834"/>
      <point x="947.1844660194175" y="553.2038834951455"/>
      <point x="947.1844660194175" y="422.03883495145635" type="curve" smooth="yes"/>
      <point x="947.1844660194175" y="296.3495145631068"/>
      <point x="862.9902912621359" y="225.65048543689318"/>
      <point x="662.6796116504855" y="225.65048543689318" type="curve" smooth="yes"/>
    </contour>
  </outline>
</glyph>
<glyph name="C" format="2">
  <advance width="1367.7894736842106"/>
  <unicode hex="0043"/>
  <anchor x="793.578947368421" y="0.0" name="bottom"/>
  <anchor x="784.1052631578947" y="1426.0" name="top"/>
  <outline>
    <contour>
      <point x="828.7368421052631" y="-25.36842105263158" type="curve" smooth="yes"/>
      <point x="987.2631578947369" y="-25.36842105263158"/>
      <point x="1153.7894736842106" y="4.421052631578949"/>
      <point x="1267.8947368421052" y="70.84210526315789" type="curve"/>
      <point x="1250.6315789473683" y="337.6842105263158" type="line"/>
      <point x="1125.3684210526317" y="245.26315789473682"/>
      <point x="991.8947368421053" y="214.3157894736842"/>
      <point x="864.7368421052631" y="214.3157894736842" type="curve"/>
      <point x="542.7368421052631" y="214.3157894736842"/>
      <point x="382.8421052631579" y="441.7894736842105"/>
      <point x="382.8421052631579" y="712.8421052631579" type="curve" smooth="yes"/>
      <point x="382.8421052631579" y="1026.3157894736842"/>
      <point x="572.5263157894736" y="1207.157894736842"/>
      <point x="833.4736842105264" y="1207.157894736842" type="curve"/>
      <point x="957.4736842105264" y="1207.157894736842"/>
      <point x="1098.1052631578948" y="1169.0526315789473"/>
      <point x="1253.157894736842" y="1073.6842105263158" type="curve"/>
      <point x="1275.7894736842106" y="1343.6842105263158" type="line"/>
      <point x="1168.0" y="1399.8947368421052"/>
      <point x="987.4736842105264" y="1454.2105263157894"/>
      <point x="802.8421052631579" y="1454.2105263157894" type="curve" smooth="yes"/>
      <point x="357.1578947368421" y="1454.2105263157894"/>
      <point x="82.10526315789474" y="1142.5263157894738"/>
      <point x="82.10526315789474" y="712.7368421052631" type="curve" smooth="yes"/>
      <point x="82.10526315789474" y="276.5263157894737"/>
      <point x="367.89473684210526" y="-25.36842105263158"/>
    </contour>
  </outline>
</glyph>
<glyph name="D" format="2">
  <advance width="1468.5263157894738"/>
  <unicode hex="0044"/>
  <anchor x="705.2631578947369" y="0.0" name="bottom"/>
  <anchor x="734.7368421052631" y="714.0" name="center"/>
  <anchor x="705.2631578947369" y="1426.0" name="top"/>
  <outline>
    <contour>
      <point x="152.63157894736844" y="0.0" type="curve"/>
      <point x="305.6842105263158" y="0.0"/>
      <point x="447.6842105263158" y="0.0"/>
      <point x="634.2105263157895" y="0.0" type="curve"/>
      <point x="1187.4736842105262" y="0.0"/>
      <point x="1386.421052631579" y="314.8421052631579"/>
      <point x="1386.421052631579" y="717.8947368421053" type="curve" smooth="yes"/>
      <point x="1386.421052631579" y="1167.3684210526317"/>
      <point x="1137.2631578947369" y="1426.0"/>
      <point x="701.6842105263158" y="1426.0" type="curve"/>
      <point x="509.2631578947368" y="1426.0"/>
      <point x="323.7894736842105" y="1426.0"/>
      <point x="152.63157894736844" y="1426.0" type="curve"/>
      <point x="152.63157894736844" y="1268.2105263157894"/>
      <point x="152.63157894736844" y="1131.3684210526317"/>
      <point x="152.63157894736844" y="948.9473684210526" type="curve"/>
      <point x="152.63157894736844" y="466.5263157894737" type="line"/>
      <point x="152.63157894736844" y="288.3157894736842"/>
      <point x="152.63157894736844" y="154.6315789473684"/>
    </contour>
    <contour>
      <point x="441.89473684210526" y="232.52631578947367" type="line"/>
      <point x="441.89473684210526" y="325.36842105263156"/>
      <point x="441.89473684210526" y="416.63157894736844"/>
      <point x="441.89473684210526" y="533.8947368421052" type="curve"/>
      <point x="441.89473684210526" y="883.6842105263158" type="line"/>
      <point x="441.89473684210526" y="1005.1578947368421"/>
      <point x="441.89473684210526" y="1097.4736842105262"/>
      <point x="441.89473684210526" y="1193.4736842105262" type="curve"/>
      <point x="651.6842105263158" y="1193.4736842105262" type="line"/>
      <point x="953.8947368421052" y="1193.4736842105262"/>
      <point x="1085.6842105263158" y="1005.6842105263158"/>
      <point x="1085.6842105263158" y="722.0" type="curve" smooth="yes"/>
      <point x="1085.6842105263158" y="441.7894736842105"/>
      <point x="968.421052631579" y="232.52631578947367"/>
      <point x="634.1052631578947" y="232.52631578947367" type="curve"/>
    </contour>
  </outline>
</glyph>
<glyph name="E" format="2">
  <advance width="1190.388349514563"/>
  <unicode hex="0045"/>
  <anchor x="620.8543689320388" y="0.0" name="bottom"/>
  <anchor x="1087.6699029126214" y="0.0" name="ogonek"/>
  <anchor x="620.8543689320388" y="1426.0" name="top"/>
  <anchor x="68.62135922330097" y="1426.0" name="topleft"/>
  <outline>
    <contour>
      <point x="152.29126213592232" y="0.0" type="curve"/>
      <point x="434.81553398058253" y="0.0" type="line"/>
      <point x="434.81553398058253" y="45.04854368932039" type="line"/>
      <point x="434.81553398058253" y="200.03883495145632"/>
      <point x="434.81553398058253" y="335.02912621359224"/>
      <point x="434.81553398058253" y="511.7864077669903" type="curve"/>
      <point x="434.81553398058253" y="904.6990291262136" type="line"/>
      <point x="434.81553398058253" y="1085.9611650485438"/>
      <point x="434.81553398058253" y="1223.4563106796118"/>
      <point x="434.81553398058253" y="1380.9514563106795" type="curve"/>
      <point x="434.81553398058253" y="1426.0" type="line"/>
      <point x="152.29126213592232" y="1426.0" type="line"/>
      <point x="152.29126213592232" y="1268.504854368932"/>
      <point x="152.29126213592232" y="1131.009708737864"/>
      <point x="152.29126213592232" y="949.747572815534" type="curve"/>
      <point x="152.29126213592232" y="466.7378640776699" type="line"/>
      <point x="152.29126213592232" y="288.2330097087379"/>
      <point x="152.29126213592232" y="154.9902912621359"/>
    </contour>
    <contour>
      <point x="402.0388349514563" y="0.0" type="line"/>
      <point x="1089.4174757281555" y="0.0" type="line"/>
      <point x="1089.4174757281555" y="239.20388349514565" type="line"/>
      <point x="953.9417475728155" y="239.20388349514565"/>
      <point x="810.4660194174756" y="239.20388349514565"/>
      <point x="647.495145631068" y="239.20388349514565" type="curve"/>
      <point x="402.0388349514563" y="239.20388349514565" type="line"/>
    </contour>
    <contour>
      <point x="369.747572815534" y="606.6601941747572" type="line"/>
      <point x="634.7184466019418" y="606.6601941747572" type="line"/>
      <point x="806.6990291262135" y="606.6601941747572"/>
      <point x="923.4368932038835" y="606.6601941747572"/>
      <point x="1048.1747572815534" y="606.6601941747572" type="curve"/>
      <point x="1048.1747572815534" y="833.5728155339806" type="line"/>
      <point x="929.4368932038835" y="833.5728155339806"/>
      <point x="812.6990291262135" y="833.5728155339806"/>
      <point x="634.7184466019418" y="833.5728155339806" type="curve"/>
      <point x="369.747572815534" y="833.5728155339806" type="line"/>
    </contour>
    <contour>
      <point x="384.0194174757282" y="1186.7961165048544" type="line"/>
      <point x="625.9805825242719" y="1186.7961165048544" type="line"/>
      <point x="820.6990291262136" y="1186.7961165048544"/>
      <point x="956.4271844660194" y="1186.7961165048544"/>
      <point x="1082.4077669902913" y="1186.7961165048544" type="curve"/>
      <point x="1082.4077669902913" y="1426.0" type="line"/>
      <point x="384.0194174757282" y="1426.0" type="line"/>
    </contour>
  </outline>
</glyph>
<glyph name="F" format="2">
  <advance width="1152.5263157894738"/>
  <unicode hex="0046"/>
  <outline>
    <contour>
      <point x="152.63157894736844" y="0.0" type="curve"/>
      <point x="435.57894736842104" y="0.0" type="line"/>
      <point x="435.57894736842104" y="154.6315789473684"/>
      <point x="435.57894736842104" y="288.3157894736842"/>
      <point x="435.57894736842104" y="466.5263157894737" type="curve"/>
      <point x="435.57894736842104" y="904.0" type="line"/>
      <point x="435.57894736842104" y="1086.421052631579"/>
      <point x="435.57894736842104" y="1223.2631578947369"/>
      <point x="435.57894736842104" y="1381.0526315789473" type="curve"/>
      <point x="435.57894736842104" y="1426.0" type="line"/>
      <point x="152.63157894736844" y="1426.0" type="line"/>
      <point x="152.63157894736844" y="1268.2105263157894"/>
      <point x="152.63157894736844" y="1131.3684210526317"/>
      <point x="152.63157894736844" y="948.9473684210526" type="curve"/>
      <point x="152.63157894736844" y="466.5263157894737" type="line"/>
      <point x="152.63157894736844" y="288.3157894736842"/>
      <point x="152.63157894736844" y="154.6315789473684"/>
    </contour>
    <contour>
      <point x="363.57894736842104" y="586.6315789473684" type="line"/>
      <point x="618.9473684210526" y="586.6315789473684" type="line"/>
      <point x="791.1578947368421" y="586.6315789473684"/>
      <point x="907.6842105263158" y="586.6315789473684"/>
      <point x="1034.1052631578948" y="586.6315789473684" type="curve"/>
      <point x="1034.1052631578948" y="819.1578947368421" type="line"/>
      <point x="914.6315789473684" y="819.1578947368421"/>
      <point x="797.1578947368421" y="819.1578947368421"/>
      <point x="619.8947368421052" y="819.1578947368421" type="curve"/>
      <point x="363.57894736842104" y="819.1578947368421" type="line"/>
    </contour>
    <contour>
      <point x="380.42105263157896" y="1184.0" type="line"/>
      <point x="612.421052631579" y="1184.0" type="line"/>
      <point x="807.1578947368421" y="1184.0"/>
      <point x="942.3157894736842" y="1184.0"/>
      <point x="1068.5263157894738" y="1184.0" type="curve"/>
      <point x="1068.5263157894738" y="1426.0" type="line"/>
      <point x="380.42105263157896" y="1426.0" type="line"/>
    </contour>
  </outline>
</glyph>
<glyph name="G" format="2">
  <advance width="1460.421052631579"/>
  <unicode hex="0047"/>
  <anchor x="793.578947368421" y="0.0" name="bottom"/>
  <anchor x="793.578947368421" y="1426.0" name="top"/>
  <outline>
    <contour>
      <point x="848.8421052631579" y="-24.315789473684212" type="curve" smooth="yes"/>
      <point x="1046.7368421052631" y="-24.315789473684212"/>
      <point x="1247.2631578947369" y="15.263157894736842"/>
      <point x="1338.1052631578948" y="54.0" type="curve"/>
      <point x="1303.7894736842106" y="313.2631578947368" type="line"/>
      <point x="1168.5263157894738" y="239.1578947368421"/>
      <point x="1033.157894736842" y="209.05263157894737"/>
      <point x="873.0526315789474" y="209.05263157894737" type="curve"/>
      <point x="535.0526315789474" y="209.05263157894737"/>
      <point x="380.7368421052631" y="434.7368421052631"/>
      <point x="380.7368421052631" y="712.7368421052631" type="curve" smooth="yes"/>
      <point x="380.7368421052631" y="1030.3157894736842"/>
      <point x="577.8947368421052" y="1207.157894736842"/>
      <point x="843.3684210526316" y="1207.157894736842" type="curve"/>
      <point x="972.3157894736842" y="1207.157894736842"/>
      <point x="1125.3684210526317" y="1168.0"/>
      <point x="1292.6315789473683" y="1073.6842105263158" type="curve"/>
      <point x="1315.2631578947369" y="1342.6315789473683" type="line"/>
      <point x="1205.4736842105262" y="1396.7368421052631"/>
      <point x="1021.2631578947369" y="1454.2105263157894"/>
      <point x="821.2631578947369" y="1454.2105263157894" type="curve" smooth="yes"/>
      <point x="361.89473684210526" y="1454.2105263157894"/>
      <point x="82.10526315789474" y="1148.2105263157894"/>
      <point x="82.10526315789474" y="713.7894736842105" type="curve" smooth="yes"/>
      <point x="82.10526315789474" y="287.0526315789474"/>
      <point x="357.1578947368421" y="-24.315789473684212"/>
    </contour>
    <contour>
      <point x="1066.7368421052631" y="48.73684210526316" type="curve"/>
      <point x="1338.1052631578948" y="54.0" type="line"/>
      <point x="1338.1052631578948" y="195.26315789473685"/>
      <point x="1338.1052631578948" y="296.8421052631579"/>
      <point x="1338.1052631578948" y="407.36842105263156" type="curve"/>
      <point x="1338.1052631578948" y="536.8421052631579"/>
      <point x="1338.1052631578948" y="628.2105263157895"/>
      <point x="1338.1052631578948" y="731.6842105263158" type="curve"/>
      <point x="1066.7368421052631" y="731.6842105263158" type="line"/>
      <point x="1066.7368421052631" y="628.2105263157895"/>
      <point x="1066.7368421052631" y="536.8421052631579"/>
      <point x="1066.7368421052631" y="407.36842105263156" type="curve"/>
      <point x="1066.7368421052631" y="296.8421052631579"/>
      <point x="1066.7368421052631" y="195.26315789473685"/>
    </contour>
  </outline>
</glyph>
<glyph name="I" format="2">
  <advance width="610.3157894736842"/>
  <unicode hex="0049"/>
  <anchor x="300.42105263157896" y="0.0" name="bottom"/>
  <anchor x="452.42105263157896" y="0.0" name="ogonek"/>
  <anchor x="300.42105263157896" y="1426.0" name="top"/>
  <anchor x="62.421052631578945" y="1426.0" name="topleft"/>
  <outline>
    <contour>
      <point x="157.89473684210526" y="0.0" type="curve"/>
      <point x="452.42105263157896" y="0.0" type="line"/>
      <point x="452.42105263157896" y="154.6315789473684"/>
      <point x="452.42105263157896" y="288.3157894736842"/>
      <point x="452.42105263157896" y="466.5263157894737" type="curve"/>
      <point x="452.42105263157896" y="948.9473684210526" type="line"/>
      <point x="452.42105263157896" y="1131.3684210526317"/>
      <point x="452.42105263157896" y="1268.2105263157894"/>
      <point x="452.42105263157896" y="1426.0" type="curve"/>
      <point x="157.89473684210526" y="1426.0" type="line"/>
      <point x="157.89473684210526" y="1268.2105263157894"/>
      <point x="157.89473684210526" y="1131.3684210526317"/>
      <point x="157.89473684210526" y="948.9473684210526" type="curve"/>
      <point x="157.89473684210526" y="466.5263157894737" type="line"/>
      <point x="157.89473684210526" y="288.3157894736842"/>
      <point x="157.89473684210526" y="154.6315789473684"/>
    </contour>
  </outline>
</glyph>
<glyph name="J" format="2">
  <advance width="623.2631578947369"/>
  <unicode hex="004A"/>
  <anchor x="316.63157894736844" y="0.0" name="bottom"/>
  <anchor x="316.63157894736844" y="1426.0" name="top"/>
  <outline>
    <contour>
      <point x="12.10526315789474" y="-311.57894736842104" type="curve"/>
      <point x="287.4736842105263" y="-311.57894736842104" type="line"/>
      <point x="385.89473684210526" y="-219.47368421052633"/>
      <point x="465.36842105263156" y="-88.0"/>
      <point x="465.36842105263156" y="132.42105263157896" type="curve" smooth="yes"/>
      <point x="465.36842105263156" y="292.5263157894737"/>
      <point x="465.36842105263156" y="462.9473684210526"/>
      <point x="465.36842105263156" y="641.1578947368421" type="curve"/>
      <point x="465.36842105263156" y="948.9473684210526" type="line"/>
      <point x="465.36842105263156" y="1131.3684210526317"/>
      <point x="465.36842105263156" y="1268.2105263157894"/>
      <point x="465.36842105263156" y="1426.0" type="curve"/>
      <point x="176.10526315789474" y="1426.0" type="line"/>
      <point x="176.10526315789474" y="1268.2105263157894"/>
      <point x="176.10526315789474" y="1131.3684210526317"/>
      <point x="176.10526315789474" y="948.9473684210526" type="curve"/>
      <point x="176.10526315789474" y="611.7894736842105" type="line"/>
      <point x="176.10526315789474" y="151.68421052631578" type="line"/>
      <point x="175.1578947368421" y="-38.21052631578948"/>
      <point x="120.31578947368422" y="-174.8421052631579"/>
    </contour>
  </outline>
</glyph>
<glyph name="K" format="2">
  <advance width="1382.2105263157894"/>
  <unicode hex="004B"/>
  <anchor x="705.0526315789474" y="0.0" name="bottom"/>
  <anchor x="705.0526315789474" y="1426.0" name="top"/>
  <outline>
    <contour>
      <point x="986.0" y="0.0" type="curve"/>
      <point x="1337.7894736842104" y="0.0" type="line"/>
      <point x="1237.2631578947369" y="127.47368421052632"/>
      <point x="1072.3157894736842" y="337.6842105263158"/>
      <point x="950.0" y="493.4736842105263" type="curve"/>
      <point x="683.4736842105262" y="834.3157894736842" type="line"/>
      <point x="688.7368421052631" y="707.3684210526316" type="line"/>
      <point x="927.6842105263158" y="984.7368421052631" type="line"/>
      <point x="1054.1052631578948" y="1130.9473684210527"/>
      <point x="1178.3157894736842" y="1275.0526315789473"/>
      <point x="1310.421052631579" y="1426.0" type="curve"/>
      <point x="974.421052631579" y="1426.0" type="line"/>
      <point x="857.4736842105264" y="1284.9473684210527"/>
      <point x="776.6315789473684" y="1188.6315789473683"/>
      <point x="687.0526315789474" y="1081.4736842105262" type="curve"/>
      <point x="497.2631578947368" y="854.421052631579" type="line"/>
      <point x="416.42105263157896" y="854.421052631579" type="line"/>
      <point x="416.42105263157896" y="626.1052631578948" type="line"/>
      <point x="500.52631578947364" y="626.1052631578948" type="line"/>
      <point x="715.0526315789474" y="349.89473684210526" type="line"/>
      <point x="799.578947368421" y="240.42105263157896"/>
      <point x="885.0526315789474" y="130.10526315789474"/>
    </contour>
    <contour>
      <point x="152.63157894736844" y="0.0" type="curve"/>
      <point x="440.8421052631579" y="0.0" type="line"/>
      <point x="440.8421052631579" y="154.6315789473684"/>
      <point x="440.8421052631579" y="288.3157894736842"/>
      <point x="440.8421052631579" y="466.5263157894737" type="curve"/>
      <point x="440.8421052631579" y="948.9473684210526" type="line"/>
      <point x="440.8421052631579" y="1131.3684210526317"/>
      <point x="440.8421052631579" y="1268.2105263157894"/>
      <point x="440.8421052631579" y="1426.0" type="curve"/>
      <point x="152.63157894736844" y="1426.0" type="line"/>
      <point x="152.63157894736844" y="1268.2105263157894"/>
      <point x="152.63157894736844" y="1131.3684210526317"/>
      <point x="152.63157894736844" y="948.9473684210526" type="curve"/>
      <point x="152.63157894736844" y="466.5263157894737" type="line"/>
      <point x="152.63157894736844" y="288.3157894736842"/>
      <point x="152.63157894736844" y="154.6315789473684"/>
    </contour>
  </outline>
</glyph>
<glyph name="L" format="2">
  <advance width="1121.4736842105262"/>
  <unicode hex="004C"/>
  <anchor x="615.8947368421053" y="0.0" name="bottom"/>
  <anchor x="869.2631578947369" y="717.1578947368421" name="center"/>
  <anchor x="442.9473684210526" y="1426.0" name="top"/>
  <anchor x="597.0526315789474" y="996.421052631579" name="topright"/>
  <outline>
    <contour>
      <point x="152.63157894736844" y="0.0" type="curve"/>
      <point x="441.89473684210526" y="0.0" type="line"/>
      <point x="441.89473684210526" y="45.89473684210526" type="line"/>
      <point x="441.89473684210526" y="200.52631578947367"/>
      <point x="441.89473684210526" y="334.2105263157895"/>
      <point x="441.89473684210526" y="512.421052631579" type="curve"/>
      <point x="441.89473684210526" y="948.9473684210526" type="line"/>
      <point x="441.89473684210526" y="1131.3684210526317"/>
      <point x="441.89473684210526" y="1268.2105263157894"/>
      <point x="441.89473684210526" y="1426.0" type="curve"/>
      <point x="152.63157894736844" y="1426.0" type="line"/>
      <point x="152.63157894736844" y="1268.2105263157894"/>
      <point x="152.63157894736844" y="1131.3684210526317"/>
      <point x="152.63157894736844" y="948.9473684210526" type="curve"/>
      <point x="152.63157894736844" y="466.5263157894737" type="line"/>
      <point x="152.63157894736844" y="288.3157894736842"/>
      <point x="152.63157894736844" y="154.6315789473684"/>
    </contour>
    <contour>
      <point x="402.52631578947364" y="0.0" type="line"/>
      <point x="1079.157894736842" y="0.0" type="line"/>
      <point x="1079.157894736842" y="252.52631578947367" type="line"/>
      <point x="934.3157894736842" y="252.52631578947367"/>
      <point x="811.2631578947369" y="252.52631578947367"/>
      <point x="598.9473684210526" y="252.52631578947367" type="curve"/>
      <point x="402.52631578947364" y="252.52631578947367" type="line"/>
    </contour>
  </outline>
</glyph>
<glyph name="M" format="2">
  <advance width="1923.8947368421052"/>
  <unicode hex="004D"/>
  <anchor x="962.421052631579" y="0.0" name="bottom"/>
  <anchor x="962.421052631579" y="1426.0" name="top"/>
  <outline>
    <contour>
      <point x="109.47368421052632" y="0.0" type="curve"/>
      <point x="379.57894736842104" y="0.0" type="line"/>
      <point x="405.0526315789474" y="214.0"/>
      <point x="428.63157894736844" y="408.3157894736842"/>
      <point x="449.2631578947368" y="576.2105263157895" type="curve"/>
      <point x="493.4736842105263" y="938.5263157894738" type="line"/>
      <point x="513.1578947368421" y="938.5263157894738" type="line"/>
      <point x="664.421052631579" y="546.9473684210526" type="line"/>
      <point x="734.7368421052631" y="363.2631578947369"/>
      <point x="814.6315789473684" y="159.57894736842104"/>
      <point x="876.3157894736842" y="0.0" type="curve"/>
      <point x="1068.5263157894738" y="0.0" type="line"/>
      <point x="1128.7368421052631" y="166.10526315789474"/>
      <point x="1198.5263157894738" y="359.2631578947369"/>
      <point x="1265.4736842105262" y="548.8421052631579" type="curve"/>
      <point x="1405.157894736842" y="938.5263157894738" type="line"/>
      <point x="1424.842105263158" y="938.5263157894738" type="line"/>
      <point x="1469.0526315789473" y="576.2105263157895" type="line"/>
      <point x="1489.6842105263158" y="408.3157894736842"/>
      <point x="1513.2631578947369" y="214.0"/>
      <point x="1539.7894736842104" y="0.0" type="curve"/>
      <point x="1814.421052631579" y="0.0" type="line"/>
      <point x="1796.421052631579" y="153.57894736842104"/>
      <point x="1778.421052631579" y="293.4736842105263"/>
      <point x="1756.3157894736842" y="466.5263157894737" type="curve"/>
      <point x="1696.1052631578948" y="944.9473684210526" type="line"/>
      <point x="1674.1052631578948" y="1119.8947368421052"/>
      <point x="1656.0" y="1266.2105263157894"/>
      <point x="1634.9473684210527" y="1426.0" type="curve"/>
      <point x="1346.842105263158" y="1426.0" type="line"/>
      <point x="1279.3684210526317" y="1247.7894736842104"/>
      <point x="1219.8947368421052" y="1096.1052631578948"/>
      <point x="1158.421052631579" y="937.0526315789474" type="curve"/>
      <point x="977.8947368421053" y="470.0" type="line"/>
      <point x="958.3157894736842" y="470.0" type="line"/>
      <point x="772.5263157894736" y="937.0526315789474" type="line"/>
      <point x="708.9473684210526" y="1096.1052631578948"/>
      <point x="648.421052631579" y="1250.9473684210527"/>
      <point x="578.8421052631579" y="1426.0" type="curve"/>
      <point x="287.4736842105263" y="1426.0" type="line"/>
      <point x="267.4736842105263" y="1264.2105263157894"/>
      <point x="249.4736842105263" y="1116.9473684210527"/>
      <point x="227.4736842105263" y="944.9473684210526" type="curve"/>
      <point x="168.42105263157896" y="466.5263157894737" type="line"/>
      <point x="146.42105263157896" y="293.57894736842104"/>
      <point x="128.42105263157896" y="148.5263157894737"/>
    </contour>
  </outline>
</glyph>
<glyph name="N" format="2">
  <advance width="1502.421052631579"/>
  <unicode hex="004E"/>
  <anchor x="752.7368421052631" y="0.0" name="bottom"/>
  <anchor x="752.7368421052631" y="1426.0" name="top"/>
  <outline>
    <contour>
      <point x="152.63157894736844" y="0.0" type="curve"/>
      <point x="424.0" y="0.0" type="line"/>
      <point x="424.0" y="154.6315789473684"/>
      <point x="424.0" y="288.3157894736842"/>
      <point x="424.0" y="466.5263157894737" type="curve"/>
      <point x="424.0" y="940.5263157894738" type="line"/>
      <point x="444.63157894736844" y="940.5263157894738" type="line"/>
      <point x="700.9473684210526" y="573.0526315789474" type="line"/>
      <point x="855.578947368421" y="351.47368421052636"/>
      <point x="980.8421052631579" y="172.0"/>
      <point x="1099.4736842105262" y="0.0" type="curve"/>
      <point x="1349.7894736842104" y="0.0" type="line"/>
      <point x="1349.7894736842104" y="154.6315789473684"/>
      <point x="1349.7894736842104" y="288.3157894736842"/>
      <point x="1349.7894736842104" y="466.5263157894737" type="curve"/>
      <point x="1349.7894736842104" y="948.9473684210526" type="line"/>
      <point x="1349.7894736842104" y="1131.3684210526317"/>
      <point x="1349.7894736842104" y="1268.2105263157894"/>
      <point x="1349.7894736842104" y="1426.0" type="curve"/>
      <point x="1078.421052631579" y="1426.0" type="line"/>
      <point x="1078.421052631579" y="1268.2105263157894"/>
      <point x="1078.421052631579" y="1131.3684210526317"/>
      <point x="1078.421052631579" y="948.9473684210526" type="curve"/>
      <point x="1078.421052631579" y="489.2631578947368" type="line"/>
      <point x="1056.7368421052631" y="489.2631578947368" type="line"/>
      <point x="803.578947368421" y="853.7894736842105" type="line"/>
      <point x="675.2631578947369" y="1037.3684210526317"/>
      <point x="550.2105263157895" y="1219.4736842105262"/>
      <point x="406.0" y="1426.0" type="curve"/>
      <point x="152.63157894736844" y="1426.0" type="line"/>
      <point x="152.63157894736844" y="1268.2105263157894"/>
      <point x="152.63157894736844" y="1131.3684210526317"/>
      <point x="152.63157894736844" y="948.9473684210526" type="curve"/>
      <point x="152.63157894736844" y="466.5263157894737" type="line"/>
      <point x="152.63157894736844" y="288.3157894736842"/>
      <point x="152.63157894736844" y="154.6315789473684"/>
    </contour>
  </outline>
</glyph>
<glyph name="O" format="2">
  <advance width="1629.578947368421"/>
  <unicode hex="004F"/>
  <anchor x="814.8421052631579" y="0.0" name="bottom"/>
  <anchor x="814.8421052631579" y="714.0" name="center"/>
  <anchor x="1026.9473684210527" y="0.0" name="ogonek"/>
  <anchor x="814.8421052631579" y="1426.0" name="top"/>
  <anchor x="50.8421052631579" y="1426.0" name="topleft"/>
  <anchor x="1416.6315789473683" y="1426.0" name="topright"/>
  <outline>
    <contour>
      <point x="821.7894736842105" y="-25.36842105263158" type="curve" smooth="yes"/>
      <point x="1287.8947368421052" y="-25.36842105263158"/>
      <point x="1547.4736842105262" y="289.6842105263158"/>
      <point x="1547.4736842105262" y="713.8947368421053" type="curve" smooth="yes"/>
      <point x="1547.4736842105262" y="1124.0"/>
      <point x="1300.9473684210527" y="1454.2105263157894"/>
      <point x="813.578947368421" y="1454.2105263157894" type="curve" smooth="yes"/>
      <point x="333.1578947368421" y="1454.2105263157894"/>
      <point x="82.10526315789474" y="1127.8947368421052"/>
      <point x="82.10526315789474" y="712.8421052631579" type="curve" smooth="yes"/>
      <point x="82.10526315789474" y="319.1578947368421"/>
      <point x="314.42105263157896" y="-25.36842105263158"/>
    </contour>
    <contour>
      <point x="816.7368421052631" y="214.3157894736842" type="curve"/>
      <point x="524.2105263157895" y="214.3157894736842"/>
      <point x="382.8421052631579" y="446.10526315789474"/>
      <point x="382.8421052631579" y="713.8947368421053" type="curve" smooth="yes"/>
      <point x="382.8421052631579" y="982.9473684210526"/>
      <point x="531.1578947368421" y="1214.5263157894738"/>
      <point x="816.7368421052631" y="1214.5263157894738" type="curve"/>
      <point x="1092.5263157894738" y="1214.5263157894738"/>
      <point x="1246.7368421052631" y="994.3157894736842"/>
      <point x="1246.7368421052631" y="713.8947368421053" type="curve" smooth="yes"/>
      <point x="1246.7368421052631" y="449.89473684210526"/>
      <point x="1108.2105263157896" y="214.3157894736842"/>
    </contour>
  </outline>
</glyph>
<glyph name="P" format="2">
  <advance width="1285.7087378640776"/>
  <unicode hex="0050"/>
  <outline>
    <contour>
      <point x="706.0194174757281" y="518.6213592233009" type="curve"/>
      <point x="1081.4757281553398" y="518.6213592233009"/>
      <point x="1217.7475728155339" y="711.6310679611651"/>
      <point x="1217.7475728155339" y="987.9223300970873" type="curve" smooth="yes"/>
      <point x="1217.7475728155339" y="1307.7669902912623"/>
      <point x="1045.7087378640776" y="1426.0"/>
      <point x="705.4174757281553" y="1426.0" type="curve"/>
      <point x="458.8543689320388" y="1426.0"/>
      <point x="265.5533980582524" y="1426.0"/>
      <point x="152.29126213592232" y="1426.0" type="curve"/>
      <point x="410.31067961165047" y="1195.8058252427184" type="line"/>
      <point x="685.3980582524272" y="1195.8058252427184" type="line" smooth="yes"/>
      <point x="796.8349514563107" y="1195.8058252427184"/>
      <point x="924.2135922330098" y="1165.2815533980583"/>
      <point x="924.2135922330098" y="983.9029126213593" type="curve" smooth="yes"/>
      <point x="924.2135922330098" y="814.5048543689321"/>
      <point x="837.7864077669904" y="745.5339805825242"/>
      <point x="641.9417475728155" y="745.5339805825242" type="curve" smooth="yes"/>
      <point x="399.7864077669903" y="745.5339805825242" type="line"/>
      <point x="399.7864077669903" y="518.6213592233009" type="line"/>
      <point x="477.2815533980583" y="518.6213592233009"/>
      <point x="608.5242718446602" y="518.6213592233009"/>
    </contour>
    <contour>
      <point x="152.29126213592232" y="0.0" type="curve"/>
      <point x="436.81553398058253" y="0.0" type="line"/>
      <point x="436.81553398058253" y="154.9902912621359"/>
      <point x="436.81553398058253" y="288.2330097087379"/>
      <point x="436.81553398058253" y="466.7378640776699" type="curve"/>
      <point x="436.81553398058253" y="904.6990291262136" type="line"/>
      <point x="436.81553398058253" y="1085.9611650485438"/>
      <point x="436.81553398058253" y="1223.4563106796118"/>
      <point x="436.81553398058253" y="1380.9514563106795" type="curve"/>
      <point x="152.29126213592232" y="1426.0" type="line"/>
      <point x="152.29126213592232" y="1268.504854368932"/>
      <point x="152.29126213592232" y="1131.009708737864"/>
      <point x="152.29126213592232" y="949.747572815534" type="curve"/>
      <point x="152.29126213592232" y="466.7378640776699" type="line"/>
      <point x="152.29126213592232" y="288.2330097087379"/>
      <point x="152.29126213592232" y="154.9902912621359"/>
    </contour>
  </outline>
</glyph>
<glyph name="R" format="2">
  <advance width="1369.7087378640776"/>
  <unicode hex="0052"/>
  <anchor x="686.6601941747573" y="0.0" name="bottom"/>
  <anchor x="681.6116504854368" y="1426.0" name="top"/>
  <outline>
    <contour>
      <point x="997.9417475728156" y="0.0" type="curve"/>
      <point x="1327.7475728155339" y="0.0" type="line"/>
      <point x="1248.5242718446602" y="110.0"/>
      <point x="1127.8058252427186" y="281.00970873786406"/>
      <point x="1034.5825242718447" y="413.26213592233006" type="curve"/>
      <point x="830.8932038834952" y="698.2718446601942" type="line"/>
      <point x="723.2621359223301" y="584.9708737864078" type="line"/>
      <point x="1074.2330097087379" y="586.7184466019418"/>
      <point x="1207.2621359223301" y="778.1747572815534"/>
      <point x="1207.2621359223301" y="1020.9514563106796" type="curve" smooth="yes"/>
      <point x="1207.2621359223301" y="1323.2621359223301"/>
      <point x="1023.7087378640776" y="1426.0"/>
      <point x="681.1650485436893" y="1426.0" type="curve"/>
      <point x="477.90291262135923" y="1426.0"/>
      <point x="277.0679611650486" y="1426.0"/>
      <point x="152.29126213592232" y="1426.0" type="curve"/>
      <point x="343.9805825242718" y="1196.0582524271845" type="line"/>
      <point x="672.4077669902913" y="1196.0582524271845" type="line" smooth="yes"/>
      <point x="783.8446601941747" y="1196.0582524271845"/>
      <point x="909.2233009708739" y="1169.0291262135925"/>
      <point x="909.2233009708739" y="987.4174757281553" type="curve" smooth="yes"/>
      <point x="909.2233009708739" y="811.0097087378641"/>
      <point x="815.0291262135922" y="752.3106796116505"/>
      <point x="630.9514563106796" y="752.3106796116505" type="curve" smooth="yes"/>
      <point x="383.5145631067962" y="752.3106796116505" type="line"/>
      <point x="383.5145631067962" y="531.7087378640776" type="line"/>
      <point x="714.2718446601941" y="531.7087378640776" type="line"/>
      <point x="541.6116504854368" y="673.2621359223301" type="line"/>
      <point x="781.3009708737864" y="318.6990291262136" type="line"/>
      <point x="849.7669902912621" y="218.2135922330097"/>
      <point x="919.9805825242718" y="114.23300970873785"/>
    </contour>
    <contour>
      <point x="152.29126213592232" y="0.0" type="curve"/>
      <point x="435.0679611650486" y="0.0" type="line"/>
      <point x="435.0679611650486" y="154.9902912621359"/>
      <point x="435.0679611650486" y="288.2330097087379"/>
      <point x="435.0679611650486" y="466.7378640776699" type="curve"/>
      <point x="435.0679611650486" y="904.6990291262136" type="line"/>
      <point x="435.0679611650486" y="1080.7184466019419"/>
      <point x="435.0679611650486" y="1216.4660194174758"/>
      <point x="435.0679611650486" y="1380.9514563106795" type="curve"/>
      <point x="152.29126213592232" y="1426.0" type="line"/>
      <point x="152.29126213592232" y="1268.504854368932"/>
      <point x="152.29126213592232" y="1131.009708737864"/>
      <point x="152.29126213592232" y="949.747572815534" type="curve"/>
      <point x="152.29126213592232" y="466.7378640776699" type="line"/>
      <point x="152.29126213592232" y="288.2330097087379"/>
      <point x="152.29126213592232" y="154.9902912621359"/>
    </contour>
  </outline>
</glyph>
<glyph name="S" format="2">
  <advance width="1193.5533980582525"/>
  <unicode hex="0053"/>
  <anchor x="602.0194174757281" y="0.0" name="bottom"/>
  <anchor x="602.0194174757281" y="1426.0" name="top"/>
  <outline>
    <contour>
      <point x="594.990291262136" y="-25.009708737864077" type="curve" smooth="yes"/>
      <point x="966.8155339805825" y="-25.009708737864077"/>
      <point x="1127.5922330097087" y="148.23300970873785"/>
      <point x="1127.5922330097087" y="402.2912621359223" type="curve" smooth="yes"/>
      <point x="1127.5922330097087" y="634.5631067961165"/>
      <point x="1017.3398058252427" y="731.5728155339806"/>
      <point x="675.5922330097088" y="835.8058252427185" type="curve" smooth="yes"/>
      <point x="478.9514563106796" y="895.7669902912621"/>
      <point x="393.24271844660194" y="942.2330097087378"/>
      <point x="393.24271844660194" y="1049.4174757281553" type="curve" smooth="yes"/>
      <point x="393.24271844660194" y="1161.3398058252428"/>
      <point x="500.6601941747573" y="1215.0485436893205"/>
      <point x="633.0873786407767" y="1215.0485436893205" type="curve"/>
      <point x="743.8252427184466" y="1215.0485436893205"/>
      <point x="895.8252427184467" y="1171.8058252427184"/>
      <point x="1021.0873786407767" y="1090.5631067961165" type="curve"/>
      <point x="1044.3495145631068" y="1351.7669902912623" type="line"/>
      <point x="942.8155339805825" y="1403.514563106796"/>
      <point x="756.7766990291261" y="1454.504854368932"/>
      <point x="581.2621359223301" y="1454.504854368932" type="curve" smooth="yes"/>
      <point x="250.9514563106796" y="1454.504854368932"/>
      <point x="88.44660194174757" y="1282.990291262136"/>
      <point x="88.44660194174757" y="1039.6893203883496" type="curve" smooth="yes"/>
      <point x="88.44660194174757" y="793.1650485436893"/>
      <point x="241.43689320388347" y="697.6504854368933"/>
      <point x="504.9126213592233" y="619.6699029126213" type="curve" smooth="yes"/>
      <point x="704.3300970873787" y="560.9514563106796"/>
      <point x="824.7961165048544" y="510.4854368932038"/>
      <point x="824.7961165048544" y="388.31067961165047" type="curve" smooth="yes"/>
      <point x="824.7961165048544" y="265.90291262135923"/>
      <point x="721.8834951456311" y="211.68932038834953"/>
      <point x="573.9611650485436" y="211.68932038834953" type="curve"/>
      <point x="429.747572815534" y="211.68932038834953"/>
      <point x="271.22330097087377" y="259.18446601941747"/>
      <point x="132.46601941747574" y="336.6796116504854" type="curve"/>
      <point x="110.95145631067962" y="76.23300970873787" type="line"/>
      <point x="210.46601941747574" y="27.980582524271846"/>
      <point x="417.24271844660194" y="-25.009708737864077"/>
    </contour>
  </outline>
</glyph>
<glyph name="T" format="2">
  <advance width="1288.7368421052631"/>
  <unicode hex="0054"/>
  <anchor x="645.3684210526316" y="0.0" name="bottom"/>
  <anchor x="645.3684210526316" y="652.9473684210526" name="center"/>
  <anchor x="645.3684210526316" y="1426.0" name="top"/>
  <outline>
    <contour>
      <point x="500.7368421052632" y="0.0" type="curve"/>
      <point x="788.9473684210526" y="0.0" type="line"/>
      <point x="788.9473684210526" y="154.6315789473684"/>
      <point x="788.9473684210526" y="288.3157894736842"/>
      <point x="788.9473684210526" y="466.5263157894737" type="curve"/>
      <point x="788.9473684210526" y="904.0" type="line"/>
      <point x="788.9473684210526" y="1086.421052631579"/>
      <point x="788.9473684210526" y="1223.2631578947369"/>
      <point x="788.9473684210526" y="1381.0526315789473" type="curve"/>
      <point x="788.9473684210526" y="1426.0" type="line"/>
      <point x="500.7368421052632" y="1426.0" type="line"/>
      <point x="500.7368421052632" y="1381.0526315789473" type="line"/>
      <point x="500.7368421052632" y="1223.2631578947369"/>
      <point x="500.7368421052632" y="1086.421052631579"/>
      <point x="500.7368421052632" y="904.0" type="curve"/>
      <point x="500.7368421052632" y="466.5263157894737" type="line"/>
      <point x="500.7368421052632" y="288.3157894736842"/>
      <point x="500.7368421052632" y="154.6315789473684"/>
    </contour>
    <contour>
      <point x="54.21052631578947" y="1173.4736842105262" type="line"/>
      <point x="160.6315789473684" y="1173.4736842105262"/>
      <point x="273.0526315789474" y="1173.4736842105262"/>
      <point x="427.2631578947368" y="1173.4736842105262" type="curve"/>
      <point x="548.6315789473684" y="1173.4736842105262" type="line"/>
      <point x="548.6315789473684" y="1426.0" type="line"/>
      <point x="54.21052631578947" y="1426.0" type="line"/>
    </contour>
    <contour>
      <point x="740.1052631578947" y="1173.4736842105262" type="line"/>
      <point x="861.4736842105264" y="1173.4736842105262" type="line"/>
      <point x="1015.6842105263158" y="1173.4736842105262"/>
      <point x="1128.1052631578948" y="1173.4736842105262"/>
      <point x="1234.5263157894738" y="1173.4736842105262" type="curve"/>
      <point x="1234.5263157894738" y="1426.0" type="line"/>
      <point x="740.1052631578947" y="1426.0" type="line"/>
    </contour>
  </outline>
</glyph>
<glyph name="U" format="2">
  <advance width="1457.6842105263158"/>
  <unicode hex="0055"/>
  <anchor x="730.8421052631579" y="0.0" name="bottom"/>
  <anchor x="941.1578947368421" y="0.0" name="ogonek"/>
  <anchor x="730.8421052631579" y="1426.0" name="top"/>
  <anchor x="1406.421052631579" y="1426.0" name="topright"/>
  <outline>
    <contour>
      <point x="730.9473684210526" y="-25.36842105263158" type="curve" smooth="yes"/>
      <point x="1139.7894736842106" y="-25.36842105263158"/>
      <point x="1318.6315789473683" y="195.78947368421052"/>
      <point x="1318.6315789473683" y="542.3157894736842" type="curve" smooth="yes"/>
      <point x="1318.6315789473683" y="617.6842105263158"/>
      <point x="1318.6315789473683" y="790.7368421052631"/>
      <point x="1318.6315789473683" y="948.9473684210526" type="curve"/>
      <point x="1318.6315789473683" y="1131.3684210526317"/>
      <point x="1318.6315789473683" y="1268.2105263157894"/>
      <point x="1318.6315789473683" y="1426.0" type="curve"/>
      <point x="1030.421052631579" y="1426.0" type="line"/>
      <point x="1030.421052631579" y="1268.2105263157894"/>
      <point x="1030.421052631579" y="1131.3684210526317"/>
      <point x="1030.421052631579" y="948.9473684210526" type="curve"/>
      <point x="1030.421052631579" y="562.3157894736842" type="line" smooth="yes"/>
      <point x="1030.421052631579" y="340.5263157894737"/>
      <point x="950.5263157894738" y="214.3157894736842"/>
      <point x="729.8947368421053" y="214.3157894736842" type="curve"/>
      <point x="513.4736842105262" y="214.3157894736842"/>
      <point x="426.31578947368416" y="341.4736842105263"/>
      <point x="426.31578947368416" y="561.3684210526316" type="curve" smooth="yes"/>
      <point x="426.31578947368416" y="948.9473684210526" type="line"/>
      <point x="426.31578947368416" y="1131.3684210526317"/>
      <point x="426.31578947368416" y="1268.2105263157894"/>
      <point x="426.31578947368416" y="1426.0" type="curve"/>
      <point x="138.10526315789474" y="1426.0" type="line"/>
      <point x="138.10526315789474" y="1268.2105263157894"/>
      <point x="138.10526315789474" y="1131.3684210526317"/>
      <point x="138.10526315789474" y="948.9473684210526" type="curve"/>
      <point x="138.10526315789474" y="790.7368421052631"/>
      <point x="138.10526315789474" y="621.8947368421053"/>
      <point x="138.10526315789474" y="543.3684210526316" type="curve" smooth="yes"/>
      <point x="138.10526315789474" y="195.78947368421052"/>
      <point x="305.1578947368421" y="-25.36842105263158"/>
    </contour>
  </outline>
</glyph>
<glyph name="V" format="2">
  <advance width="1407.578947368421"/>
  <unicode hex="0056"/>
  <anchor x="703.7894736842105" y="0.0" name="bottom"/>
  <anchor x="703.7894736842105" y="1426.0" name="top"/>
  <outline>
    <contour>
      <point x="509.1578947368421" y="0.0" type="curve"/>
      <point x="896.9473684210526" y="0.0" type="line"/>
      <point x="943.4736842105262" y="142.8421052631579"/>
      <point x="998.8421052631579" y="311.89473684210526"/>
      <point x="1043.4736842105262" y="451.05263157894734" type="curve"/>
      <point x="1189.0526315789473" y="900.0" type="line"/>
      <point x="1239.578947368421" y="1055.0526315789473"/>
      <point x="1303.8947368421052" y="1253.8947368421052"/>
      <point x="1359.3684210526317" y="1426.0" type="curve"/>
      <point x="1048.2105263157896" y="1426.0" type="line"/>
      <point x="989.8947368421053" y="1231.8947368421052"/>
      <point x="927.6842105263158" y="1020.9473684210526"/>
      <point x="873.2631578947369" y="830.8421052631579" type="curve"/>
      <point x="714.8421052631579" y="294.1052631578947" type="line"/>
      <point x="692.3157894736842" y="294.1052631578947" type="line"/>
      <point x="539.2631578947369" y="828.8421052631579" type="line"/>
      <point x="486.0" y="1015.0526315789474"/>
      <point x="421.0526315789474" y="1238.842105263158"/>
      <point x="367.7894736842105" y="1426.0" type="curve"/>
      <point x="47.26315789473684" y="1426.0" type="line"/>
      <point x="102.63157894736842" y="1256.1052631578948"/>
      <point x="167.89473684210526" y="1053.0526315789473"/>
      <point x="217.3684210526316" y="900.0" type="curve"/>
      <point x="362.7368421052632" y="452.0" type="line"/>
      <point x="407.2631578947369" y="314.94736842105266"/>
      <point x="463.6842105263158" y="142.0"/>
    </contour>
  </outline>
</glyph>
<glyph name="W" format="2">
  <advance width="2079.0526315789475"/>
  <unicode hex="0057"/>
  <anchor x="1032.7368421052631" y="0.0" name="bottom"/>
  <anchor x="1032.7368421052631" y="1426.0" name="top"/>
  <outline>
    <contour>
      <point x="432.63157894736844" y="0.0" type="curve"/>
      <point x="771.578947368421" y="0.0" type="line"/>
      <point x="811.3684210526316" y="165.26315789473685"/>
      <point x="858.8421052631579" y="366.0"/>
      <point x="898.6315789473684" y="532.3157894736842" type="curve"/>
      <point x="1014.1052631578947" y="1013.4736842105264" type="line"/>
      <point x="1036.6315789473683" y="1013.4736842105264" type="line"/>
      <point x="1155.157894736842" y="533.3684210526316" type="line"/>
      <point x="1196.0" y="366.0"/>
      <point x="1244.5263157894738" y="168.31578947368422"/>
      <point x="1286.3157894736842" y="0.0" type="curve"/>
      <point x="1641.0526315789473" y="0.0" type="line"/>
      <point x="1678.842105263158" y="137.05263157894737"/>
      <point x="1725.578947368421" y="308.94736842105266"/>
      <point x="1765.3684210526317" y="450.94736842105266" type="curve"/>
      <point x="1889.6842105263158" y="900.0" type="line"/>
      <point x="1932.421052631579" y="1055.8947368421052"/>
      <point x="1987.157894736842" y="1255.0526315789473"/>
      <point x="2033.8947368421052" y="1426.0" type="curve"/>
      <point x="1708.9473684210527" y="1426.0" type="line"/>
      <point x="1669.3684210526317" y="1246.2105263157894"/>
      <point x="1621.0526315789473" y="1034.842105263158"/>
      <point x="1581.4736842105262" y="857.0526315789474" type="curve"/>
      <point x="1466.5263157894738" y="342.42105263157896" type="line"/>
      <point x="1444.0" y="342.42105263157896" type="line"/>
      <point x="1325.4736842105262" y="855.0526315789474" type="line"/>
      <point x="1282.7368421052631" y="1037.7894736842104"/>
      <point x="1236.1052631578948" y="1243.2631578947369"/>
      <point x="1193.3684210526317" y="1426.0" type="curve"/>
      <point x="880.6315789473684" y="1426.0" type="line"/>
      <point x="840.8421052631579" y="1248.2105263157894"/>
      <point x="792.3157894736842" y="1031.8947368421052"/>
      <point x="752.5263157894736" y="857.0526315789474" type="curve"/>
      <point x="637.0526315789474" y="342.42105263157896" type="line"/>
      <point x="614.5263157894736" y="342.42105263157896" type="line"/>
      <point x="500.52631578947364" y="852.1052631578948" type="line"/>
      <point x="458.9473684210526" y="1034.842105263158"/>
      <point x="412.63157894736844" y="1243.2631578947369"/>
      <point x="371.05263157894734" y="1426.0" type="curve"/>
      <point x="46.10526315789474" y="1426.0" type="line"/>
      <point x="91.78947368421052" y="1258.0"/>
      <point x="146.42105263157896" y="1056.1052631578948"/>
      <point x="189.1578947368421" y="898.1052631578947" type="curve"/>
      <point x="310.42105263157896" y="450.0" type="line"/>
      <point x="348.2105263157895" y="312.0"/>
      <point x="393.89473684210526" y="140.94736842105263"/>
    </contour>
  </outline>
</glyph>
<glyph name="X" format="2">
  <advance width="1402.7368421052631"/>
  <unicode hex="0058"/>
  <outline>
    <contour>
      <point x="59.578947368421055" y="0.0" type="curve"/>
      <point x="380.7368421052631" y="0.0" type="line"/>
      <point x="440.9473684210526" y="111.57894736842105"/>
      <point x="492.42105263157896" y="206.42105263157896"/>
      <point x="545.7894736842105" y="304.2105263157895" type="curve"/>
      <point x="671.0526315789474" y="535.2631578947369" type="line"/>
      <point x="693.578947368421" y="535.2631578947369" type="line"/>
      <point x="827.578947368421" y="305.1578947368421" type="line"/>
      <point x="882.0" y="212.31578947368422"/>
      <point x="940.2105263157895" y="111.57894736842105"/>
      <point x="1005.2631578947369" y="0.0" type="curve"/>
      <point x="1346.3157894736842" y="0.0" type="line"/>
      <point x="1252.2105263157896" y="150.0"/>
      <point x="1168.0" y="285.05263157894734"/>
      <point x="1071.8947368421052" y="439.05263157894734" type="curve"/>
      <point x="877.6842105263158" y="751.1578947368421" type="line"/>
      <point x="877.6842105263158" y="671.8947368421053" type="line"/>
      <point x="1067.0526315789473" y="1007.8947368421053" type="line"/>
      <point x="1134.421052631579" y="1127.157894736842"/>
      <point x="1215.6842105263158" y="1270.5263157894738"/>
      <point x="1302.9473684210527" y="1426.0" type="curve"/>
      <point x="984.0" y="1426.0" type="line"/>
      <point x="922.7368421052631" y="1312.1052631578948"/>
      <point x="861.578947368421" y="1198.421052631579"/>
      <point x="807.1578947368421" y="1096.5263157894738" type="curve"/>
      <point x="702.2105263157895" y="901.6842105263158" type="line"/>
      <point x="679.6842105263158" y="901.6842105263158" type="line"/>
      <point x="570.7368421052631" y="1095.578947368421" type="line"/>
      <point x="514.3157894736842" y="1196.5263157894738"/>
      <point x="451.0526315789474" y="1309.2631578947369"/>
      <point x="385.89473684210526" y="1426.0" type="curve"/>
      <point x="56.421052631578945" y="1426.0" type="line"/>
      <point x="153.4736842105263" y="1263.8947368421052"/>
      <point x="232.73684210526318" y="1128.7368421052631"/>
      <point x="312.9473684210526" y="994.6315789473684" type="curve"/>
      <point x="488.2105263157895" y="699.4736842105264" type="line"/>
      <point x="488.2105263157895" y="770.3157894736842" type="line"/>
      <point x="289.2631578947369" y="413.7894736842105" type="line"/>
      <point x="206.10526315789474" y="264.5263157894737"/>
      <point x="132.8421052631579" y="131.26315789473685"/>
    </contour>
  </outline>
</glyph>
<glyph name="Y" format="2">
  <advance width="1346.421052631579"/>
  <unicode hex="0059"/>
  <anchor x="676.3157894736842" y="0.0" name="bottom"/>
  <anchor x="676.3157894736842" y="1426.0" name="top"/>
  <anchor x="37.89473684210526" y="1426.0" name="topleft"/>
  <outline>
    <contour>
      <point x="537.8947368421053" y="517.8947368421053" type="line"/>
      <point x="813.6842105263158" y="517.8947368421053" type="line"/>
      <point x="1111.2631578947369" y="1069.3684210526317" type="line"/>
      <point x="1172.9473684210527" y="1183.8947368421052"/>
      <point x="1238.7368421052631" y="1305.4736842105262"/>
      <point x="1303.3684210526317" y="1426.0" type="curve"/>
      <point x="984.2105263157895" y="1426.0" type="line"/>
      <point x="901.8947368421053" y="1256.0"/>
      <point x="860.2105263157895" y="1170.0"/>
      <point x="791.3684210526316" y="1030.6315789473683" type="curve"/>
      <point x="688.6315789473684" y="820.1052631578948" type="line"/>
      <point x="664.0" y="820.1052631578948" type="line"/>
      <point x="559.4736842105264" y="1036.421052631579" type="line"/>
      <point x="495.57894736842104" y="1170.9473684210527"/>
      <point x="456.8421052631579" y="1254.0"/>
      <point x="373.57894736842104" y="1426.0" type="curve"/>
      <point x="44.94736842105263" y="1426.0" type="line"/>
      <point x="122.63157894736842" y="1286.421052631579"/>
      <point x="175.3684210526316" y="1186.9473684210527"/>
      <point x="239.1578947368421" y="1069.3684210526317" type="curve"/>
    </contour>
    <contour>
      <point x="531.6842105263158" y="0.0" type="curve"/>
      <point x="820.9473684210526" y="0.0" type="line"/>
      <point x="820.9473684210526" y="154.6315789473684"/>
      <point x="820.9473684210526" y="288.3157894736842"/>
      <point x="820.9473684210526" y="466.5263157894737" type="curve"/>
      <point x="820.9473684210526" y="760.421052631579" type="line"/>
      <point x="531.6842105263158" y="760.421052631579" type="line"/>
      <point x="531.6842105263158" y="466.5263157894737" type="line"/>
      <point x="531.6842105263158" y="288.3157894736842"/>
      <point x="531.6842105263158" y="154.6315789473684"/>
    </contour>
  </outline>
</glyph>
<glyph name="bracketleft" format="2">
  <advance width="795.2631578947369"/>
  <unicode hex="005B"/>
  <outline>
    <contour>
      <point x="163.05263157894737" y="-242.94736842105263" type="curve"/>
      <point x="402.9473684210526" y="-242.94736842105263" type="line"/>
      <point x="402.9473684210526" y="-197.05263157894737" type="line"/>
      <point x="402.9473684210526" y="-42.421052631578945"/>
      <point x="402.9473684210526" y="91.26315789473684"/>
      <point x="402.9473684210526" y="269.4736842105263" type="curve"/>
      <point x="402.9473684210526" y="1022.2105263157895" type="line"/>
      <point x="402.9473684210526" y="1204.6315789473683"/>
      <point x="402.9473684210526" y="1341.4736842105262"/>
      <point x="402.9473684210526" y="1499.2631578947369" type="curve"/>
      <point x="402.9473684210526" y="1544.2105263157894" type="line"/>
      <point x="163.05263157894737" y="1544.2105263157894" type="line"/>
      <point x="163.05263157894737" y="1386.421052631579"/>
      <point x="163.05263157894737" y="1249.578947368421"/>
      <point x="163.05263157894737" y="1067.157894736842" type="curve"/>
      <point x="163.05263157894737" y="223.57894736842104" type="line"/>
      <point x="163.05263157894737" y="45.36842105263158"/>
      <point x="163.05263157894737" y="-88.3157894736842"/>
    </contour>
    <contour>
      <point x="369.89473684210526" y="-242.94736842105263" type="line"/>
      <point x="753.2631578947369" y="-242.94736842105263" type="line"/>
      <point x="753.2631578947369" y="-32.42105263157896" type="line"/>
      <point x="662.6315789473684" y="-32.42105263157896"/>
      <point x="568.1052631578947" y="-32.42105263157896"/>
      <point x="460.5263157894737" y="-32.42105263157896" type="curve"/>
      <point x="369.89473684210526" y="-32.42105263157896" type="line"/>
    </contour>
    <contour>
      <point x="353.0526315789474" y="1333.6842105263158" type="line"/>
      <point x="446.10526315789474" y="1333.6842105263158" type="line"/>
      <point x="575.578947368421" y="1333.6842105263158"/>
      <point x="665.2631578947369" y="1333.6842105263158"/>
      <point x="748.9473684210526" y="1333.6842105263158" type="curve"/>
      <point x="748.9473684210526" y="1544.2105263157894" type="line"/>
      <point x="353.0526315789474" y="1544.2105263157894" type="line"/>
    </contour>
  </outline>
</glyph>
<glyph name="backslash" format="2">
  <advance width="903.3684210526316"/>
  <unicode hex="005C"/>
  <outline>
    <contour>
      <point x="610.0" y="0.0" type="curve"/>
      <point x="864.421052631579" y="0.0" type="line"/>
      <point x="804.8421052631579" y="148.0"/>
      <point x="755.1578947368421" y="274.0"/>
      <point x="681.6842105263158" y="456.0" type="curve"/>
      <point x="483.05263157894734" y="952.0" type="line"/>
      <point x="407.57894736842104" y="1140.9473684210527"/>
      <point x="354.9473684210526" y="1272.0"/>
      <point x="293.36842105263156" y="1426.0" type="curve"/>
      <point x="38.94736842105264" y="1426.0" type="line"/>
      <point x="100.52631578947368" y="1272.0"/>
      <point x="153.1578947368421" y="1142.0"/>
      <point x="230.63157894736844" y="948.0" type="curve"/>
      <point x="427.2631578947369" y="456.0" type="line"/>
      <point x="500.7368421052632" y="274.0"/>
      <point x="550.421052631579" y="148.0"/>
    </contour>
  </outline>
</glyph>
<glyph name="asciicircum" format="2">
  <advance width="1251.578947368421"/>
  <unicode hex="005E"/>
  <outline>
    <contour>
      <point x="910.2105263157895" y="730.1052631578948" type="curve"/>
      <point x="1148.421052631579" y="733.1578947368421" type="line"/>
      <point x="1027.0526315789473" y="946.2105263157895"/>
      <point x="903.6842105263158" y="1161.2631578947369"/>
      <point x="782.3157894736842" y="1374.3157894736842" type="curve"/>
      <point x="469.2631578947369" y="1374.3157894736842" type="line"/>
      <point x="347.89473684210526" y="1161.2631578947369"/>
      <point x="224.5263157894737" y="950.2105263157895"/>
      <point x="103.15789473684211" y="737.1578947368421" type="curve"/>
      <point x="342.42105263157896" y="737.1578947368421" type="line"/>
      <point x="433.7894736842105" y="874.421052631579"/>
      <point x="523.1578947368421" y="1013.6842105263158"/>
      <point x="614.5263157894736" y="1150.9473684210527" type="curve"/>
      <point x="637.0526315789474" y="1150.9473684210527" type="line"/>
      <point x="728.421052631579" y="1010.6315789473684"/>
      <point x="818.8421052631579" y="870.421052631579"/>
    </contour>
  </outline>
</glyph>
<glyph name="underscore" format="2">
  <advance width="844.2105263157895"/>
  <unicode hex="005F"/>
  <outline>
    <contour>
      <point x="-20.0" y="-302.3157894736842" type="line"/>
      <point x="113.89473684210526" y="-302.3157894736842"/>
      <point x="240.73684210526315" y="-302.3157894736842"/>
      <point x="350.5263157894737" y="-302.3157894736842" type="curve"/>
      <point x="493.6842105263158" y="-302.3157894736842" type="line"/>
      <point x="603.4736842105264" y="-302.3157894736842"/>
      <point x="730.3157894736842" y="-302.3157894736842"/>
      <point x="864.2105263157895" y="-302.3157894736842" type="curve"/>
      <point x="864.2105263157895" y="-88.42105263157895" type="line"/>
      <point x="730.3157894736842" y="-88.42105263157895"/>
      <point x="603.4736842105264" y="-88.42105263157895"/>
      <point x="493.6842105263158" y="-88.42105263157895" type="curve"/>
      <point x="350.5263157894737" y="-88.42105263157895" type="line"/>
      <point x="240.73684210526315" y="-88.42105263157895"/>
      <point x="113.89473684210526" y="-88.42105263157895"/>
      <point x="-20.0" y="-88.42105263157895" type="curve"/>
    </contour>
  </outline>
</glyph>
<glyph name="a" format="2">
  <advance width="1055.2427184466019"/>
  <unicode hex="0061"/>
  <anchor x="530.504854368932" y="0.0" name="bottom"/>
  <anchor x="939.3203883495146" y="0.0" name="ogonek"/>
  <anchor x="530.504854368932" y="997.009708737864" name="top"/>
  <outline>
    <contour>
      <point x="373.1456310679612" y="-22.75728155339806" type="curve" smooth="yes"/>
      <point x="517.8834951456311" y="-22.75728155339806"/>
      <point x="616.6213592233009" y="56.990291262135926"/>
      <point x="671.8640776699029" y="130.27184466019415" type="curve"/>
      <point x="692.8737864077669" y="130.27184466019415" type="line"/>
      <point x="708.8932038834952" y="0.0" type="line"/>
      <point x="939.3203883495146" y="0.0" type="line"/>
      <point x="939.3203883495146" y="117.02912621359224"/>
      <point x="939.3203883495146" y="215.57281553398056"/>
      <point x="939.3203883495146" y="315.3398058252427" type="curve"/>
      <point x="939.3203883495146" y="422.252427184466" type="line" smooth="yes"/>
      <point x="939.3203883495146" y="500.2330097087379"/>
      <point x="939.3203883495146" y="606.4854368932039"/>
      <point x="939.3203883495146" y="671.2427184466019" type="curve" smooth="yes"/>
      <point x="939.3203883495146" y="919.26213592233"/>
      <point x="795.3009708737865" y="1022.0194174757281"/>
      <point x="550.2718446601942" y="1022.0194174757281" type="curve" smooth="yes"/>
      <point x="381.9611650485437" y="1022.0194174757281"/>
      <point x="224.19417475728156" y="981.26213592233"/>
      <point x="125.68932038834953" y="944.0194174757281" type="curve"/>
      <point x="138.4466019417476" y="716.3300970873787" type="line"/>
      <point x="269.66990291262135" y="776.0776699029126"/>
      <point x="389.43689320388347" y="805.5728155339806"/>
      <point x="481.43689320388347" y="805.5728155339806" type="curve" smooth="yes"/>
      <point x="608.1747572815534" y="805.5728155339806"/>
      <point x="696.1165048543689" y="770.5825242718446"/>
      <point x="690.6213592233009" y="635.2233009708738" type="curve"/>
      <point x="406.6601941747573" y="592.4660194174756" type="line" smooth="yes"/>
      <point x="253.72815533980582" y="568.9708737864078"/>
      <point x="81.4368932038835" y="496.7378640776699"/>
      <point x="81.4368932038835" y="272.97087378640776" type="curve" smooth="yes"/>
      <point x="81.4368932038835" y="86.52427184466019"/>
      <point x="203.63106796116503" y="-22.75728155339806"/>
    </contour>
    <contour>
      <point x="469.3009708737864" y="181.92233009708735" type="curve" smooth="yes"/>
      <point x="402.8543689320388" y="181.92233009708735"/>
      <point x="342.8932038834951" y="212.40776699029126"/>
      <point x="342.8932038834951" y="296.8543689320388" type="curve" smooth="yes"/>
      <point x="342.8932038834951" y="374.56310679611653"/>
      <point x="390.873786407767" y="424.2718446601942"/>
      <point x="473.3009708737864" y="439.7669902912622" type="curve" smooth="yes"/>
      <point x="620.4077669902913" y="466.50485436893206"/>
      <point x="657.3786407766991" y="476.75728155339806"/>
      <point x="683.8640776699029" y="494.75728155339806" type="curve"/>
      <point x="683.8640776699029" y="338.77669902912623" type="line"/>
      <point x="633.9029126213593" y="242.36893203883497"/>
      <point x="551.4757281553399" y="181.92233009708735"/>
    </contour>
  </outline>
</glyph>
<glyph name="b" format="2">
  <advance width="1184.1052631578948"/>
  <unicode hex="0062"/>
  <outline>
    <contour>
      <point x="697.0526315789474" y="-25.36842105263158" type="curve" smooth="yes"/>
      <point x="973.2631578947369" y="-25.36842105263158"/>
      <point x="1104.3157894736842" y="222.10526315789474"/>
      <point x="1104.3157894736842" y="500.10526315789474" type="curve" smooth="yes"/>
      <point x="1104.3157894736842" y="796.2105263157895"/>
      <point x="960.5263157894736" y="1022.7368421052631"/>
      <point x="694.1052631578947" y="1022.7368421052631" type="curve" smooth="yes"/>
      <point x="570.421052631579" y="1022.7368421052631"/>
      <point x="474.7368421052631" y="969.6842105263158"/>
      <point x="420.9473684210526" y="892.1052631578947" type="curve"/>
      <point x="398.42105263157896" y="892.1052631578947" type="line"/>
      <point x="398.42105263157896" y="986.9473684210526" type="line"/>
      <point x="398.42105263157896" y="1168.5263157894738"/>
      <point x="398.42105263157896" y="1330.842105263158"/>
      <point x="398.42105263157896" y="1489.578947368421" type="curve"/>
      <point x="136.31578947368422" y="1465.157894736842" type="line"/>
      <point x="136.31578947368422" y="1309.578947368421"/>
      <point x="136.31578947368422" y="1150.6315789473683"/>
      <point x="136.31578947368422" y="986.9473684210526" type="curve"/>
      <point x="136.31578947368422" y="433.57894736842104" type="line"/>
      <point x="136.31578947368422" y="268.42105263157896"/>
      <point x="136.31578947368422" y="143.68421052631578"/>
      <point x="136.31578947368422" y="0.0" type="curve"/>
      <point x="344.8421052631579" y="0.0" type="line"/>
      <point x="372.2105263157895" y="126.3157894736842" type="line"/>
      <point x="391.57894736842104" y="126.3157894736842" type="line"/>
      <point x="465.0526315789474" y="31.684210526315788"/>
      <point x="562.421052631579" y="-25.36842105263158"/>
    </contour>
    <contour>
      <point x="601.2631578947369" y="199.68421052631578" type="curve"/>
      <point x="507.36842105263156" y="199.68421052631578"/>
      <point x="441.57894736842104" y="248.42105263157893"/>
      <point x="398.42105263157896" y="324.8421052631579" type="curve"/>
      <point x="398.42105263157896" y="692.2105263157895" type="line"/>
      <point x="444.7368421052631" y="758.6315789473684"/>
      <point x="520.1052631578947" y="794.5263157894738"/>
      <point x="599.3684210526316" y="794.5263157894738" type="curve"/>
      <point x="759.2631578947369" y="794.5263157894738"/>
      <point x="836.0" y="659.7894736842105"/>
      <point x="836.0" y="498.0" type="curve" smooth="yes"/>
      <point x="836.0" y="344.10526315789474"/>
      <point x="762.9473684210526" y="199.68421052631578"/>
    </contour>
  </outline>
</glyph>
<glyph name="c" format="2">
  <advance width="974.5263157894736"/>
  <unicode hex="0063"/>
  <anchor x="563.1578947368421" y="0.0" name="bottom"/>
  <anchor x="554.6315789473684" y="996.421052631579" name="top"/>
  <outline>
    <contour>
      <point x="600.6315789473684" y="-21.157894736842106" type="curve" smooth="yes"/>
      <point x="734.1052631578947" y="-21.157894736842106"/>
      <point x="831.7894736842105" y="3.2631578947368425"/>
      <point x="900.1052631578947" y="33.89473684210526" type="curve"/>
      <point x="885.0526315789474" y="262.9473684210526" type="line"/>
      <point x="814.8421052631579" y="217.36842105263156"/>
      <point x="736.7368421052631" y="196.52631578947367"/>
      <point x="658.5263157894736" y="196.52631578947367" type="curve" smooth="yes"/>
      <point x="453.4736842105263" y="196.52631578947367"/>
      <point x="344.9473684210526" y="326.10526315789474"/>
      <point x="344.9473684210526" y="504.42105263157896" type="curve" smooth="yes"/>
      <point x="344.9473684210526" y="683.6842105263158"/>
      <point x="452.3157894736842" y="797.6842105263158"/>
      <point x="617.2631578947369" y="797.6842105263158" type="curve"/>
      <point x="680.3157894736842" y="797.6842105263158"/>
      <point x="766.7368421052631" y="784.9473684210526"/>
      <point x="879.8947368421053" y="719.8947368421052" type="curve"/>
      <point x="900.421052631579" y="948.9473684210526" type="line"/>
      <point x="820.2105263157895" y="992.9473684210526"/>
      <point x="699.7894736842105" y="1021.6842105263158"/>
      <point x="581.578947368421" y="1021.6842105263158" type="curve" smooth="yes"/>
      <point x="250.5263157894737" y="1021.6842105263158"/>
      <point x="77.6842105263158" y="797.578947368421"/>
      <point x="77.6842105263158" y="497.05263157894734" type="curve" smooth="yes"/>
      <point x="77.6842105263158" y="198.5263157894737"/>
      <point x="265.36842105263156" y="-21.157894736842106"/>
    </contour>
  </outline>
</glyph>
<glyph name="e" format="2">
  <advance width="1053.747572815534"/>
  <unicode hex="0065"/>
  <anchor x="561.9805825242719" y="0.0" name="bottom"/>
  <anchor x="813.3398058252428" y="0.0" name="ogonek"/>
  <anchor x="553.2427184466019" y="997.009708737864" name="top"/>
  <outline>
    <contour>
      <point x="622.5048543689321" y="-25.009708737864077" type="curve" smooth="yes"/>
      <point x="768.0388349514564" y="-25.009708737864077"/>
      <point x="886.5436893203884" y="3.242718446601942"/>
      <point x="963.0485436893204" y="40.23300970873787" type="curve"/>
      <point x="954.2912621359224" y="264.4271844660194" type="line"/>
      <point x="860.0388349514564" y="215.18446601941747"/>
      <point x="735.7669902912621" y="193.18446601941747"/>
      <point x="652.5436893203884" y="193.18446601941747" type="curve" smooth="yes"/>
      <point x="437.6116504854369" y="193.18446601941747"/>
      <point x="338.4077669902913" y="306.8543689320388"/>
      <point x="338.4077669902913" y="497.747572815534" type="curve"/>
      <point x="338.4077669902913" y="539.0485436893204" type="line"/>
      <point x="338.4077669902913" y="712.73786407767"/>
      <point x="428.34951456310677" y="827.3980582524272"/>
      <point x="556.990291262136" y="827.3980582524272" type="curve"/>
      <point x="666.1553398058253" y="827.3980582524272"/>
      <point x="745.5922330097087" y="743.1844660194175"/>
      <point x="745.5922330097087" y="599.009708737864" type="curve" smooth="yes"/>
      <point x="745.5922330097087" y="581.5145631067961"/>
      <point x="743.5922330097087" y="561.7669902912621"/>
      <point x="741.5922330097087" y="544.0194174757281" type="curve"/>
      <point x="972.2912621359224" y="453.4757281553398" type="line"/>
      <point x="978.2912621359224" y="493.7281553398058"/>
      <point x="980.5436893203884" y="531.9805825242719"/>
      <point x="980.5436893203884" y="584.73786407767" type="curve" smooth="yes"/>
      <point x="980.5436893203884" y="877.0291262135922"/>
      <point x="821.0291262135922" y="1022.0194174757281"/>
      <point x="554.73786407767" y="1022.0194174757281" type="curve" smooth="yes"/>
      <point x="244.4271844660194" y="1022.0194174757281"/>
      <point x="77.94174757281553" y="807.2621359223301"/>
      <point x="77.94174757281553" y="502.0" type="curve" smooth="yes"/>
      <point x="77.94174757281553" y="194.9902912621359"/>
      <point x="244.4466019417476" y="-25.009708737864077"/>
    </contour>
    <contour>
      <point x="181.02912621359224" y="453.4757281553398" type="line"/>
      <point x="972.2912621359224" y="453.4757281553398" type="line"/>
      <point x="972.2912621359224" y="568.0388349514564" type="line"/>
      <point x="817.9029126213592" y="626.9902912621359" type="line"/>
      <point x="181.02912621359224" y="615.7281553398058" type="line"/>
    </contour>
  </outline>
</glyph>
<glyph name="f" format="2">
  <advance width="811.1578947368421"/>
  <unicode hex="0066"/>
  <outline>
    <contour>
      <point x="211.3684210526316" y="0.0" type="curve"/>
      <point x="473.4736842105263" y="0.0" type="line"/>
      <point x="473.4736842105263" y="143.68421052631578"/>
      <point x="473.4736842105263" y="268.42105263157896"/>
      <point x="473.4736842105263" y="433.57894736842104" type="curve"/>
      <point x="473.4736842105263" y="949.4736842105264" type="line"/>
      <point x="462.9473684210526" y="996.421052631579" type="line"/>
      <point x="462.9473684210526" y="1017.1578947368421"/>
      <point x="462.9473684210526" y="1065.8947368421052"/>
      <point x="462.9473684210526" y="1096.7368421052631" type="curve" smooth="yes"/>
      <point x="462.9473684210526" y="1217.4736842105262"/>
      <point x="520.9473684210526" y="1274.5263157894738"/>
      <point x="642.3157894736842" y="1274.5263157894738" type="curve" smooth="yes"/>
      <point x="692.0" y="1274.5263157894738"/>
      <point x="742.1052631578947" y="1263.3684210526317"/>
      <point x="788.421052631579" y="1246.2105263157896" type="curve"/>
      <point x="809.0526315789474" y="1462.842105263158" type="line"/>
      <point x="766.8421052631579" y="1478.9473684210527"/>
      <point x="688.8421052631579" y="1493.2631578947369"/>
      <point x="602.3157894736842" y="1493.2631578947369" type="curve" smooth="yes"/>
      <point x="395.2631578947368" y="1493.2631578947369"/>
      <point x="211.3684210526316" y="1409.578947368421"/>
      <point x="211.3684210526316" y="1103.0526315789473" type="curve" smooth="yes"/>
      <point x="211.3684210526316" y="912.6315789473684"/>
      <point x="211.3684210526316" y="693.1578947368421"/>
      <point x="211.3684210526316" y="533.578947368421" type="curve"/>
      <point x="211.3684210526316" y="433.57894736842104" type="line"/>
      <point x="211.3684210526316" y="268.42105263157896"/>
      <point x="211.3684210526316" y="143.68421052631578"/>
    </contour>
    <contour>
      <point x="40.10526315789474" y="798.3157894736842" type="line"/>
      <point x="286.2105263157895" y="798.3157894736842" type="line"/>
      <point x="401.1578947368421" y="798.3157894736842" type="line"/>
      <point x="521.3684210526316" y="798.3157894736842"/>
      <point x="637.3684210526316" y="798.3157894736842"/>
      <point x="764.7368421052631" y="798.3157894736842" type="curve"/>
      <point x="764.7368421052631" y="996.421052631579" type="line"/>
      <point x="40.10526315789474" y="996.421052631579" type="line"/>
    </contour>
  </outline>
</glyph>
<glyph name="g" format="2">
  <advance width="1095.0291262135922"/>
  <unicode hex="0067"/>
  <anchor x="546.0194174757281" y="-384.0" name="bottom"/>
  <anchor x="546.0194174757281" y="997.009708737864" name="top"/>
  <outline>
    <contour>
      <point x="481.4757281553398" y="-408.504854368932" type="curve" smooth="yes"/>
      <point x="734.7766990291262" y="-408.504854368932"/>
      <point x="1026.8349514563106" y="-303.7669902912621"/>
      <point x="1026.8349514563106" y="-41.4368932038835" type="curve" smooth="yes"/>
      <point x="1026.8349514563106" y="149.126213592233"/>
      <point x="883.0291262135922" y="206.36893203883494"/>
      <point x="623.3203883495146" y="206.36893203883494" type="curve" smooth="yes"/>
      <point x="582.0776699029126" y="206.36893203883494" type="line" smooth="yes"/>
      <point x="458.6407766990292" y="206.36893203883494"/>
      <point x="406.9126213592233" y="217.61165048543688"/>
      <point x="406.9126213592233" y="259.84466019417476" type="curve" smooth="yes"/>
      <point x="406.9126213592233" y="299.3398058252427"/>
      <point x="462.13592233009706" y="314.58252427184465"/>
      <point x="580.8349514563107" y="341.06796116504853" type="curve" smooth="yes"/>
      <point x="765.5533980582525" y="381.8058252427184"/>
      <point x="904.5825242718446" y="479.5339805825243"/>
      <point x="904.5825242718446" y="678.252427184466" type="curve" smooth="yes"/>
      <point x="904.5825242718446" y="789.9805825242719"/>
      <point x="862.3495145631067" y="878.2135922330098"/>
      <point x="768.4077669902913" y="934.2135922330096" type="curve"/>
      <point x="698.3495145631067" y="819.6504854368932" type="line"/>
      <point x="818.3300970873786" y="819.6504854368932"/>
      <point x="931.8058252427185" y="819.6504854368932"/>
      <point x="1058.2912621359224" y="819.6504854368932" type="curve"/>
      <point x="1058.2912621359224" y="999.7669902912621" type="line"/>
      <point x="774.8543689320388" y="999.7669902912621" type="line" smooth="yes"/>
      <point x="646.0582524271845" y="999.7669902912621"/>
      <point x="597.0485436893204" y="1022.0194174757281"/>
      <point x="489.7669902912621" y="1022.0194174757281" type="curve" smooth="yes"/>
      <point x="215.41747572815535" y="1022.0194174757281"/>
      <point x="73.94174757281553" y="880.9902912621359"/>
      <point x="73.94174757281553" y="692.252427184466" type="curve" smooth="yes"/>
      <point x="73.94174757281553" y="503.28155339805824"/>
      <point x="209.14563106796118" y="414.5242718446602"/>
      <point x="285.7087378640777" y="382.50485436893206" type="curve"/>
      <point x="285.7087378640777" y="363.49514563106794" type="line"/>
      <point x="200.44660194174756" y="326.25242718446606"/>
      <point x="165.6893203883495" y="266.4854368932039"/>
      <point x="165.6893203883495" y="200.48543689320388" type="curve" smooth="yes"/>
      <point x="165.6893203883495" y="107.74757281553397"/>
      <point x="235.18446601941747" y="63.72815533980582"/>
      <point x="269.72815533980577" y="53.47572815533981" type="curve"/>
      <point x="269.72815533980577" y="34.466019417475735" type="line"/>
      <point x="207.20388349514565" y="14.466019417475728"/>
      <point x="89.45631067961165" y="-44.019417475728154"/>
      <point x="89.45631067961165" y="-177.26213592233012" type="curve" smooth="yes"/>
      <point x="89.45631067961165" y="-294.2718446601942"/>
      <point x="180.4660194174757" y="-408.504854368932"/>
    </contour>
    <contour>
      <point x="512.2718446601942" y="-216.15533980582526" type="curve"/>
      <point x="376.3495145631068" y="-216.15533980582526"/>
      <point x="320.62135922330094" y="-166.44660194174756"/>
      <point x="320.62135922330094" y="-115.22330097087378" type="curve" smooth="yes"/>
      <point x="320.62135922330094" y="-50.0"/>
      <point x="427.3009708737864" y="-4.543689320388349"/>
      <point x="517.4951456310679" y="-0.038834951456308886" type="curve"/>
      <point x="550.2330097087379" y="-0.038834951456308886" type="line" smooth="yes"/>
      <point x="739.8834951456311" y="-0.038834951456308886"/>
      <point x="780.8543689320388" y="-32.77669902912621"/>
      <point x="780.8543689320388" y="-86.99029126213591" type="curve" smooth="yes"/>
      <point x="780.8543689320388" y="-130.97087378640776"/>
      <point x="692.9126213592233" y="-216.15533980582526"/>
    </contour>
    <contour>
      <point x="482.77669902912623" y="505.8252427184466" type="curve"/>
      <point x="395.84466019417476" y="521.0679611650485"/>
      <point x="315.1650485436893" y="577.5339805825244"/>
      <point x="315.1650485436893" y="666.9514563106795" type="curve" smooth="yes"/>
      <point x="315.1650485436893" y="758.3689320388349"/>
      <point x="401.0873786407767" y="810.8349514563107"/>
      <point x="487.7864077669903" y="810.8349514563107" type="curve"/>
      <point x="575.495145631068" y="810.8349514563107"/>
      <point x="668.6601941747573" y="761.8640776699029"/>
      <point x="668.6601941747573" y="656.2135922330098" type="curve" smooth="yes"/>
      <point x="668.6601941747573" y="553.3009708737865"/>
      <point x="557.747572815534" y="514.5631067961165"/>
    </contour>
  </outline>
</glyph>
<glyph name="h" format="2">
  <advance width="1153.7894736842106"/>
  <unicode hex="0068"/>
  <guideline x="126.15789473684211" y="737.3157894736842" angle="4.47079999999994"/>
  <anchor x="587.1578947368421" y="0.0" name="bottom"/>
  <anchor x="587.1578947368421" y="818.0" name="center"/>
  <anchor x="545.0526315789474" y="1456.5263157894738" name="top"/>
  <outline>
    <contour>
      <point x="136.31578947368422" y="0.0" type="curve"/>
      <point x="398.42105263157896" y="0.0" type="line"/>
      <point x="398.42105263157896" y="143.68421052631578"/>
      <point x="398.42105263157896" y="268.42105263157896"/>
      <point x="398.42105263157896" y="419.89473684210526" type="curve"/>
      <point x="398.42105263157896" y="633.1578947368421" type="line"/>
      <point x="452.63157894736844" y="715.2631578947369"/>
      <point x="525.2631578947369" y="781.8947368421052"/>
      <point x="624.6315789473684" y="781.8947368421052" type="curve" smooth="yes"/>
      <point x="738.0" y="781.8947368421052"/>
      <point x="774.8421052631579" y="715.578947368421"/>
      <point x="774.8421052631579" y="587.7894736842105" type="curve"/>
      <point x="774.8421052631579" y="419.89473684210526" type="line"/>
      <point x="774.8421052631579" y="272.2105263157895"/>
      <point x="774.8421052631579" y="143.68421052631578"/>
      <point x="774.8421052631579" y="0.0" type="curve"/>
      <point x="1036.9473684210527" y="0.0" type="line"/>
      <point x="1036.9473684210527" y="143.68421052631578"/>
      <point x="1036.9473684210527" y="272.2105263157895"/>
      <point x="1036.9473684210527" y="433.57894736842104" type="curve"/>
      <point x="1036.9473684210527" y="513.7894736842105"/>
      <point x="1036.9473684210527" y="580.7368421052631"/>
      <point x="1036.9473684210527" y="668.8421052631579" type="curve" smooth="yes"/>
      <point x="1036.9473684210527" y="902.1052631578947"/>
      <point x="936.1052631578947" y="1022.7368421052631"/>
      <point x="732.9473684210526" y="1022.7368421052631" type="curve" smooth="yes"/>
      <point x="582.8421052631579" y="1022.7368421052631"/>
      <point x="482.0" y="935.4736842105264"/>
      <point x="422.0" y="850.421052631579" type="curve"/>
      <point x="398.42105263157896" y="850.421052631579" type="line"/>
      <point x="398.42105263157896" y="986.9473684210526" type="line"/>
      <point x="398.42105263157896" y="1168.5263157894738"/>
      <point x="398.42105263157896" y="1331.7894736842106"/>
      <point x="398.42105263157896" y="1489.578947368421" type="curve"/>
      <point x="136.31578947368422" y="1465.157894736842" type="line"/>
      <point x="136.31578947368422" y="1308.6315789473683"/>
      <point x="136.31578947368422" y="1150.6315789473683"/>
      <point x="136.31578947368422" y="986.9473684210526" type="curve"/>
      <point x="136.31578947368422" y="433.57894736842104" type="line"/>
      <point x="136.31578947368422" y="268.42105263157896"/>
      <point x="136.31578947368422" y="143.68421052631578"/>
    </contour>
  </outline>
</glyph>
<glyph name="k" format="2">
  <advance width="1130.842105263158"/>
  <unicode hex="006B"/>
  <anchor x="573.8947368421052" y="0.0" name="bottom"/>
  <anchor x="573.8947368421052" y="1456.5263157894738" name="top"/>
  <outline>
    <contour>
      <point x="779.8947368421053" y="0.0" type="curve"/>
      <point x="1105.2631578947369" y="0.0" type="line"/>
      <point x="1002.0" y="120.3157894736842"/>
      <point x="896.7368421052631" y="240.73684210526315"/>
      <point x="793.4736842105262" y="361.05263157894734" type="curve"/>
      <point x="609.2631578947369" y="583.2631578947369" type="line"/>
      <point x="620.8421052631579" y="465.2631578947368" type="line"/>
      <point x="770.6315789473684" y="639.6842105263158" type="line"/>
      <point x="874.1052631578948" y="758.9473684210526"/>
      <point x="975.578947368421" y="877.1578947368421"/>
      <point x="1079.0526315789473" y="996.421052631579" type="curve"/>
      <point x="770.2105263157895" y="996.421052631579" type="line"/>
      <point x="700.421052631579" y="907.8947368421053"/>
      <point x="629.6842105263158" y="819.4736842105264"/>
      <point x="559.8947368421052" y="730.9473684210526" type="curve"/>
      <point x="445.4736842105263" y="586.7368421052631" type="line"/>
      <point x="374.9473684210526" y="586.7368421052631" type="line"/>
      <point x="374.9473684210526" y="410.7368421052632" type="line"/>
      <point x="438.8421052631579" y="410.7368421052632" type="line"/>
      <point x="571.1578947368421" y="252.94736842105263" type="line"/>
      <point x="640.7368421052631" y="168.6315789473684"/>
      <point x="710.3157894736842" y="84.3157894736842"/>
    </contour>
    <contour>
      <point x="136.31578947368422" y="0.0" type="curve"/>
      <point x="398.42105263157896" y="0.0" type="line"/>
      <point x="398.42105263157896" y="131.05263157894737"/>
      <point x="398.42105263157896" y="245.26315789473685"/>
      <point x="398.42105263157896" y="384.10526315789474" type="curve"/>
      <point x="398.42105263157896" y="986.9473684210526" type="line"/>
      <point x="398.42105263157896" y="1168.5263157894738"/>
      <point x="398.42105263157896" y="1331.7894736842106"/>
      <point x="398.42105263157896" y="1489.578947368421" type="curve"/>
      <point x="136.31578947368422" y="1465.157894736842" type="line"/>
      <point x="136.31578947368422" y="1308.6315789473683"/>
      <point x="136.31578947368422" y="1150.6315789473683"/>
      <point x="136.31578947368422" y="986.9473684210526" type="curve"/>
      <point x="136.31578947368422" y="433.57894736842104" type="line"/>
      <point x="136.31578947368422" y="268.42105263157896"/>
      <point x="136.31578947368422" y="143.68421052631578"/>
    </contour>
  </outline>
</glyph>
<glyph name="l" format="2">
  <advance width="534.7368421052631"/>
  <unicode hex="006C"/>
  <anchor x="267.36842105263156" y="0.0" name="bottom"/>
  <anchor x="272.63157894736844" y="818.0" name="center"/>
  <anchor x="267.36842105263156" y="1456.5263157894738" name="top"/>
  <anchor x="474.3157894736842" y="996.421052631579" name="topright"/>
  <outline>
    <contour>
      <point x="136.31578947368422" y="0.0" type="curve"/>
      <point x="398.42105263157896" y="0.0" type="line"/>
      <point x="398.42105263157896" y="143.68421052631578"/>
      <point x="398.42105263157896" y="268.42105263157896"/>
      <point x="398.42105263157896" y="433.57894736842104" type="curve"/>
      <point x="398.42105263157896" y="986.9473684210526" type="line"/>
      <point x="398.42105263157896" y="1168.5263157894738"/>
      <point x="398.42105263157896" y="1330.842105263158"/>
      <point x="398.42105263157896" y="1489.578947368421" type="curve"/>
      <point x="136.31578947368422" y="1465.157894736842" type="line"/>
      <point x="136.31578947368422" y="1309.578947368421"/>
      <point x="136.31578947368422" y="1150.6315789473683"/>
      <point x="136.31578947368422" y="986.9473684210526" type="curve"/>
      <point x="136.31578947368422" y="433.57894736842104" type="line"/>
      <point x="136.31578947368422" y="268.42105263157896"/>
      <point x="136.31578947368422" y="143.68421052631578"/>
    </contour>
  </outline>
</glyph>
<glyph name="m" format="2">
  <advance width="1745.0526315789473"/>
  <unicode hex="006D"/>
  <anchor x="884.6315789473684" y="0.0" name="bottom"/>
  <anchor x="884.6315789473684" y="996.421052631579" name="top"/>
  <outline>
    <contour>
      <point x="136.31578947368422" y="0.0" type="curve"/>
      <point x="398.42105263157896" y="0.0" type="line"/>
      <point x="398.42105263157896" y="143.68421052631578"/>
      <point x="398.42105263157896" y="268.42105263157896"/>
      <point x="398.42105263157896" y="419.89473684210526" type="curve"/>
      <point x="398.42105263157896" y="633.1578947368421" type="line"/>
      <point x="449.6842105263158" y="713.3684210526316"/>
      <point x="518.5263157894736" y="781.8947368421052"/>
      <point x="612.1052631578947" y="781.8947368421052" type="curve" smooth="yes"/>
      <point x="718.6315789473684" y="781.8947368421052"/>
      <point x="753.578947368421" y="715.578947368421"/>
      <point x="753.578947368421" y="587.7894736842105" type="curve"/>
      <point x="753.578947368421" y="419.89473684210526" type="line"/>
      <point x="753.578947368421" y="272.2105263157895"/>
      <point x="753.578947368421" y="143.68421052631578"/>
      <point x="753.578947368421" y="0.0" type="curve"/>
      <point x="1015.6842105263158" y="0.0" type="line"/>
      <point x="1015.6842105263158" y="143.68421052631578"/>
      <point x="1015.6842105263158" y="272.2105263157895"/>
      <point x="1015.6842105263158" y="433.57894736842104" type="curve"/>
      <point x="1015.6842105263158" y="513.7894736842105"/>
      <point x="1015.6842105263158" y="580.7368421052631"/>
      <point x="1015.6842105263158" y="668.8421052631579" type="curve" smooth="yes"/>
      <point x="1015.6842105263158" y="714.2105263157895"/>
      <point x="1011.578947368421" y="754.5263157894736"/>
      <point x="1004.421052631579" y="792.7368421052631" type="curve"/>
      <point x="986.6315789473684" y="796.5263157894736" type="line"/>
      <point x="958.421052631579" y="942.0"/>
      <point x="876.6315789473684" y="1022.7368421052631"/>
      <point x="720.3157894736842" y="1022.7368421052631" type="curve" smooth="yes"/>
      <point x="563.3684210526316" y="1022.7368421052631"/>
      <point x="457.89473684210526" y="929.1578947368421"/>
      <point x="392.5263157894737" y="834.5263157894736" type="curve"/>
      <point x="368.9473684210526" y="834.5263157894736" type="line"/>
      <point x="358.42105263157896" y="1009.7894736842105" type="line"/>
      <point x="136.31578947368422" y="996.421052631579" type="line"/>
      <point x="136.31578947368422" y="838.9473684210526"/>
      <point x="136.31578947368422" y="684.0"/>
      <point x="136.31578947368422" y="533.578947368421" type="curve"/>
      <point x="136.31578947368422" y="433.57894736842104" type="line"/>
      <point x="136.31578947368422" y="268.42105263157896"/>
      <point x="136.31578947368422" y="143.68421052631578"/>
    </contour>
    <contour>
      <point x="1366.1052631578948" y="0.0" type="curve"/>
      <point x="1628.2105263157894" y="0.0" type="line"/>
      <point x="1628.2105263157894" y="143.68421052631578"/>
      <point x="1628.2105263157894" y="272.2105263157895"/>
      <point x="1628.2105263157894" y="433.57894736842104" type="curve"/>
      <point x="1628.2105263157894" y="513.7894736842105"/>
      <point x="1628.2105263157894" y="580.7368421052631"/>
      <point x="1628.2105263157894" y="668.8421052631579" type="curve" smooth="yes"/>
      <point x="1628.2105263157894" y="898.3157894736842"/>
      <point x="1534.1052631578948" y="1022.7368421052631"/>
      <point x="1333.8947368421052" y="1022.7368421052631" type="curve" smooth="yes"/>
      <point x="1173.7894736842104" y="1022.7368421052631"/>
      <point x="1065.157894736842" y="929.1578947368421"/>
      <point x="994.9473684210526" y="831.6842105263158" type="curve"/>
      <point x="971.3684210526316" y="831.6842105263158" type="line"/>
      <point x="1009.8947368421052" y="633.1578947368421" type="line"/>
      <point x="1061.2631578947369" y="715.2631578947369"/>
      <point x="1131.0526315789473" y="781.8947368421052"/>
      <point x="1224.6315789473683" y="781.8947368421052" type="curve" smooth="yes"/>
      <point x="1331.157894736842" y="781.8947368421052"/>
      <point x="1366.1052631578948" y="715.578947368421"/>
      <point x="1366.1052631578948" y="587.7894736842105" type="curve"/>
      <point x="1366.1052631578948" y="419.89473684210526" type="line"/>
      <point x="1366.1052631578948" y="272.2105263157895"/>
      <point x="1366.1052631578948" y="143.68421052631578"/>
    </contour>
  </outline>
</glyph>
<glyph name="n" format="2">
  <advance width="1153.7894736842106"/>
  <unicode hex="006E"/>
  <anchor x="587.0526315789474" y="0.0" name="bottom"/>
  <anchor x="587.0526315789474" y="996.421052631579" name="top"/>
  <outline>
    <contour>
      <point x="136.31578947368422" y="0.0" type="curve"/>
      <point x="398.42105263157896" y="0.0" type="line"/>
      <point x="398.42105263157896" y="143.68421052631578"/>
      <point x="398.42105263157896" y="268.42105263157896"/>
      <point x="398.42105263157896" y="419.89473684210526" type="curve"/>
      <point x="398.42105263157896" y="633.1578947368421" type="line"/>
      <point x="452.63157894736844" y="715.2631578947369"/>
      <point x="525.2631578947369" y="781.8947368421052"/>
      <point x="624.6315789473684" y="781.8947368421052" type="curve" smooth="yes"/>
      <point x="738.0" y="781.8947368421052"/>
      <point x="774.8421052631579" y="715.578947368421"/>
      <point x="774.8421052631579" y="587.7894736842105" type="curve"/>
      <point x="774.8421052631579" y="419.89473684210526" type="line"/>
      <point x="774.8421052631579" y="272.2105263157895"/>
      <point x="774.8421052631579" y="143.68421052631578"/>
      <point x="774.8421052631579" y="0.0" type="curve"/>
      <point x="1036.9473684210527" y="0.0" type="line"/>
      <point x="1036.9473684210527" y="143.68421052631578"/>
      <point x="1036.9473684210527" y="272.2105263157895"/>
      <point x="1036.9473684210527" y="433.57894736842104" type="curve"/>
      <point x="1036.9473684210527" y="513.7894736842105"/>
      <point x="1036.9473684210527" y="580.7368421052631"/>
      <point x="1036.9473684210527" y="668.8421052631579" type="curve" smooth="yes"/>
      <point x="1036.9473684210527" y="902.1052631578947"/>
      <point x="936.1052631578947" y="1022.7368421052631"/>
      <point x="732.9473684210526" y="1022.7368421052631" type="curve" smooth="yes"/>
      <point x="569.1578947368421" y="1022.7368421052631"/>
      <point x="458.8421052631579" y="929.1578947368421"/>
      <point x="392.5263157894737" y="833.578947368421" type="curve"/>
      <point x="368.9473684210526" y="833.578947368421" type="line"/>
      <point x="358.42105263157896" y="1009.7894736842105" type="line"/>
      <point x="136.31578947368422" y="996.421052631579" type="line"/>
      <point x="136.31578947368422" y="838.9473684210526"/>
      <point x="136.31578947368422" y="684.0"/>
      <point x="136.31578947368422" y="533.578947368421" type="curve"/>
      <point x="136.31578947368422" y="433.57894736842104" type="line"/>
      <point x="136.31578947368422" y="268.42105263157896"/>
      <point x="136.31578947368422" y="143.68421052631578"/>
    </contour>
  </outline>
</glyph>
<glyph name="o" format="2">
  <advance width="1195.0526315789473"/>
  <unicode hex="006F"/>
  <anchor x="597.0526315789474" y="0.0" name="bottom"/>
  <anchor x="597.0526315789474" y="498.2105263157895" name="center"/>
  <anchor x="770.2105263157895" y="0.0" name="ogonek"/>
  <anchor x="597.0526315789474" y="996.421052631579" name="top"/>
  <anchor x="1054.9473684210527" y="996.421052631579" name="topright"/>
  <outline>
    <contour>
      <point x="602.1052631578947" y="-25.36842105263158" type="curve" smooth="yes"/>
      <point x="928.3157894736842" y="-25.36842105263158"/>
      <point x="1117.3684210526317" y="202.5263157894737"/>
      <point x="1117.3684210526317" y="502.0" type="curve" smooth="yes"/>
      <point x="1117.3684210526317" y="795.2631578947369"/>
      <point x="939.578947368421" y="1022.7368421052631"/>
      <point x="596.8421052631579" y="1022.7368421052631" type="curve" smooth="yes"/>
      <point x="263.1578947368421" y="1022.7368421052631"/>
      <point x="77.6842105263158" y="800.1052631578947"/>
      <point x="77.6842105263158" y="502.0" type="curve" smooth="yes"/>
      <point x="77.6842105263158" y="223.89473684210526"/>
      <point x="248.31578947368422" y="-25.36842105263158"/>
    </contour>
    <contour>
      <point x="601.0526315789474" y="191.26315789473682" type="curve"/>
      <point x="431.4736842105263" y="191.26315789473682"/>
      <point x="344.9473684210526" y="340.63157894736844"/>
      <point x="344.9473684210526" y="502.0" type="curve" smooth="yes"/>
      <point x="344.9473684210526" y="673.2631578947369"/>
      <point x="434.2105263157895" y="806.1052631578948"/>
      <point x="600.0" y="806.1052631578948" type="curve"/>
      <point x="750.9473684210526" y="806.1052631578948"/>
      <point x="850.1052631578948" y="690.3157894736842"/>
      <point x="850.1052631578948" y="502.0" type="curve" smooth="yes"/>
      <point x="850.1052631578948" y="340.63157894736844"/>
      <point x="768.7368421052631" y="191.26315789473682"/>
    </contour>
  </outline>
</glyph>
<glyph name="p" format="2">
  <advance width="1184.1052631578948"/>
  <unicode hex="0070"/>
  <outline>
    <contour>
      <point x="136.31578947368422" y="-392.2105263157895" type="curve"/>
      <point x="398.42105263157896" y="-384.0" type="line"/>
      <point x="398.42105263157896" y="-240.31578947368422"/>
      <point x="398.42105263157896" y="-115.57894736842105"/>
      <point x="398.42105263157896" y="35.89473684210526" type="curve"/>
      <point x="398.42105263157896" y="112.73684210526315" type="line"/>
      <point x="415.6842105263158" y="112.73684210526315" type="line"/>
      <point x="482.9473684210526" y="26.42105263157895"/>
      <point x="572.9473684210526" y="-25.36842105263158"/>
      <point x="697.0526315789474" y="-25.36842105263158" type="curve" smooth="yes"/>
      <point x="973.2631578947369" y="-25.36842105263158"/>
      <point x="1104.3157894736842" y="222.10526315789474"/>
      <point x="1104.3157894736842" y="500.10526315789474" type="curve" smooth="yes"/>
      <point x="1104.3157894736842" y="796.2105263157895"/>
      <point x="960.5263157894736" y="1022.7368421052631"/>
      <point x="694.1052631578947" y="1022.7368421052631" type="curve" smooth="yes"/>
      <point x="560.9473684210526" y="1022.7368421052631"/>
      <point x="458.9473684210526" y="964.421052631579"/>
      <point x="399.89473684210526" y="875.2631578947369" type="curve"/>
      <point x="377.36842105263156" y="875.2631578947369" type="line"/>
      <point x="370.0" y="1009.7894736842105" type="line"/>
      <point x="136.31578947368422" y="996.421052631579" type="line"/>
      <point x="136.31578947368422" y="838.9473684210526"/>
      <point x="136.31578947368422" y="684.0"/>
      <point x="136.31578947368422" y="533.578947368421" type="curve"/>
      <point x="136.31578947368422" y="49.578947368421055" type="line"/>
      <point x="136.31578947368422" y="-115.57894736842105"/>
      <point x="136.31578947368422" y="-248.52631578947367"/>
    </contour>
    <contour>
      <point x="601.2631578947369" y="199.68421052631578" type="curve"/>
      <point x="507.36842105263156" y="199.68421052631578"/>
      <point x="441.57894736842104" y="248.42105263157893"/>
      <point x="398.42105263157896" y="324.8421052631579" type="curve"/>
      <point x="398.42105263157896" y="692.2105263157895" type="line"/>
      <point x="444.7368421052631" y="758.6315789473684"/>
      <point x="520.1052631578947" y="794.5263157894738"/>
      <point x="599.3684210526316" y="794.5263157894738" type="curve"/>
      <point x="759.2631578947369" y="794.5263157894738"/>
      <point x="836.0" y="659.7894736842105"/>
      <point x="836.0" y="498.0" type="curve" smooth="yes"/>
      <point x="836.0" y="344.10526315789474"/>
      <point x="762.9473684210526" y="199.68421052631578"/>
    </contour>
  </outline>
</glyph>
<glyph name="q" format="2">
  <advance width="1169.3684210526317"/>
  <unicode hex="0071"/>
  <outline>
    <contour>
      <point x="785.6842105263158" y="-392.2105263157895" type="curve"/>
      <point x="1047.7894736842104" y="-384.0" type="line"/>
      <point x="1047.7894736842104" y="-240.31578947368422"/>
      <point x="1047.7894736842104" y="-115.57894736842105"/>
      <point x="1047.7894736842104" y="49.578947368421055" type="curve"/>
      <point x="1047.7894736842104" y="533.578947368421" type="line"/>
      <point x="1047.7894736842104" y="697.578947368421"/>
      <point x="1047.7894736842104" y="847.2631578947369"/>
      <point x="1047.7894736842104" y="1009.7894736842105" type="curve"/>
      <point x="814.1052631578948" y="996.421052631579" type="line"/>
      <point x="806.7368421052631" y="875.2631578947369" type="line"/>
      <point x="784.2105263157895" y="875.2631578947369" type="line"/>
      <point x="724.2105263157895" y="965.3684210526316"/>
      <point x="623.1578947368421" y="1022.7368421052631"/>
      <point x="490.0" y="1022.7368421052631" type="curve" smooth="yes"/>
      <point x="223.57894736842104" y="1022.7368421052631"/>
      <point x="79.78947368421052" y="796.2105263157895"/>
      <point x="79.78947368421052" y="500.10526315789474" type="curve" smooth="yes"/>
      <point x="79.78947368421052" y="222.10526315789474"/>
      <point x="210.8421052631579" y="-25.36842105263158"/>
      <point x="487.0526315789474" y="-25.36842105263158" type="curve" smooth="yes"/>
      <point x="611.1578947368421" y="-25.36842105263158"/>
      <point x="700.2105263157895" y="26.42105263157895"/>
      <point x="768.421052631579" y="113.6842105263158" type="curve"/>
      <point x="785.6842105263158" y="113.6842105263158" type="line"/>
      <point x="785.6842105263158" y="35.89473684210526" type="line"/>
      <point x="785.6842105263158" y="-115.57894736842105"/>
      <point x="785.6842105263158" y="-248.52631578947367"/>
    </contour>
    <contour>
      <point x="582.8421052631579" y="199.68421052631578" type="curve"/>
      <point x="421.1578947368421" y="199.68421052631578"/>
      <point x="348.10526315789474" y="344.10526315789474"/>
      <point x="348.10526315789474" y="498.0" type="curve" smooth="yes"/>
      <point x="348.10526315789474" y="659.7894736842105"/>
      <point x="424.8421052631579" y="794.5263157894738"/>
      <point x="584.7368421052631" y="794.5263157894738" type="curve"/>
      <point x="664.0" y="794.5263157894738"/>
      <point x="739.3684210526316" y="758.6315789473684"/>
      <point x="785.6842105263158" y="692.2105263157895" type="curve"/>
      <point x="785.6842105263158" y="324.8421052631579" type="line"/>
      <point x="742.5263157894736" y="248.42105263157893"/>
      <point x="676.7368421052631" y="199.68421052631578"/>
    </contour>
  </outline>
</glyph>
<glyph name="r" format="2">
  <advance width="818.0"/>
  <unicode hex="0072"/>
  <anchor x="267.36842105263156" y="0.0" name="bottom"/>
  <anchor x="469.2631578947368" y="996.421052631579" name="top"/>
  <outline>
    <contour>
      <point x="136.31578947368422" y="0.0" type="curve"/>
      <point x="398.42105263157896" y="0.0" type="line"/>
      <point x="398.42105263157896" y="143.68421052631578"/>
      <point x="398.42105263157896" y="268.42105263157896"/>
      <point x="398.42105263157896" y="419.89473684210526" type="curve"/>
      <point x="398.42105263157896" y="567.1578947368421" type="line"/>
      <point x="453.57894736842104" y="730.8421052631579"/>
      <point x="551.3684210526316" y="757.6842105263158"/>
      <point x="626.2105263157895" y="757.6842105263158" type="curve" smooth="yes"/>
      <point x="673.2631578947369" y="757.6842105263158"/>
      <point x="708.7368421052631" y="753.8947368421052"/>
      <point x="758.3157894736842" y="748.2105263157895" type="curve"/>
      <point x="781.1578947368421" y="1004.6315789473684" type="line"/>
      <point x="747.1578947368421" y="1017.7894736842105"/>
      <point x="706.9473684210526" y="1022.7368421052631"/>
      <point x="675.4736842105264" y="1022.7368421052631" type="curve" smooth="yes"/>
      <point x="585.6842105263158" y="1022.7368421052631"/>
      <point x="470.3157894736842" y="988.7368421052631"/>
      <point x="391.57894736842104" y="821.2631578947369" type="curve"/>
      <point x="368.9473684210526" y="821.2631578947369" type="line"/>
      <point x="358.42105263157896" y="1009.7894736842105" type="line"/>
      <point x="136.31578947368422" y="996.421052631579" type="line"/>
      <point x="136.31578947368422" y="838.9473684210526"/>
      <point x="136.31578947368422" y="684.0"/>
      <point x="136.31578947368422" y="533.578947368421" type="curve"/>
      <point x="136.31578947368422" y="433.57894736842104" type="line"/>
      <point x="136.31578947368422" y="268.42105263157896"/>
      <point x="136.31578947368422" y="143.68421052631578"/>
    </contour>
  </outline>
</glyph>
<glyph name="s" format="2">
  <advance width="926.2912621359224"/>
  <unicode hex="0073"/>
  <anchor x="466.77669902912623" y="0.0" name="bottom"/>
  <anchor x="466.77669902912623" y="997.009708737864" name="top"/>
  <outline>
    <contour>
      <point x="448.50485436893206" y="-25.009708737864077" type="curve" smooth="yes"/>
      <point x="739.3203883495146" y="-25.009708737864077"/>
      <point x="858.3495145631068" y="105.49514563106796"/>
      <point x="858.3495145631068" y="297.00970873786406" type="curve" smooth="yes"/>
      <point x="858.3495145631068" y="475.96116504854365"/>
      <point x="754.8932038834952" y="526.9902912621359"/>
      <point x="544.8543689320388" y="585.242718446602" type="curve" smooth="yes"/>
      <point x="395.18446601941747" y="626.4660194174758"/>
      <point x="364.6990291262136" y="655.4563106796116"/>
      <point x="364.6990291262136" y="712.1747572815534" type="curve" smooth="yes"/>
      <point x="364.6990291262136" y="781.8640776699029"/>
      <point x="421.65048543689323" y="808.3495145631068"/>
      <point x="493.1067961165048" y="808.3495145631068" type="curve"/>
      <point x="559.3398058252427" y="808.3495145631068"/>
      <point x="687.5922330097087" y="778.8543689320388"/>
      <point x="779.5922330097087" y="720.3495145631068" type="curve"/>
      <point x="798.6019417475728" y="950.5242718446602" type="line"/>
      <point x="724.8349514563107" y="985.7669902912621"/>
      <point x="594.0582524271845" y="1021.7669902912621"/>
      <point x="452.75728155339806" y="1021.7669902912621" type="curve" smooth="yes"/>
      <point x="234.4466019417476" y="1021.7669902912621"/>
      <point x="95.68932038834951" y="906.252427184466"/>
      <point x="95.68932038834951" y="706.9902912621359" type="curve" smooth="yes"/>
      <point x="95.68932038834951" y="529.0291262135922"/>
      <point x="197.14563106796118" y="459.495145631068"/>
      <point x="369.43689320388347" y="414.73786407766994" type="curve" smooth="yes"/>
      <point x="536.368932038835" y="371.00970873786406"/>
      <point x="591.8446601941748" y="350.5242718446602"/>
      <point x="591.8446601941748" y="289.80582524271847" type="curve" smooth="yes"/>
      <point x="591.8446601941748" y="201.88349514563106"/>
      <point x="521.9029126213592" y="185.88349514563106"/>
      <point x="436.6990291262136" y="185.88349514563106" type="curve"/>
      <point x="323.22330097087377" y="185.88349514563106"/>
      <point x="201.20388349514565" y="220.64077669902912"/>
      <point x="111.70873786407766" y="273.6504854368932" type="curve"/>
      <point x="94.69902912621359" y="44.23300970873787" type="line"/>
      <point x="178.6990291262136" y="4.737864077669903"/>
      <point x="308.4466019417476" y="-25.009708737864077"/>
    </contour>
  </outline>
</glyph>
<glyph name="u" format="2">
  <advance width="1134.842105263158"/>
  <unicode hex="0075"/>
  <anchor x="565.7894736842105" y="0.0" name="bottom"/>
  <anchor x="1012.7368421052631" y="0.0" name="ogonek"/>
  <anchor x="565.7894736842105" y="996.421052631579" name="top"/>
  <anchor x="1096.0" y="996.421052631579" name="topright"/>
  <outline>
    <contour>
      <point x="420.8421052631579" y="-25.36842105263158" type="curve" smooth="yes"/>
      <point x="579.8947368421053" y="-25.36842105263158"/>
      <point x="690.2105263157895" y="68.21052631578948"/>
      <point x="756.5263157894736" y="163.78947368421052" type="curve"/>
      <point x="780.1052631578948" y="163.78947368421052" type="line"/>
      <point x="790.6315789473684" y="0.0" type="line"/>
      <point x="1012.7368421052631" y="0.0" type="line"/>
      <point x="1012.7368421052631" y="143.68421052631578"/>
      <point x="1012.7368421052631" y="268.42105263157896"/>
      <point x="1012.7368421052631" y="433.57894736842104" type="curve"/>
      <point x="1012.7368421052631" y="544.1052631578947" type="line"/>
      <point x="1012.7368421052631" y="726.1052631578947"/>
      <point x="1012.7368421052631" y="852.7368421052631"/>
      <point x="1012.7368421052631" y="996.421052631579" type="curve"/>
      <point x="750.6315789473684" y="996.421052631579" type="line"/>
      <point x="750.6315789473684" y="852.7368421052631"/>
      <point x="750.6315789473684" y="726.1052631578947"/>
      <point x="750.6315789473684" y="575.6842105263158" type="curve"/>
      <point x="750.6315789473684" y="358.9473684210526" type="line"/>
      <point x="696.421052631579" y="276.8421052631579"/>
      <point x="623.7894736842105" y="210.21052631578945"/>
      <point x="529.1578947368421" y="210.21052631578945" type="curve" smooth="yes"/>
      <point x="415.7894736842105" y="210.21052631578945"/>
      <point x="378.9473684210526" y="276.52631578947364"/>
      <point x="378.9473684210526" y="404.3157894736842" type="curve"/>
      <point x="378.9473684210526" y="575.6842105263158" type="line"/>
      <point x="378.9473684210526" y="726.1052631578947"/>
      <point x="378.9473684210526" y="860.9473684210526"/>
      <point x="378.9473684210526" y="1004.6315789473684" type="curve"/>
      <point x="116.84210526315789" y="996.421052631579" type="line"/>
      <point x="116.84210526315789" y="852.7368421052631"/>
      <point x="116.84210526315789" y="736.6315789473684"/>
      <point x="116.84210526315789" y="544.1052631578947" type="curve"/>
      <point x="116.84210526315789" y="475.57894736842104"/>
      <point x="116.84210526315789" y="416.63157894736844"/>
      <point x="116.84210526315789" y="328.5263157894737" type="curve" smooth="yes"/>
      <point x="116.84210526315789" y="95.26315789473685"/>
      <point x="217.68421052631578" y="-25.36842105263158"/>
    </contour>
  </outline>
</glyph>
<glyph name="v" format="2">
  <advance width="1069.578947368421"/>
  <unicode hex="0076"/>
  <outline>
    <contour>
      <point x="393.2631578947368" y="0.0" type="curve"/>
      <point x="678.3157894736842" y="0.0" type="line"/>
      <point x="723.1578947368421" y="125.05263157894737"/>
      <point x="767.0526315789474" y="249.1578947368421"/>
      <point x="811.8947368421052" y="374.2105263157895" type="curve"/>
      <point x="875.6842105263158" y="552.3157894736842" type="line"/>
      <point x="928.5263157894736" y="699.3684210526316"/>
      <point x="982.3157894736842" y="849.3684210526316"/>
      <point x="1035.157894736842" y="996.421052631579" type="curve"/>
      <point x="756.421052631579" y="996.421052631579" type="line"/>
      <point x="715.8947368421053" y="856.7368421052631"/>
      <point x="673.2631578947369" y="712.6315789473684"/>
      <point x="629.7894736842105" y="563.6842105263158" type="curve"/>
      <point x="548.6315789473684" y="283.6842105263158" type="line"/>
      <point x="526.1052631578947" y="283.6842105263158" type="line"/>
      <point x="444.9473684210526" y="563.6842105263158" type="line"/>
      <point x="401.4736842105263" y="712.6315789473684"/>
      <point x="359.89473684210526" y="856.7368421052631"/>
      <point x="317.36842105263156" y="1004.6315789473684" type="curve"/>
      <point x="34.421052631578945" y="996.421052631579" type="line"/>
      <point x="87.26315789473685" y="850.3157894736842"/>
      <point x="141.05263157894737" y="700.3157894736842"/>
      <point x="193.89473684210526" y="554.2105263157895" type="curve"/>
      <point x="257.6842105263158" y="377.1578947368421" type="line"/>
      <point x="301.57894736842104" y="254.0"/>
      <point x="348.42105263157896" y="125.05263157894737"/>
    </contour>
  </outline>
</glyph>
<glyph name="w" format="2">
  <advance width="1644.5263157894738"/>
  <unicode hex="0077"/>
  <anchor x="819.8947368421052" y="0.0" name="bottom"/>
  <anchor x="819.8947368421052" y="996.421052631579" name="top"/>
  <outline>
    <contour>
      <point x="348.3157894736842" y="0.0" type="curve"/>
      <point x="632.421052631579" y="0.0" type="line"/>
      <point x="666.2105263157895" y="129.4736842105263"/>
      <point x="703.8947368421052" y="270.7368421052632"/>
      <point x="736.7368421052631" y="396.3157894736842" type="curve"/>
      <point x="801.4736842105264" y="642.5263157894738" type="line"/>
      <point x="821.8947368421052" y="642.5263157894738" type="line"/>
      <point x="887.6842105263158" y="399.2631578947369" type="line"/>
      <point x="922.5263157894736" y="273.6842105263158"/>
      <point x="962.2105263157895" y="129.4736842105263"/>
      <point x="997.0526315789474" y="0.0" type="curve"/>
      <point x="1293.578947368421" y="0.0" type="line"/>
      <point x="1332.5263157894738" y="123.05263157894737"/>
      <point x="1373.4736842105262" y="252.10526315789474"/>
      <point x="1414.421052631579" y="381.1578947368421" type="curve"/>
      <point x="1470.3157894736842" y="556.2105263157895" type="line"/>
      <point x="1517.2631578947369" y="702.3157894736842"/>
      <point x="1563.157894736842" y="848.3157894736842"/>
      <point x="1610.1052631578948" y="996.421052631579" type="curve"/>
      <point x="1328.1052631578948" y="996.421052631579" type="line"/>
      <point x="1296.2105263157896" y="867.1578947368421"/>
      <point x="1254.6315789473683" y="701.3684210526316"/>
      <point x="1218.842105263158" y="557.2631578947369" type="curve"/>
      <point x="1148.2105263157894" y="273.0526315789474" type="line"/>
      <point x="1127.6842105263158" y="273.0526315789474" type="line"/>
      <point x="1057.0526315789473" y="554.2105263157895" type="line"/>
      <point x="1021.2631578947369" y="700.3157894736842"/>
      <point x="982.5263157894736" y="854.3157894736842"/>
      <point x="946.7368421052631" y="996.421052631579" type="curve"/>
      <point x="700.8421052631579" y="996.421052631579" type="line"/>
      <point x="664.1052631578947" y="847.4736842105264"/>
      <point x="627.2631578947369" y="699.4736842105264"/>
      <point x="591.4736842105264" y="552.3157894736842" type="curve"/>
      <point x="522.7368421052631" y="273.0526315789474" type="line"/>
      <point x="502.2105263157895" y="273.0526315789474" type="line"/>
      <point x="431.4736842105263" y="547.578947368421" type="line"/>
      <point x="393.6842105263158" y="693.6842105263158"/>
      <point x="351.0526315789474" y="859.4736842105264"/>
      <point x="313.2631578947368" y="1004.6315789473684" type="curve"/>
      <point x="34.421052631578945" y="996.421052631579" type="line"/>
      <point x="81.26315789473685" y="847.3684210526316"/>
      <point x="126.10526315789474" y="704.3157894736842"/>
      <point x="172.94736842105263" y="556.2105263157895" type="curve"/>
      <point x="228.73684210526315" y="379.1578947368421" type="line"/>
      <point x="269.57894736842104" y="251.1578947368421"/>
      <point x="309.4736842105263" y="125.05263157894737"/>
    </contour>
  </outline>
</glyph>
<glyph name="x" format="2">
  <advance width="1115.3684210526317"/>
  <unicode hex="0078"/>
  <outline>
    <contour>
      <point x="44.631578947368425" y="0.0" type="curve"/>
      <point x="334.42105263157896" y="0.0" type="line"/>
      <point x="377.89473684210526" y="81.15789473684211"/>
      <point x="408.7368421052631" y="137.3684210526316"/>
      <point x="452.2105263157895" y="218.5263157894737" type="curve"/>
      <point x="533.2631578947369" y="369.7894736842105" type="line"/>
      <point x="551.6842105263158" y="369.7894736842105" type="line"/>
      <point x="642.5263157894736" y="210.5263157894737" type="line"/>
      <point x="686.9473684210526" y="133.47368421052633"/>
      <point x="718.8421052631579" y="77.05263157894737"/>
      <point x="763.2631578947369" y="0.0" type="curve"/>
      <point x="1077.0526315789473" y="0.0" type="line"/>
      <point x="987.578947368421" y="132.31578947368422"/>
      <point x="932.9473684210526" y="213.4736842105263"/>
      <point x="867.3684210526316" y="309.6842105263158" type="curve"/>
      <point x="708.3157894736842" y="545.2631578947369" type="line"/>
      <point x="721.8947368421052" y="486.7368421052632" type="line"/>
      <point x="864.1052631578948" y="702.0" type="line"/>
      <point x="930.7368421052631" y="803.1578947368421"/>
      <point x="971.578947368421" y="865.2631578947369"/>
      <point x="1058.1052631578948" y="996.421052631579" type="curve"/>
      <point x="760.9473684210526" y="996.421052631579" type="line"/>
      <point x="716.421052631579" y="914.2105263157895"/>
      <point x="683.4736842105264" y="854.8421052631579"/>
      <point x="641.7894736842105" y="777.4736842105264" type="curve"/>
      <point x="562.421052631579" y="633.0526315789474" type="line"/>
      <point x="542.8421052631579" y="633.0526315789474" type="line"/>
      <point x="461.36842105263156" y="778.6315789473684" type="line"/>
      <point x="418.63157894736844" y="856.0"/>
      <point x="383.57894736842104" y="920.6315789473684"/>
      <point x="336.10526315789474" y="1004.6315789473684" type="curve"/>
      <point x="43.05263157894737" y="996.421052631579" type="line"/>
      <point x="123.36842105263159" y="871.3684210526316"/>
      <point x="170.10526315789474" y="797.1578947368421"/>
      <point x="234.5263157894737" y="697.1578947368421" type="curve"/>
      <point x="371.4736842105263" y="482.94736842105266" type="line"/>
      <point x="370.5263157894737" y="543.3684210526316" type="line"/>
      <point x="232.8421052631579" y="313.7894736842105" type="line"/>
      <point x="170.42105263157896" y="210.52631578947367"/>
      <point x="126.84210526315789" y="137.3684210526316"/>
    </contour>
  </outline>
</glyph>
<glyph name="y" format="2">
  <advance width="1080.7368421052631"/>
  <unicode hex="0079"/>
  <anchor x="845.578947368421" y="0.0" name="bottom"/>
  <anchor x="540.3157894736842" y="996.421052631579" name="top"/>
  <outline>
    <contour>
      <point x="237.89473684210526" y="-392.2105263157895" type="curve"/>
      <point x="510.10526315789474" y="-384.0" type="line"/>
      <point x="566.0" y="-240.0"/>
      <point x="630.9473684210526" y="-73.78947368421052"/>
      <point x="729.7894736842105" y="180.21052631578948" type="curve"/>
      <point x="838.6315789473684" y="460.3157894736842" type="line"/>
      <point x="935.4736842105262" y="711.3684210526316"/>
      <point x="984.421052631579" y="834.421052631579"/>
      <point x="1046.3157894736842" y="996.421052631579" type="curve"/>
      <point x="766.3157894736842" y="996.421052631579" type="line"/>
      <point x="720.8421052631579" y="849.3684210526316"/>
      <point x="677.3684210526316" y="707.3684210526316"/>
      <point x="631.8947368421053" y="558.421052631579" type="curve"/>
      <point x="544.8421052631579" y="275.2631578947368" type="line"/>
      <point x="522.3157894736842" y="275.2631578947368" type="line"/>
      <point x="443.0526315789474" y="558.5263157894736" type="line"/>
      <point x="400.52631578947364" y="710.5263157894736"/>
      <point x="359.89473684210526" y="852.6315789473684"/>
      <point x="317.36842105263156" y="1004.6315789473684" type="curve"/>
      <point x="34.421052631578945" y="996.421052631579" type="line"/>
      <point x="85.26315789473685" y="853.3684210526316"/>
      <point x="140.10526315789474" y="701.3684210526316"/>
      <point x="190.94736842105263" y="558.3157894736842" type="curve"/>
      <point x="254.73684210526315" y="378.3157894736842" type="line"/>
      <point x="302.63157894736844" y="245.26315789473685"/>
      <point x="353.4736842105263" y="103.26315789473684"/>
      <point x="402.3157894736842" y="-33.78947368421053" type="curve"/>
      <point x="402.3157894736842" y="18.31578947368421" type="line"/>
      <point x="349.2631578947368" y="-116.10526315789474"/>
      <point x="290.94736842105266" y="-257.7894736842105"/>
    </contour>
  </outline>
</glyph>
<glyph name="z" format="2">
  <advance width="1020.8421052631579"/>
  <unicode hex="007A"/>
  <guideline x="205.89473684210526" y="289.0" angle="232.7447"/>
  <guideline x="302.10526315789474" y="213.94736842105263" angle="52.34430000000003"/>
  <anchor x="507.4736842105263" y="0.0" name="bottom"/>
  <anchor x="507.4736842105263" y="498.2105263157895" name="center"/>
  <anchor x="507.4736842105263" y="996.421052631579" name="top"/>
  <outline>
    <contour>
      <point x="66.94736842105263" y="0.0" type="line"/>
      <point x="957.6842105263158" y="0.0" type="line"/>
      <point x="957.6842105263158" y="194.94736842105263" type="line"/>
      <point x="836.0" y="194.94736842105263"/>
      <point x="671.7894736842105" y="194.94736842105263"/>
      <point x="572.8421052631579" y="194.94736842105263" type="curve"/>
      <point x="354.2105263157895" y="194.94736842105263" type="line"/>
      <point x="382.1052631578947" y="136.94736842105263" type="line"/>
      <point x="655.7894736842105" y="494.2105263157895" type="line"/>
      <point x="744.8421052631579" y="610.9473684210526"/>
      <point x="855.4736842105264" y="755.1578947368421"/>
      <point x="927.8947368421052" y="848.3157894736842" type="curve"/>
      <point x="927.8947368421052" y="996.421052631579" type="line"/>
      <point x="74.3157894736842" y="996.421052631579" type="line"/>
      <point x="74.3157894736842" y="800.421052631579" type="line"/>
      <point x="206.94736842105263" y="800.421052631579"/>
      <point x="375.2631578947369" y="800.421052631579"/>
      <point x="473.2631578947369" y="800.421052631579" type="curve"/>
      <point x="673.2631578947369" y="800.421052631579" type="line"/>
      <point x="638.2105263157895" y="875.3684210526316" type="line"/>
      <point x="354.9473684210526" y="503.2631578947368" type="line"/>
      <point x="268.7368421052632" y="389.2631578947368"/>
      <point x="168.8421052631579" y="258.7368421052632"/>
      <point x="66.94736842105263" y="125.1578947368421" type="curve"/>
    </contour>
  </outline>
</glyph>
<glyph name="braceleft" format="2">
  <advance width="868.2105263157895"/>
  <unicode hex="007B"/>
  <outline>
    <contour>
      <point x="633.1578947368421" y="-242.94736842105263" type="curve" smooth="yes"/>
      <point x="827.1578947368421" y="-242.94736842105263" type="line"/>
      <point x="827.1578947368421" y="-32.42105263157896" type="line"/>
      <point x="759.1578947368421" y="-32.42105263157896"/>
      <point x="706.1052631578947" y="-32.42105263157896"/>
      <point x="672.1052631578947" y="-32.42105263157896" type="curve"/>
      <point x="567.2631578947369" y="-32.42105263157896"/>
      <point x="511.2631578947368" y="19.89473684210526"/>
      <point x="511.2631578947368" y="117.57894736842104" type="curve" smooth="yes"/>
      <point x="511.2631578947368" y="363.89473684210526" type="line" smooth="yes"/>
      <point x="511.2631578947368" y="518.8421052631579"/>
      <point x="449.2631578947368" y="590.3157894736842"/>
      <point x="332.52631578947364" y="639.8947368421053" type="curve"/>
      <point x="332.52631578947364" y="661.3684210526316" type="line"/>
      <point x="449.2631578947368" y="711.0526315789474"/>
      <point x="511.2631578947368" y="779.2631578947369"/>
      <point x="511.2631578947368" y="936.421052631579" type="curve" smooth="yes"/>
      <point x="511.2631578947368" y="1183.6842105263158" type="line" smooth="yes"/>
      <point x="511.2631578947368" y="1281.3684210526317"/>
      <point x="567.2631578947369" y="1333.6842105263158"/>
      <point x="672.1052631578947" y="1333.6842105263158" type="curve"/>
      <point x="707.0526315789474" y="1333.6842105263158"/>
      <point x="760.0" y="1333.6842105263158"/>
      <point x="821.8947368421052" y="1333.6842105263158" type="curve"/>
      <point x="821.8947368421052" y="1544.2105263157894" type="line"/>
      <point x="633.1578947368421" y="1544.2105263157894" type="line" smooth="yes"/>
      <point x="407.7894736842105" y="1544.2105263157894"/>
      <point x="271.36842105263156" y="1431.0526315789473"/>
      <point x="271.36842105263156" y="1228.9473684210527" type="curve"/>
      <point x="271.36842105263156" y="1128.2105263157894"/>
      <point x="271.36842105263156" y="1028.5263157894738"/>
      <point x="271.36842105263156" y="927.7894736842105" type="curve"/>
      <point x="271.36842105263156" y="799.3684210526316"/>
      <point x="196.94736842105263" y="744.421052631579"/>
      <point x="105.47368421052632" y="744.421052631579" type="curve" smooth="yes"/>
      <point x="30.526315789473685" y="744.421052631579" type="line"/>
      <point x="30.526315789473685" y="555.8947368421053" type="line"/>
      <point x="105.47368421052632" y="555.8947368421053" type="line" smooth="yes"/>
      <point x="196.94736842105263" y="555.8947368421053"/>
      <point x="271.36842105263156" y="500.94736842105266"/>
      <point x="271.36842105263156" y="372.5263157894737" type="curve"/>
      <point x="271.36842105263156" y="271.7894736842105"/>
      <point x="271.36842105263156" y="173.05263157894737"/>
      <point x="271.36842105263156" y="72.3157894736842" type="curve"/>
      <point x="271.36842105263156" y="-129.78947368421052"/>
      <point x="407.7894736842105" y="-242.94736842105263"/>
    </contour>
  </outline>
</glyph>
<glyph name="bar" format="2">
  <advance width="554.7368421052631"/>
  <unicode hex="007C"/>
  <outline>
    <contour>
      <point x="163.1578947368421" y="-318.5263157894737" type="curve"/>
      <point x="391.57894736842104" y="-318.5263157894737" type="line"/>
      <point x="391.57894736842104" y="-82.52631578947368"/>
      <point x="391.57894736842104" y="123.47368421052632"/>
      <point x="391.57894736842104" y="339.4736842105263" type="curve"/>
      <point x="391.57894736842104" y="903.4736842105264" type="line"/>
      <point x="391.57894736842104" y="1119.4736842105262"/>
      <point x="391.57894736842104" y="1325.4736842105262"/>
      <point x="391.57894736842104" y="1561.4736842105262" type="curve"/>
      <point x="163.1578947368421" y="1561.4736842105262" type="line"/>
      <point x="163.1578947368421" y="1325.4736842105262"/>
      <point x="163.1578947368421" y="1119.4736842105262"/>
      <point x="163.1578947368421" y="903.4736842105264" type="curve"/>
      <point x="163.1578947368421" y="339.4736842105263" type="line"/>
      <point x="163.1578947368421" y="123.47368421052632"/>
      <point x="163.1578947368421" y="-82.52631578947368"/>
    </contour>
  </outline>
</glyph>
<glyph name="asciitilde" format="2">
  <advance width="1151.578947368421"/>
  <unicode hex="007E"/>
  <outline>
    <contour>
      <point x="804.1052631578947" y="419.6842105263158" type="curve" smooth="yes"/>
      <point x="946.7368421052631" y="419.6842105263158"/>
      <point x="1043.157894736842" y="546.1052631578947"/>
      <point x="1043.157894736842" y="757.4736842105264" type="curve"/>
      <point x="884.1052631578948" y="757.4736842105264" type="line"/>
      <point x="877.7894736842105" y="685.4736842105264"/>
      <point x="838.0" y="646.9473684210526"/>
      <point x="774.0" y="646.9473684210526" type="curve"/>
      <point x="661.4736842105264" y="646.9473684210526"/>
      <point x="540.3157894736842" y="792.9473684210526"/>
      <point x="356.8421052631579" y="792.9473684210526" type="curve" smooth="yes"/>
      <point x="207.89473684210526" y="792.9473684210526"/>
      <point x="108.42105263157895" y="665.4736842105264"/>
      <point x="108.42105263157895" y="455.1578947368421" type="curve"/>
      <point x="267.4736842105263" y="455.1578947368421" type="line"/>
      <point x="273.7894736842105" y="527.1578947368421"/>
      <point x="317.6842105263158" y="565.6842105263158"/>
      <point x="383.7894736842105" y="565.6842105263158" type="curve"/>
      <point x="491.05263157894734" y="565.6842105263158"/>
      <point x="617.4736842105264" y="419.6842105263158"/>
    </contour>
  </outline>
</glyph>
<glyph name="cent" format="2">
  <advance width="974.5263157894736"/>
  <unicode hex="00A2"/>
  <anchor x="563.1578947368421" y="0.0" name="bottom"/>
  <anchor x="554.6315789473684" y="996.421052631579" name="top"/>
  <outline>
    <contour>
      <point x="476.5263157894737" y="-274.0" type="curve"/>
      <point x="661.8947368421052" y="-274.0" type="line"/>
      <point x="661.8947368421052" y="-41.1578947368421"/>
      <point x="661.8947368421052" y="166.94736842105263"/>
      <point x="661.8947368421052" y="384.0" type="curve"/>
      <point x="661.8947368421052" y="593.2631578947369" type="line"/>
      <point x="661.8947368421052" y="809.2631578947369"/>
      <point x="661.8947368421052" y="1015.2631578947369"/>
      <point x="661.8947368421052" y="1251.2631578947369" type="curve"/>
      <point x="476.5263157894737" y="1251.2631578947369" type="line"/>
      <point x="476.5263157894737" y="1015.2631578947369"/>
      <point x="476.5263157894737" y="809.2631578947369"/>
      <point x="476.5263157894737" y="593.2631578947369" type="curve"/>
      <point x="476.5263157894737" y="384.0" type="line"/>
      <point x="476.5263157894737" y="168.0"/>
      <point x="476.5263157894737" y="-38.0"/>
    </contour>
    <contour>
      <point x="600.6315789473684" y="-21.157894736842106" type="curve" smooth="yes"/>
      <point x="734.1052631578947" y="-21.157894736842106"/>
      <point x="831.7894736842105" y="3.2631578947368425"/>
      <point x="900.1052631578947" y="33.89473684210526" type="curve"/>
      <point x="885.0526315789474" y="262.9473684210526" type="line"/>
      <point x="814.8421052631579" y="217.36842105263156"/>
      <point x="736.7368421052631" y="196.52631578947367"/>
      <point x="658.5263157894736" y="196.52631578947367" type="curve" smooth="yes"/>
      <point x="453.4736842105263" y="196.52631578947367"/>
      <point x="344.9473684210526" y="326.10526315789474"/>
      <point x="344.9473684210526" y="504.42105263157896" type="curve" smooth="yes"/>
      <point x="344.9473684210526" y="683.6842105263158"/>
      <point x="452.3157894736842" y="797.6842105263158"/>
      <point x="617.2631578947369" y="797.6842105263158" type="curve"/>
      <point x="680.3157894736842" y="797.6842105263158"/>
      <point x="766.7368421052631" y="784.9473684210526"/>
      <point x="879.8947368421053" y="719.8947368421052" type="curve"/>
      <point x="900.421052631579" y="948.9473684210526" type="line"/>
      <point x="820.2105263157895" y="992.9473684210526"/>
      <point x="699.7894736842105" y="1021.6842105263158"/>
      <point x="581.578947368421" y="1021.6842105263158" type="curve" smooth="yes"/>
      <point x="250.5263157894737" y="1021.6842105263158"/>
      <point x="77.6842105263158" y="797.578947368421"/>
      <point x="77.6842105263158" y="497.05263157894734" type="curve" smooth="yes"/>
      <point x="77.6842105263158" y="198.5263157894737"/>
      <point x="265.36842105263156" y="-21.157894736842106"/>
    </contour>
  </outline>
</glyph>
<glyph name="sterling" format="2">
  <advance width="1204.3157894736842"/>
  <unicode hex="00A3"/>
  <outline>
    <contour>
      <point x="107.89473684210526" y="0.0" type="line"/>
      <point x="1139.578947368421" y="0.0" type="line"/>
      <point x="1139.578947368421" y="238.94736842105263" type="line"/>
      <point x="974.2105263157895" y="238.94736842105263"/>
      <point x="829.7894736842105" y="238.94736842105263"/>
      <point x="581.6842105263158" y="238.94736842105263" type="curve"/>
      <point x="307.7894736842105" y="238.94736842105263" type="line"/>
      <point x="328.3157894736842" y="189.36842105263156" type="line"/>
      <point x="496.7368421052631" y="305.57894736842104"/>
      <point x="533.0526315789474" y="418.7368421052631"/>
      <point x="533.0526315789474" y="554.8421052631579" type="curve" smooth="yes"/>
      <point x="533.0526315789474" y="874.9473684210526" type="line" smooth="yes"/>
      <point x="533.0526315789474" y="1075.7894736842106"/>
      <point x="621.6842105263158" y="1169.0526315789473"/>
      <point x="789.1578947368421" y="1169.0526315789473" type="curve"/>
      <point x="855.3684210526316" y="1169.0526315789473"/>
      <point x="944.9473684210526" y="1157.3684210526317"/>
      <point x="1063.3684210526317" y="1095.4736842105262" type="curve"/>
      <point x="1088.1052631578948" y="1329.7894736842106" type="line"/>
      <point x="1008.9473684210526" y="1373.7894736842106"/>
      <point x="887.4736842105264" y="1402.5263157894738"/>
      <point x="767.1578947368421" y="1402.5263157894738" type="curve" smooth="yes"/>
      <point x="427.6842105263158" y="1402.5263157894738"/>
      <point x="256.3157894736842" y="1225.0526315789473"/>
      <point x="256.3157894736842" y="886.1052631578948" type="curve" smooth="yes"/>
      <point x="256.3157894736842" y="748.3157894736842"/>
      <point x="256.3157894736842" y="612.5263157894736"/>
      <point x="256.3157894736842" y="475.7894736842105" type="curve"/>
      <point x="256.3157894736842" y="361.7894736842105"/>
      <point x="230.42105263157896" y="245.78947368421052"/>
      <point x="107.89473684210526" y="143.68421052631578" type="curve"/>
    </contour>
    <contour>
      <point x="107.78947368421052" y="646.421052631579" type="line"/>
      <point x="241.68421052631578" y="646.421052631579"/>
      <point x="368.5263157894737" y="646.421052631579"/>
      <point x="478.3157894736842" y="646.421052631579" type="curve"/>
      <point x="553.0526315789474" y="646.421052631579" type="line"/>
      <point x="662.8421052631579" y="646.421052631579"/>
      <point x="789.6842105263158" y="646.421052631579"/>
      <point x="923.578947368421" y="646.421052631579" type="curve"/>
      <point x="923.578947368421" y="830.8421052631579" type="line"/>
      <point x="789.6842105263158" y="830.8421052631579"/>
      <point x="662.8421052631579" y="830.8421052631579"/>
      <point x="553.0526315789474" y="830.8421052631579" type="curve"/>
      <point x="478.3157894736842" y="830.8421052631579" type="line"/>
      <point x="368.5263157894737" y="830.8421052631579"/>
      <point x="241.68421052631578" y="830.8421052631579"/>
      <point x="107.78947368421052" y="830.8421052631579" type="curve"/>
    </contour>
  </outline>
</glyph>
<glyph name="currency" format="2">
  <advance width="1288.421052631579"/>
  <unicode hex="00A4"/>
  <outline>
    <contour>
      <point x="641.2631578947369" y="204.21052631578948" type="curve" smooth="yes"/>
      <point x="906.7368421052631" y="204.21052631578948"/>
      <point x="1096.1052631578948" y="360.63157894736844"/>
      <point x="1096.1052631578948" y="642.1052631578947" type="curve" smooth="yes"/>
      <point x="1096.1052631578948" y="897.578947368421"/>
      <point x="907.6842105263158" y="1076.7368421052631"/>
      <point x="645.2631578947369" y="1076.7368421052631" type="curve" smooth="yes"/>
      <point x="378.8421052631579" y="1076.7368421052631"/>
      <point x="190.42105263157896" y="901.8947368421052"/>
      <point x="190.42105263157896" y="642.1052631578947" type="curve" smooth="yes"/>
      <point x="190.42105263157896" y="361.6842105263158"/>
      <point x="378.8421052631579" y="204.21052631578948"/>
    </contour>
    <contour>
      <point x="234.0" y="65.57894736842105" type="line"/>
      <point x="328.63157894736844" y="160.21052631578948"/>
      <point x="418.2105263157895" y="249.78947368421052"/>
      <point x="495.7894736842105" y="327.36842105263156" type="curve"/>
      <point x="330.63157894736844" y="492.5263157894737" type="line"/>
      <point x="253.05263157894737" y="414.9473684210526"/>
      <point x="163.47368421052633" y="325.36842105263156"/>
      <point x="68.84210526315789" y="230.73684210526315" type="curve"/>
    </contour>
    <contour>
      <point x="642.3157894736842" y="419.7894736842105" type="curve"/>
      <point x="518.7368421052631" y="419.7894736842105"/>
      <point x="424.9473684210526" y="492.42105263157896"/>
      <point x="424.9473684210526" y="641.0526315789474" type="curve" smooth="yes"/>
      <point x="424.9473684210526" y="777.6842105263158"/>
      <point x="519.6842105263158" y="862.2105263157895"/>
      <point x="644.2105263157895" y="862.2105263157895" type="curve"/>
      <point x="768.8421052631579" y="862.2105263157895"/>
      <point x="861.578947368421" y="775.578947368421"/>
      <point x="861.578947368421" y="641.0526315789474" type="curve" smooth="yes"/>
      <point x="861.578947368421" y="492.42105263157896"/>
      <point x="767.7894736842105" y="419.7894736842105"/>
    </contour>
    <contour>
      <point x="332.7368421052632" y="791.4736842105264" type="curve"/>
      <point x="493.6842105263158" y="952.421052631579" type="line"/>
      <point x="416.10526315789474" y="1030.0"/>
      <point x="326.5263157894737" y="1119.578947368421"/>
      <point x="231.89473684210526" y="1214.2105263157894" type="curve"/>
      <point x="70.94736842105263" y="1053.2631578947369" type="line"/>
      <point x="165.57894736842104" y="958.6315789473684"/>
      <point x="255.1578947368421" y="869.0526315789474"/>
    </contour>
    <contour>
      <point x="1056.5263157894738" y="67.6842105263158" type="curve"/>
      <point x="1217.4736842105262" y="228.6315789473684" type="line"/>
      <point x="1122.842105263158" y="323.2631578947368"/>
      <point x="1033.2631578947369" y="412.8421052631579"/>
      <point x="955.6842105263158" y="490.42105263157896" type="curve"/>
      <point x="794.7368421052631" y="329.4736842105263" type="line"/>
      <point x="872.3157894736842" y="251.89473684210526"/>
      <point x="961.8947368421053" y="162.31578947368422"/>
    </contour>
    <contour>
      <point x="957.7894736842105" y="789.3684210526316" type="line"/>
      <point x="1035.3684210526317" y="866.9473684210526"/>
      <point x="1124.9473684210527" y="956.5263157894736"/>
      <point x="1219.578947368421" y="1051.157894736842" type="curve"/>
      <point x="1054.421052631579" y="1216.3157894736842" type="line"/>
      <point x="959.7894736842105" y="1121.6842105263158"/>
      <point x="870.2105263157895" y="1032.1052631578948"/>
      <point x="792.6315789473684" y="954.5263157894736" type="curve"/>
    </contour>
  </outline>
</glyph>
<glyph name="yen" format="2">
  <advance width="1286.0"/>
  <unicode hex="00A5"/>
  <outline>
    <contour>
      <point x="512.9473684210526" y="504.42105263157896" type="line"/>
      <point x="777.2631578947369" y="504.42105263157896" type="line"/>
      <point x="1058.9473684210527" y="1032.842105263158" type="line"/>
      <point x="1117.6842105263158" y="1143.3684210526317"/>
      <point x="1182.3157894736842" y="1263.7894736842106"/>
      <point x="1241.0526315789473" y="1374.3157894736842" type="curve"/>
      <point x="936.5263157894738" y="1374.3157894736842" type="line"/>
      <point x="859.0526315789474" y="1213.2631578947369"/>
      <point x="820.3157894736842" y="1133.2631578947369"/>
      <point x="759.2631578947369" y="1005.6842105263158" type="curve"/>
      <point x="657.4736842105264" y="793.0526315789474" type="line"/>
      <point x="632.8421052631579" y="793.0526315789474" type="line"/>
      <point x="534.1052631578947" y="1003.6842105263158" type="line"/>
      <point x="473.1578947368421" y="1132.1052631578948"/>
      <point x="437.36842105263156" y="1207.157894736842"/>
      <point x="358.9473684210526" y="1374.3157894736842" type="curve"/>
      <point x="44.94736842105263" y="1374.3157894736842" type="line"/>
      <point x="137.57894736842104" y="1201.4736842105262"/>
      <point x="175.3684210526316" y="1131.2631578947369"/>
      <point x="229.1578947368421" y="1031.7894736842106" type="curve"/>
    </contour>
    <contour>
      <point x="507.7894736842105" y="0.0" type="curve"/>
      <point x="783.4736842105262" y="0.0" type="line"/>
      <point x="783.4736842105262" y="148.6315789473684"/>
      <point x="783.4736842105262" y="277.36842105263156"/>
      <point x="783.4736842105262" y="447.57894736842104" type="curve"/>
      <point x="783.4736842105262" y="729.1578947368421" type="line"/>
      <point x="507.7894736842105" y="729.1578947368421" type="line"/>
      <point x="507.7894736842105" y="447.57894736842104" type="line"/>
      <point x="507.7894736842105" y="277.36842105263156"/>
      <point x="507.7894736842105" y="148.6315789473684"/>
    </contour>
    <contour>
      <point x="146.6315789473684" y="251.78947368421052" type="line"/>
      <point x="280.5263157894737" y="251.78947368421052"/>
      <point x="407.36842105263156" y="251.78947368421052"/>
      <point x="517.1578947368421" y="251.78947368421052" type="curve"/>
      <point x="772.9473684210526" y="251.78947368421052" type="line"/>
      <point x="882.7368421052631" y="251.78947368421052"/>
      <point x="1009.578947368421" y="251.78947368421052"/>
      <point x="1143.4736842105262" y="251.78947368421052" type="curve"/>
      <point x="1143.4736842105262" y="415.1578947368421" type="line"/>
      <point x="1009.578947368421" y="415.1578947368421"/>
      <point x="882.7368421052631" y="415.1578947368421"/>
      <point x="772.9473684210526" y="415.1578947368421" type="curve"/>
      <point x="517.1578947368421" y="415.1578947368421" type="line"/>
      <point x="407.36842105263156" y="415.1578947368421"/>
      <point x="280.5263157894737" y="415.1578947368421"/>
      <point x="146.6315789473684" y="415.1578947368421" type="curve"/>
    </contour>
    <contour>
      <point x="146.6315789473684" y="563.3684210526316" type="line"/>
      <point x="280.5263157894737" y="563.3684210526316"/>
      <point x="407.36842105263156" y="563.3684210526316"/>
      <point x="517.1578947368421" y="563.3684210526316" type="curve"/>
      <point x="772.9473684210526" y="563.3684210526316" type="line"/>
      <point x="882.7368421052631" y="563.3684210526316"/>
      <point x="1009.578947368421" y="563.3684210526316"/>
      <point x="1143.4736842105262" y="563.3684210526316" type="curve"/>
      <point x="1143.4736842105262" y="726.7368421052631" type="line"/>
      <point x="1009.578947368421" y="726.7368421052631"/>
      <point x="882.7368421052631" y="726.7368421052631"/>
      <point x="772.9473684210526" y="726.7368421052631" type="curve"/>
      <point x="517.1578947368421" y="726.7368421052631" type="line"/>
      <point x="407.36842105263156" y="726.7368421052631"/>
      <point x="280.5263157894737" y="726.7368421052631"/>
      <point x="146.6315789473684" y="726.7368421052631" type="curve"/>
    </contour>
  </outline>
</glyph>
